<?xml version="1.0" encoding="UTF-8"?>
<!DOCTYPE svg PUBLIC "-//W3C//DTD SVG 1.1//EN" "http://www.w3.org/Graphics/SVG/1.1/DTD/svg11.dtd">
<svg xmlns="http://www.w3.org/2000/svg" version="1.1" width="499px" height="499px" style="shape-rendering:geometricPrecision; text-rendering:geometricPrecision; image-rendering:optimizeQuality; fill-rule:evenodd; clip-rule:evenodd" xmlns:xlink="http://www.w3.org/1999/xlink">
<g><path style="opacity:0.953" fill="#b09aab" d="M 276.5,124.5 C 275.833,124.5 275.167,124.5 274.5,124.5C 272.713,120.059 269.379,117.392 264.5,116.5C 261.536,116.02 258.536,115.687 255.5,115.5C 260.626,113.029 265.959,112.862 271.5,115C 272.584,118.093 274.251,121.26 276.5,124.5 Z"/></g>
<g><path style="opacity:1" fill="#767784" d="M 264.5,116.5 C 269.379,117.392 272.713,120.059 274.5,124.5C 270.794,124.075 267.461,122.741 264.5,120.5C 261.551,119.698 258.551,119.364 255.5,119.5C 255.791,118.351 256.624,117.684 258,117.5C 260.137,116.923 262.304,116.59 264.5,116.5 Z"/></g>
<g><path style="opacity:1" fill="#645b72" d="M 255.5,119.5 C 258.551,119.364 261.551,119.698 264.5,120.5C 267.461,122.741 270.794,124.075 274.5,124.5C 276.137,126.124 275.803,127.124 273.5,127.5C 266.867,124.24 259.867,122.24 252.5,121.5C 252.973,120.094 253.973,119.427 255.5,119.5 Z"/></g>
<g><path style="opacity:1" fill="#645f71" d="M 249.5,124.5 C 259.073,126.558 268.407,129.224 277.5,132.5C 278.404,133.209 278.737,134.209 278.5,135.5C 268.526,132.503 258.526,129.503 248.5,126.5C 248.833,125.833 249.167,125.167 249.5,124.5 Z"/></g>
<g><path style="opacity:1" fill="#737684" d="M 252.5,121.5 C 259.867,122.24 266.867,124.24 273.5,127.5C 275.803,127.124 276.137,126.124 274.5,124.5C 275.167,124.5 275.833,124.5 276.5,124.5C 276.833,127.167 277.167,129.833 277.5,132.5C 268.407,129.224 259.073,126.558 249.5,124.5C 249.5,122.5 250.5,121.5 252.5,121.5 Z"/></g>
<g><path style="opacity:0.153" fill="#d6c7ac" d="M 288.5,130.5 C 287.833,130.5 287.5,130.833 287.5,131.5C 286.5,131.5 285.5,131.5 284.5,131.5C 284.5,129.5 284.5,127.5 284.5,125.5C 285.833,125.5 287.167,125.5 288.5,125.5C 288.5,127.167 288.5,128.833 288.5,130.5 Z"/></g>
<g><path style="opacity:1" fill="#937691" d="M 255.5,115.5 C 258.536,115.687 261.536,116.02 264.5,116.5C 262.304,116.59 260.137,116.923 258,117.5C 256.624,117.684 255.791,118.351 255.5,119.5C 253.973,119.427 252.973,120.094 252.5,121.5C 250.5,121.5 249.5,122.5 249.5,124.5C 249.167,125.167 248.833,125.833 248.5,126.5C 246.394,127.566 244.894,129.233 244,131.5C 243.667,131.167 243.333,130.833 243,130.5C 242.517,131.448 242.351,132.448 242.5,133.5C 241.549,134.919 241.216,136.585 241.5,138.5C 239.212,141.862 238.045,145.529 238,149.5C 240.105,148.689 242.105,147.689 244,146.5C 245.44,147.148 246.94,147.481 248.5,147.5C 244.793,149.149 240.793,150.649 236.5,152C 234.562,155.163 233.562,158.663 233.5,162.5C 233.21,169.744 232.21,176.744 230.5,183.5C 230.167,183.5 229.833,183.5 229.5,183.5C 225.356,181.693 221.023,181.359 216.5,182.5C 218.117,181.028 220.117,180.361 222.5,180.5C 224.1,180.551 225.6,180.884 227,181.5C 227.564,176.058 228.397,170.391 229.5,164.5C 230.434,163.432 230.768,162.099 230.5,160.5C 232.058,143.3 239.058,128.8 251.5,117C 252.745,116.209 254.078,115.709 255.5,115.5 Z"/></g>
<g><path style="opacity:0.973" fill="#c8bba8" d="M 288.5,130.5 C 290.429,130.231 292.095,130.731 293.5,132C 291.228,134.09 289.228,133.924 287.5,131.5C 288.167,131.5 288.5,131.167 288.5,130.5 Z"/></g>
<g><path style="opacity:1" fill="#747a83" d="M 242.5,133.5 C 248.156,132.914 253.156,134.247 257.5,137.5C 252.13,137.392 246.797,137.725 241.5,138.5C 241.216,136.585 241.549,134.919 242.5,133.5 Z"/></g>
<g><path style="opacity:1" fill="#938997" d="M 276.5,124.5 C 281.275,129.465 283.941,135.465 284.5,142.5C 283.778,142.082 283.278,141.416 283,140.5C 282.536,141.094 282.369,141.761 282.5,142.5C 279.486,140.405 276.153,138.905 272.5,138C 274.608,134.66 276.108,134.827 277,138.5C 277.513,137.473 278.013,136.473 278.5,135.5C 278.737,134.209 278.404,133.209 277.5,132.5C 277.167,129.833 276.833,127.167 276.5,124.5 Z"/></g>
<g><path style="opacity:1" fill="#736f7e" d="M 248.5,126.5 C 258.526,129.503 268.526,132.503 278.5,135.5C 278.013,136.473 277.513,137.473 277,138.5C 276.108,134.827 274.608,134.66 272.5,138C 276.153,138.905 279.486,140.405 282.5,142.5C 283.579,148.449 283.746,154.449 283,160.5C 282.722,161.416 282.222,162.082 281.5,162.5C 281.666,157.489 281.499,152.489 281,147.5C 274.694,140.79 266.86,137.456 257.5,137.5C 253.156,134.247 248.156,132.914 242.5,133.5C 242.351,132.448 242.517,131.448 243,130.5C 243.333,130.833 243.667,131.167 244,131.5C 244.894,129.233 246.394,127.566 248.5,126.5 Z"/></g>
<g><path style="opacity:0.337" fill="#caa8ba" d="M 284.5,142.5 C 285.131,144.903 286.131,147.236 287.5,149.5C 285.995,150.842 285.328,152.508 285.5,154.5C 284.517,150.702 284.183,146.702 284.5,142.5 Z"/></g>
<g><path style="opacity:1" fill="#d8bbcb" d="M 248.5,147.5 C 249.434,148.568 249.768,149.901 249.5,151.5C 246.102,151.18 242.768,151.513 239.5,152.5C 241.291,153.17 242.958,153.837 244.5,154.5C 238.547,154.453 235.547,157.453 235.5,163.5C 234.833,163.167 234.167,162.833 233.5,162.5C 233.562,158.663 234.562,155.163 236.5,152C 240.793,150.649 244.793,149.149 248.5,147.5 Z"/></g>
<g><path style="opacity:1" fill="#996378" d="M 244.5,154.5 C 248.069,156.301 249.403,158.967 248.5,162.5C 247.814,161.152 246.814,159.985 245.5,159C 242.808,158.57 240.141,158.737 237.5,159.5C 237.771,161.38 237.104,162.713 235.5,163.5C 235.547,157.453 238.547,154.453 244.5,154.5 Z"/></g>
<g><path style="opacity:0.284" fill="#bb99af" d="M 285.5,157.5 C 287.11,167.029 287.443,176.696 286.5,186.5C 289.059,186.198 291.393,186.532 293.5,187.5C 290.833,187.5 288.167,187.5 285.5,187.5C 285.5,177.5 285.5,167.5 285.5,157.5 Z"/></g>
<g><path style="opacity:0.498" fill="#c7a0b7" d="M 230.5,160.5 C 230.768,162.099 230.434,163.432 229.5,164.5C 223.887,161.911 224.221,160.578 230.5,160.5 Z"/></g>
<g><path style="opacity:1" fill="#d1adbc" d="M 271.5,157.5 C 271.215,159.288 271.548,160.955 272.5,162.5C 274.432,161.48 276.432,161.313 278.5,162C 279.252,162.671 279.586,163.504 279.5,164.5C 278.244,164.096 277.077,163.429 276,162.5C 274.234,163.233 272.401,163.567 270.5,163.5C 270.205,161.265 270.539,159.265 271.5,157.5 Z"/></g>
<g><path style="opacity:1" fill="#bca064" d="M 248.5,162.5 C 248.5,163.167 248.5,163.833 248.5,164.5C 248.5,165.833 248.5,167.167 248.5,168.5C 244.102,168.294 239.768,168.627 235.5,169.5C 235.5,167.5 235.5,165.5 235.5,163.5C 237.104,162.713 237.771,161.38 237.5,159.5C 240.141,158.737 242.808,158.57 245.5,159C 246.814,159.985 247.814,161.152 248.5,162.5 Z"/></g>
<g><path style="opacity:1" fill="#c4ac56" d="M 240.5,160.5 C 241.873,160.343 243.207,160.51 244.5,161C 245.24,162.785 245.907,164.618 246.5,166.5C 243.232,167.487 239.898,167.82 236.5,167.5C 236.961,164.697 238.295,162.363 240.5,160.5 Z"/></g>
<g><path style="opacity:0.982" fill="#90708e" d="M 284.5,142.5 C 284.183,146.702 284.517,150.702 285.5,154.5C 285.5,155.5 285.5,156.5 285.5,157.5C 285.5,167.5 285.5,177.5 285.5,187.5C 288.167,187.5 290.833,187.5 293.5,187.5C 301.214,192.993 303.38,200.326 300,209.5C 299.059,211.727 297.892,213.727 296.5,215.5C 296.461,214.417 296.127,213.417 295.5,212.5C 298.028,211.184 298.028,210.017 295.5,209C 297.314,208.08 298.314,206.58 298.5,204.5C 297.838,201.532 297.505,198.532 297.5,195.5C 295.907,190.841 292.907,188.841 288.5,189.5C 288.167,189.5 287.833,189.5 287.5,189.5C 286.222,189.782 285.222,190.449 284.5,191.5C 284.843,189.517 284.176,188.183 282.5,187.5C 282.5,180.167 282.5,172.833 282.5,165.5C 281.209,165.737 280.209,165.404 279.5,164.5C 279.586,163.504 279.252,162.671 278.5,162C 276.432,161.313 274.432,161.48 272.5,162.5C 271.548,160.955 271.215,159.288 271.5,157.5C 276.196,156.771 279.53,158.438 281.5,162.5C 282.222,162.082 282.722,161.416 283,160.5C 283.746,154.449 283.579,148.449 282.5,142.5C 282.369,141.761 282.536,141.094 283,140.5C 283.278,141.416 283.778,142.082 284.5,142.5 Z"/></g>
<g><path style="opacity:0.565" fill="#ae8ea6" d="M 216.5,182.5 C 214.251,184.934 212.084,187.601 210,190.5C 209.134,195.709 209.801,200.709 212,205.5C 214.415,206.411 215.915,208.078 216.5,210.5C 207.509,204.249 205.676,196.249 211,186.5C 212.451,184.536 214.284,183.203 216.5,182.5 Z"/></g>
<g><path style="opacity:0.914" fill="#e0cbdd" d="M 288.5,189.5 C 292.907,188.841 295.907,190.841 297.5,195.5C 295.026,192.69 292.026,190.69 288.5,189.5 Z"/></g>
<g><path style="opacity:1" fill="#efe4da" d="M 257.5,137.5 C 266.86,137.456 274.694,140.79 281,147.5C 281.499,152.489 281.666,157.489 281.5,162.5C 279.53,158.438 276.196,156.771 271.5,157.5C 270.539,159.265 270.205,161.265 270.5,163.5C 272.401,163.567 274.234,163.233 276,162.5C 277.077,163.429 278.244,164.096 279.5,164.5C 280.209,165.404 281.209,165.737 282.5,165.5C 282.5,172.833 282.5,180.167 282.5,187.5C 282.154,193.07 280.987,198.403 279,203.5C 275.733,205.101 272.233,205.934 268.5,206C 264.664,208.886 264.497,212.052 268,215.5C 270.729,213.679 273.563,213.012 276.5,213.5C 275.522,214.801 275.855,215.968 277.5,217C 275.672,218.663 274.005,220.496 272.5,222.5C 272.495,224.819 272.828,227.319 273.5,230C 273.608,231.681 274.275,232.848 275.5,233.5C 276.568,234.434 277.901,234.768 279.5,234.5C 284.123,235.592 285.956,233.925 285,229.5C 284,228.833 283,228.167 282,227.5C 280.044,227.784 277.877,227.784 275.5,227.5C 275.5,226.5 275.5,225.5 275.5,224.5C 278.219,224.397 280.885,224.731 283.5,225.5C 285.108,227.262 287.108,228.428 289.5,229C 290.406,230.699 290.739,232.533 290.5,234.5C 289.214,240.835 285.214,243.835 278.5,243.5C 276.142,243.247 273.808,242.914 271.5,242.5C 270.691,244.292 270.191,246.292 270,248.5C 269.592,246.59 268.425,245.59 266.5,245.5C 263.167,247.167 259.833,248.833 256.5,250.5C 255.692,250.192 255.025,249.692 254.5,249C 258.936,244.112 257.936,242.612 251.5,244.5C 251.357,246.262 251.691,247.929 252.5,249.5C 248.861,250.46 245.195,250.46 241.5,249.5C 240.058,248.18 239.392,246.514 239.5,244.5C 238.5,244.5 237.5,244.5 236.5,244.5C 235.791,243.596 234.791,243.263 233.5,243.5C 233.665,240.15 233.498,236.817 233,233.5C 230.056,231.628 228.889,228.961 229.5,225.5C 231.635,225.853 232.968,225.02 233.5,223C 231.648,218.31 231.148,213.477 232,208.5C 232.483,209.448 232.649,210.448 232.5,211.5C 238.323,211.412 240.656,208.412 239.5,202.5C 236.515,201.276 233.849,201.609 231.5,203.5C 230.503,196.866 230.17,190.2 230.5,183.5C 232.21,176.744 233.21,169.744 233.5,162.5C 234.167,162.833 234.833,163.167 235.5,163.5C 235.5,165.5 235.5,167.5 235.5,169.5C 235.491,171.308 235.991,172.975 237,174.5C 238.878,176.043 240.378,177.876 241.5,180C 246.712,181.128 249.212,178.961 249,173.5C 249.805,170.304 249.638,167.304 248.5,164.5C 248.5,163.833 248.5,163.167 248.5,162.5C 249.403,158.967 248.069,156.301 244.5,154.5C 242.958,153.837 241.291,153.17 239.5,152.5C 242.768,151.513 246.102,151.18 249.5,151.5C 249.768,149.901 249.434,148.568 248.5,147.5C 246.94,147.481 245.44,147.148 244,146.5C 242.105,147.689 240.105,148.689 238,149.5C 238.045,145.529 239.212,141.862 241.5,138.5C 246.797,137.725 252.13,137.392 257.5,137.5 Z"/></g>
<g><path style="opacity:1" fill="#d2b3ab" d="M 277.5,177.5 C 278.5,177.5 279.5,177.5 280.5,177.5C 280.656,181.582 280.156,185.582 279,189.5C 277.786,191.049 276.286,192.215 274.5,193C 274.833,193.333 275.167,193.667 275.5,194C 274.207,194.49 272.873,194.657 271.5,194.5C 272.463,192.702 271.796,191.368 269.5,190.5C 269.624,189.893 269.957,189.56 270.5,189.5C 272.167,189.5 273.833,189.5 275.5,189.5C 275.5,187.5 275.5,185.5 275.5,183.5C 276.978,183.762 278.311,183.429 279.5,182.5C 278.544,180.925 277.877,179.258 277.5,177.5 Z"/></g>
<g><path style="opacity:1" fill="#b58e9f" d="M 270.5,183.5 C 270.5,185.5 270.5,187.5 270.5,189.5C 269.957,189.56 269.624,189.893 269.5,190.5C 271.796,191.368 272.463,192.702 271.5,194.5C 266.818,191.123 266.484,187.457 270.5,183.5 Z"/></g>
<g><path style="opacity:1" fill="#9b608b" d="M 270.5,183.5 C 272.167,183.5 273.833,183.5 275.5,183.5C 275.5,185.5 275.5,187.5 275.5,189.5C 273.833,189.5 272.167,189.5 270.5,189.5C 270.5,187.5 270.5,185.5 270.5,183.5 Z"/></g>
<g><path style="opacity:1" fill="#bfa163" d="M 277.5,177.5 C 277.877,179.258 278.544,180.925 279.5,182.5C 278.311,183.429 276.978,183.762 275.5,183.5C 273.833,183.5 272.167,183.5 270.5,183.5C 268.203,181.185 267.869,178.518 269.5,175.5C 272.993,172.571 275.66,173.237 277.5,177.5 Z"/></g>
<g><path style="opacity:1" fill="#cfb19a" d="M 248.5,164.5 C 249.638,167.304 249.805,170.304 249,173.5C 249.212,178.961 246.712,181.128 241.5,180C 240.378,177.876 238.878,176.043 237,174.5C 235.991,172.975 235.491,171.308 235.5,169.5C 239.768,168.627 244.102,168.294 248.5,168.5C 248.5,167.167 248.5,165.833 248.5,164.5 Z"/></g>
<g><path style="opacity:1" fill="#9a617f" d="M 280.5,177.5 C 279.5,177.5 278.5,177.5 277.5,177.5C 275.66,173.237 272.993,172.571 269.5,175.5C 270.026,169.357 272.86,168.024 278,171.5C 279.559,173.217 280.392,175.217 280.5,177.5 Z"/></g>
<g><path style="opacity:1" fill="#9f6885" d="M 239.5,169.5 C 241.167,169.5 242.833,169.5 244.5,169.5C 244.5,171.5 244.5,173.5 244.5,175.5C 242.833,175.5 241.167,175.5 239.5,175.5C 239.5,173.5 239.5,171.5 239.5,169.5 Z"/></g>
<g><path style="opacity:1" fill="#726d7f" d="M 287.5,189.5 C 287.833,189.5 288.167,189.5 288.5,189.5C 292.026,190.69 295.026,192.69 297.5,195.5C 297.505,198.532 297.838,201.532 298.5,204.5C 298.314,206.58 297.314,208.08 295.5,209C 298.028,210.017 298.028,211.184 295.5,212.5C 296.127,213.417 296.461,214.417 296.5,215.5C 293.943,217.607 290.943,218.941 287.5,219.5C 286.041,219.567 284.708,219.234 283.5,218.5C 282.645,217.469 281.978,216.303 281.5,215C 282.098,209.687 282.765,204.521 283.5,199.5C 283.173,204.214 283.507,208.88 284.5,213.5C 285.736,212.754 287.07,212.421 288.5,212.5C 288.003,208.169 287.669,203.836 287.5,199.5C 287.722,197.945 288.389,196.611 289.5,195.5C 287.914,193.827 287.247,191.827 287.5,189.5 Z"/></g>
<g><path style="opacity:1" fill="#5d4867" d="M 229.5,183.5 C 229.5,193.167 229.5,202.833 229.5,212.5C 228.183,212.821 226.849,213.154 225.5,213.5C 222.801,211.653 219.801,210.653 216.5,210.5C 215.915,208.078 214.415,206.411 212,205.5C 209.801,200.709 209.134,195.709 210,190.5C 212.084,187.601 214.251,184.934 216.5,182.5C 221.023,181.359 225.356,181.693 229.5,183.5 Z"/></g>
<g><path style="opacity:1" fill="#a87f98" d="M 247.5,204.5 C 253.448,204.626 253.781,205.626 248.5,207.5C 246.197,207.124 245.863,206.124 247.5,204.5 Z"/></g>
<g><path style="opacity:1" fill="#eddcd9" d="M 282.5,187.5 C 284.176,188.183 284.843,189.517 284.5,191.5C 283.908,194.127 283.575,196.794 283.5,199.5C 282.765,204.521 282.098,209.687 281.5,215C 281.978,216.303 282.645,217.469 283.5,218.5C 281.605,220.443 279.272,221.943 276.5,223C 282.212,221.481 287.045,222.981 291,227.5C 291.796,230.039 291.629,232.372 290.5,234.5C 290.739,232.533 290.406,230.699 289.5,229C 287.108,228.428 285.108,227.262 283.5,225.5C 280.885,224.731 278.219,224.397 275.5,224.5C 275.5,225.5 275.5,226.5 275.5,227.5C 277.877,227.784 280.044,227.784 282,227.5C 283,228.167 284,228.833 285,229.5C 285.956,233.925 284.123,235.592 279.5,234.5C 280.968,233.221 281.635,231.554 281.5,229.5C 277.759,228.599 275.759,229.932 275.5,233.5C 274.275,232.848 273.608,231.681 273.5,230C 272.828,227.319 272.495,224.819 272.5,222.5C 274.005,220.496 275.672,218.663 277.5,217C 275.855,215.968 275.522,214.801 276.5,213.5C 273.563,213.012 270.729,213.679 268,215.5C 264.497,212.052 264.664,208.886 268.5,206C 272.233,205.934 275.733,205.101 279,203.5C 280.987,198.403 282.154,193.07 282.5,187.5 Z"/></g>
<g><path style="opacity:1" fill="#5e4e69" d="M 287.5,189.5 C 287.247,191.827 287.914,193.827 289.5,195.5C 288.389,196.611 287.722,197.945 287.5,199.5C 287.669,203.836 288.003,208.169 288.5,212.5C 287.07,212.421 285.736,212.754 284.5,213.5C 283.507,208.88 283.173,204.214 283.5,199.5C 283.575,196.794 283.908,194.127 284.5,191.5C 285.222,190.449 286.222,189.782 287.5,189.5 Z"/></g>
<g><path style="opacity:1" fill="#e2c2cc" d="M 229.5,183.5 C 229.833,183.5 230.167,183.5 230.5,183.5C 230.17,190.2 230.503,196.866 231.5,203.5C 233.849,201.609 236.515,201.276 239.5,202.5C 240.656,208.412 238.323,211.412 232.5,211.5C 232.649,210.448 232.483,209.448 232,208.5C 231.148,213.477 231.648,218.31 233.5,223C 232.968,225.02 231.635,225.853 229.5,225.5C 230.429,224.685 231.429,223.852 232.5,223C 230.313,219.938 229.313,216.438 229.5,212.5C 229.5,202.833 229.5,193.167 229.5,183.5 Z"/></g>
<g><path style="opacity:1" fill="#a4788a" d="M 253.5,224.5 C 255.167,224.5 256.833,224.5 258.5,224.5C 258.5,225.5 258.5,226.5 258.5,227.5C 256.833,227.5 255.167,227.5 253.5,227.5C 253.5,226.5 253.5,225.5 253.5,224.5 Z"/></g>
<g><path style="opacity:0.925" fill="#d3c4a7" d="M 208.5,223.5 C 213.357,223.545 215.023,225.879 213.5,230.5C 212.311,231.429 210.978,231.762 209.5,231.5C 209.286,229.856 209.62,228.356 210.5,227C 209.027,226.29 208.36,225.124 208.5,223.5 Z"/></g>
<g><path style="opacity:1" fill="#ae868f" d="M 279.5,234.5 C 277.901,234.768 276.568,234.434 275.5,233.5C 275.759,229.932 277.759,228.599 281.5,229.5C 281.635,231.554 280.968,233.221 279.5,234.5 Z"/></g>
<g><path style="opacity:0.871" fill="#b28ca4" d="M 216.5,210.5 C 219.801,210.653 222.801,211.653 225.5,213.5C 226.849,213.154 228.183,212.821 229.5,212.5C 229.313,216.438 230.313,219.938 232.5,223C 231.429,223.852 230.429,224.685 229.5,225.5C 228.889,228.961 230.056,231.628 233,233.5C 233.498,236.817 233.665,240.15 233.5,243.5C 234.791,243.263 235.791,243.596 236.5,244.5C 236.5,244.833 236.5,245.167 236.5,245.5C 234.883,244.962 233.216,244.629 231.5,244.5C 231.5,243.167 231.5,241.833 231.5,240.5C 231.662,238.473 231.495,236.473 231,234.5C 228.374,232.443 225.874,230.277 223.5,228C 224.604,226.18 226.104,224.68 228,223.5C 228.328,220.793 227.995,218.126 227,215.5C 223.004,214.679 219.504,213.012 216.5,210.5 Z"/></g>
<g><path style="opacity:0.918" fill="#e9b4b4" d="M 203.5,245.5 C 202.524,246.815 201.524,248.148 200.5,249.5C 198.182,249.457 195.849,249.124 193.5,248.5C 196.795,247.716 200.129,246.716 203.5,245.5 Z"/></g>
<g><path style="opacity:1" fill="#a7749b" d="M 236.5,245.5 C 236.5,245.167 236.5,244.833 236.5,244.5C 237.5,244.5 238.5,244.5 239.5,244.5C 239.392,246.514 240.058,248.18 241.5,249.5C 241.5,249.833 241.5,250.167 241.5,250.5C 240.503,250.47 239.836,250.97 239.5,252C 240.789,257.975 240.789,263.809 239.5,269.5C 240.085,261.159 239.085,253.159 236.5,245.5 Z"/></g>
<g><path style="opacity:0.686" fill="#b48fa4" d="M 283.5,218.5 C 284.708,219.234 286.041,219.567 287.5,219.5C 287.082,220.222 286.416,220.722 285.5,221C 288.625,221.979 291.125,223.813 293,226.5C 293.879,231.287 293.545,235.953 292,240.5C 286.535,244.599 280.369,246.599 273.5,246.5C 272.989,251.921 271.989,257.254 270.5,262.5C 270.919,263.672 271.585,264.672 272.5,265.5C 272.376,266.107 272.043,266.44 271.5,266.5C 269.925,264.886 269.259,262.886 269.5,260.5C 268.5,260.5 267.5,260.5 266.5,260.5C 270.013,255.128 271.679,249.128 271.5,242.5C 273.808,242.914 276.142,243.247 278.5,243.5C 285.214,243.835 289.214,240.835 290.5,234.5C 291.629,232.372 291.796,230.039 291,227.5C 287.045,222.981 282.212,221.481 276.5,223C 279.272,221.943 281.605,220.443 283.5,218.5 Z"/></g>
<g><path style="opacity:1" fill="#e5c2b8" d="M 218.5,249.5 C 218.5,250.833 218.5,252.167 218.5,253.5C 217.5,253.5 216.5,253.5 215.5,253.5C 215.5,254.833 215.5,256.167 215.5,257.5C 214.432,258.434 213.099,258.768 211.5,258.5C 211.167,257.5 210.5,256.833 209.5,256.5C 208.493,255.172 207.16,254.172 205.5,253.5C 201.606,254.743 197.939,256.41 194.5,258.5C 195.973,256.605 197.64,254.939 199.5,253.5C 202.694,252.242 206.027,251.576 209.5,251.5C 209.147,253.635 209.98,254.968 212,255.5C 213.03,255.164 213.53,254.497 213.5,253.5C 213.989,250.676 215.656,249.343 218.5,249.5 Z"/></g>
<g><path style="opacity:0.847" fill="#ad7f97" d="M 213.5,253.5 C 213.53,254.497 213.03,255.164 212,255.5C 209.98,254.968 209.147,253.635 209.5,251.5C 206.027,251.576 202.694,252.242 199.5,253.5C 197.451,253.294 197.117,252.461 198.5,251C 195.484,250.336 192.651,250.836 190,252.5C 189.5,252.167 189,251.833 188.5,251.5C 190.544,250.935 192.21,249.935 193.5,248.5C 195.849,249.124 198.182,249.457 200.5,249.5C 201.524,248.148 202.524,246.815 203.5,245.5C 206.2,244.484 208.866,244.484 211.5,245.5C 212.747,247.006 212.747,248.506 211.5,250C 212.085,251.302 212.751,252.469 213.5,253.5 Z"/></g>
<g><path style="opacity:1" fill="#e4bddb" d="M 207.5,246.5 C 209.355,246.272 210.188,246.939 210,248.5C 208.215,249.24 206.382,249.907 204.5,250.5C 203.479,249.998 203.312,249.332 204,248.5C 205.302,247.915 206.469,247.249 207.5,246.5 Z"/></g>
<g><path style="opacity:1" fill="#eabea3" d="M 221.5,246.5 C 221.389,247.117 221.056,247.617 220.5,248C 223.047,248.66 225.547,248.493 228,247.5C 229.726,247.946 231.226,248.779 232.5,250C 229.55,255.042 225.216,258.209 219.5,259.5C 218.222,261.722 217.222,264.056 216.5,266.5C 216.543,267.416 216.876,268.083 217.5,268.5C 217.155,271.198 215.822,273.198 213.5,274.5C 211.741,274.046 209.741,274.046 207.5,274.5C 207.715,276.179 207.048,277.179 205.5,277.5C 206.234,276.292 206.567,274.959 206.5,273.5C 207.675,273.719 208.675,273.386 209.5,272.5C 209.043,271.702 208.376,271.369 207.5,271.5C 209.656,269.159 212.156,267.159 215,265.5C 215.931,263.541 216.764,261.541 217.5,259.5C 217.145,258.478 216.478,257.811 215.5,257.5C 215.5,256.167 215.5,254.833 215.5,253.5C 216.5,253.5 217.5,253.5 218.5,253.5C 218.5,252.167 218.5,250.833 218.5,249.5C 218.856,247.81 219.856,246.81 221.5,246.5 Z"/></g>
<g><path style="opacity:1" fill="#aa788a" d="M 225.5,245.5 C 228.639,246.457 231.639,247.124 234.5,247.5C 235.875,249.163 235.542,250.497 233.5,251.5C 233.938,252.506 234.604,252.506 235.5,251.5C 236.797,253.973 236.797,256.307 235.5,258.5C 235.5,257.833 235.167,257.5 234.5,257.5C 234.719,256.325 234.386,255.325 233.5,254.5C 231.389,255.605 230.055,257.271 229.5,259.5C 227.716,258.28 226.05,258.28 224.5,259.5C 221.925,262.319 219.592,265.319 217.5,268.5C 216.876,268.083 216.543,267.416 216.5,266.5C 217.222,264.056 218.222,261.722 219.5,259.5C 225.216,258.209 229.55,255.042 232.5,250C 231.226,248.779 229.726,247.946 228,247.5C 225.547,248.493 223.047,248.66 220.5,248C 221.056,247.617 221.389,247.117 221.5,246.5C 222.568,245.566 223.901,245.232 225.5,245.5 Z"/></g>
<g><path style="opacity:1" fill="#974a8e" d="M 241.5,250.5 C 247.366,252.71 253.366,253.044 259.5,251.5C 260.675,251.281 261.675,251.614 262.5,252.5C 260.808,254.359 259.308,256.359 258,258.5C 255.222,259.612 253.055,261.445 251.5,264C 249.5,264.333 247.5,264.667 245.5,265C 244.748,265.671 244.414,266.504 244.5,267.5C 243.662,267.842 243.328,268.508 243.5,269.5C 242.292,270.234 240.959,270.567 239.5,270.5C 239.5,270.167 239.5,269.833 239.5,269.5C 240.789,263.809 240.789,257.975 239.5,252C 239.836,250.97 240.503,250.47 241.5,250.5 Z"/></g>
<g><path style="opacity:1" fill="#9996a2" d="M 193.5,248.5 C 192.21,249.935 190.544,250.935 188.5,251.5C 189,251.833 189.5,252.167 190,252.5C 192.651,250.836 195.484,250.336 198.5,251C 197.117,252.461 197.451,253.294 199.5,253.5C 197.64,254.939 195.973,256.605 194.5,258.5C 193.391,258.557 192.391,258.89 191.5,259.5C 191.167,259.5 190.833,259.5 190.5,259.5C 187.813,259.664 185.146,259.497 182.5,259C 181.922,257.583 180.922,256.75 179.5,256.5C 183.256,252.287 187.923,249.621 193.5,248.5 Z"/></g>
<g><path style="opacity:1" fill="#ce9a73" d="M 209.5,256.5 C 207.084,257.968 204.417,258.635 201.5,258.5C 198.833,258.833 196.167,259.167 193.5,259.5C 193.267,262.542 192.267,265.208 190.5,267.5C 190.833,264.833 191.167,262.167 191.5,259.5C 192.391,258.89 193.391,258.557 194.5,258.5C 197.939,256.41 201.606,254.743 205.5,253.5C 207.16,254.172 208.493,255.172 209.5,256.5 Z"/></g>
<g><path style="opacity:1" fill="#b485a5" d="M 244.5,267.5 C 244.414,266.504 244.748,265.671 245.5,265C 247.5,264.667 249.5,264.333 251.5,264C 253.055,261.445 255.222,259.612 258,258.5C 259.308,256.359 260.808,254.359 262.5,252.5C 261.675,251.614 260.675,251.281 259.5,251.5C 262.395,250.6 265.062,249.267 267.5,247.5C 265.825,251.673 263.492,255.506 260.5,259C 257.5,261.333 254.5,263.667 251.5,266C 249.26,266.977 246.927,267.477 244.5,267.5 Z"/></g>
<g><path style="opacity:1" fill="#c0695f" d="M 211.5,259.5 C 212.5,259.833 213.167,260.5 213.5,261.5C 210.314,262.952 206.98,264.118 203.5,265C 201.833,265.667 200.167,265.667 198.5,265C 201.298,259.932 205.632,258.099 211.5,259.5 Z"/></g>
<g><path style="opacity:1" fill="#c88e59" d="M 201.5,258.5 C 200.103,260.379 198.437,262.046 196.5,263.5C 195.692,265.423 195.192,267.423 195,269.5C 193.644,270.38 192.144,270.714 190.5,270.5C 190.5,269.5 190.5,268.5 190.5,267.5C 192.267,265.208 193.267,262.542 193.5,259.5C 196.167,259.167 198.833,258.833 201.5,258.5 Z"/></g>
<g><path style="opacity:1" fill="#7d7084" d="M 266.5,260.5 C 267.5,260.5 268.5,260.5 269.5,260.5C 269.259,262.886 269.925,264.886 271.5,266.5C 270.5,266.5 269.5,266.5 268.5,266.5C 268.575,269.206 268.908,271.873 269.5,274.5C 269.833,275.167 270.167,275.833 270.5,276.5C 267.126,276.674 263.793,277.174 260.5,278C 258.167,279 256.5,280.667 255.5,283C 252.571,283.777 249.737,283.61 247,282.5C 246.506,280.866 246.34,279.199 246.5,277.5C 247.538,279.572 249.038,281.239 251,282.5C 252.31,281.87 253.144,280.87 253.5,279.5C 254.338,279.158 254.672,278.492 254.5,277.5C 255.794,276.71 256.961,275.71 258,274.5C 260.593,269.639 263.427,264.972 266.5,260.5 Z"/></g>
<g><path style="opacity:1" fill="#b57368" d="M 215.5,257.5 C 216.478,257.811 217.145,258.478 217.5,259.5C 216.764,261.541 215.931,263.541 215,265.5C 212.156,267.159 209.656,269.159 207.5,271.5C 206.167,271.833 204.833,272.167 203.5,272.5C 202.761,272.631 202.094,272.464 201.5,272C 202.833,271.333 203.833,270.333 204.5,269C 207.965,268.35 210.965,266.85 213.5,264.5C 214.653,263.313 214.653,262.313 213.5,261.5C 213.167,260.5 212.5,259.833 211.5,259.5C 211.5,259.167 211.5,258.833 211.5,258.5C 213.099,258.768 214.432,258.434 215.5,257.5 Z"/></g>
<g><path style="opacity:1" fill="#f0e5db" d="M 254.5,277.5 C 254.672,278.492 254.338,279.158 253.5,279.5C 249.474,278.646 246.807,276.146 245.5,272C 245.759,270.739 246.426,269.739 247.5,269C 250.757,267.957 254.09,267.457 257.5,267.5C 257.975,270.885 256.642,273.218 253.5,274.5C 254.127,275.417 254.461,276.417 254.5,277.5 Z"/></g>
<g><path style="opacity:1" fill="#eddadb" d="M 271.5,242.5 C 271.679,249.128 270.013,255.128 266.5,260.5C 263.427,264.972 260.593,269.639 258,274.5C 256.961,275.71 255.794,276.71 254.5,277.5C 254.461,276.417 254.127,275.417 253.5,274.5C 256.642,273.218 257.975,270.885 257.5,267.5C 254.09,267.457 250.757,267.957 247.5,269C 246.426,269.739 245.759,270.739 245.5,272C 246.807,276.146 249.474,278.646 253.5,279.5C 253.144,280.87 252.31,281.87 251,282.5C 249.038,281.239 247.538,279.572 246.5,277.5C 245.5,276.5 244.5,275.5 243.5,274.5C 242.506,273.001 242.506,271.334 243.5,269.5C 243.328,268.508 243.662,267.842 244.5,267.5C 246.927,267.477 249.26,266.977 251.5,266C 254.5,263.667 257.5,261.333 260.5,259C 263.492,255.506 265.825,251.673 267.5,247.5C 265.062,249.267 262.395,250.6 259.5,251.5C 253.366,253.044 247.366,252.71 241.5,250.5C 241.5,250.167 241.5,249.833 241.5,249.5C 245.195,250.46 248.861,250.46 252.5,249.5C 251.691,247.929 251.357,246.262 251.5,244.5C 257.936,242.612 258.936,244.112 254.5,249C 255.025,249.692 255.692,250.192 256.5,250.5C 259.833,248.833 263.167,247.167 266.5,245.5C 268.425,245.59 269.592,246.59 270,248.5C 270.191,246.292 270.691,244.292 271.5,242.5 Z"/></g>
<g><path style="opacity:1" fill="#c17c5a" d="M 209.5,256.5 C 210.5,256.833 211.167,257.5 211.5,258.5C 211.5,258.833 211.5,259.167 211.5,259.5C 205.632,258.099 201.298,259.932 198.5,265C 200.167,265.667 201.833,265.667 203.5,265C 206.98,264.118 210.314,262.952 213.5,261.5C 214.653,262.313 214.653,263.313 213.5,264.5C 210.965,266.85 207.965,268.35 204.5,269C 203.833,270.333 202.833,271.333 201.5,272C 202.094,272.464 202.761,272.631 203.5,272.5C 201.626,273.285 199.626,273.952 197.5,274.5C 195.157,273.656 192.824,272.656 190.5,271.5C 189.523,268.713 189.19,265.713 189.5,262.5C 190.11,261.609 190.443,260.609 190.5,259.5C 190.833,259.5 191.167,259.5 191.5,259.5C 191.167,262.167 190.833,264.833 190.5,267.5C 190.5,268.5 190.5,269.5 190.5,270.5C 192.144,270.714 193.644,270.38 195,269.5C 195.192,267.423 195.692,265.423 196.5,263.5C 198.437,262.046 200.103,260.379 201.5,258.5C 204.417,258.635 207.084,257.968 209.5,256.5 Z"/></g>
<g><path style="opacity:1" fill="#edd4dc" d="M 231.5,240.5 C 231.5,241.833 231.5,243.167 231.5,244.5C 233.216,244.629 234.883,244.962 236.5,245.5C 239.085,253.159 240.085,261.159 239.5,269.5C 237.938,269.733 236.605,270.4 235.5,271.5C 234.414,271.38 233.747,270.713 233.5,269.5C 234.648,265.911 235.315,262.244 235.5,258.5C 236.797,256.307 236.797,253.973 235.5,251.5C 234.604,252.506 233.938,252.506 233.5,251.5C 235.542,250.497 235.875,249.163 234.5,247.5C 231.639,247.124 228.639,246.457 225.5,245.5C 226.919,244.549 228.585,244.216 230.5,244.5C 230.232,242.901 230.566,241.568 231.5,240.5 Z"/></g>
<g><path style="opacity:0.851" fill="#7a7785" d="M 224.5,259.5 C 226.05,258.28 227.716,258.28 229.5,259.5C 228.165,265.831 226.999,272.164 226,278.5C 228.481,272.549 230.648,266.549 232.5,260.5C 231.935,265.149 231.435,269.816 231,274.5C 229.67,278.007 227.17,279.673 223.5,279.5C 223.5,280.833 223.5,282.167 223.5,283.5C 223.5,284.5 223.5,285.5 223.5,286.5C 219.913,288.655 216.58,291.322 213.5,294.5C 211.955,295.452 210.288,295.785 208.5,295.5C 211.458,292.94 213.958,289.94 216,286.5C 217.307,276.89 220.474,268.056 225.5,260C 225.272,259.601 224.938,259.435 224.5,259.5 Z"/></g>
<g><path style="opacity:1" fill="#d5c2d1" d="M 234.5,257.5 C 233.094,257.973 232.427,258.973 232.5,260.5C 230.648,266.549 228.481,272.549 226,278.5C 226.999,272.164 228.165,265.831 229.5,259.5C 230.055,257.271 231.389,255.605 233.5,254.5C 234.386,255.325 234.719,256.325 234.5,257.5 Z"/></g>
<g><path style="opacity:1" fill="#a14e5f" d="M 189.5,262.5 C 189.19,265.713 189.523,268.713 190.5,271.5C 190.5,272.833 190.5,274.167 190.5,275.5C 186.818,275.335 183.152,275.501 179.5,276C 178.027,276.71 177.36,277.876 177.5,279.5C 176.609,278.739 175.942,277.739 175.5,276.5C 176.383,275.452 177.05,274.285 177.5,273C 176.606,269.224 176.272,265.39 176.5,261.5C 177.5,261.5 178.5,261.5 179.5,261.5C 179.697,265.818 179.697,269.985 179.5,274C 180.793,274.49 182.127,274.657 183.5,274.5C 183.045,272.633 182.378,270.8 181.5,269C 182.077,266.863 182.41,264.696 182.5,262.5C 184.167,262.5 185.833,262.5 187.5,262.5C 187.481,264.06 187.148,265.56 186.5,267C 187,268.5 187.5,270 188,271.5C 188.181,268.305 188.681,265.305 189.5,262.5 Z"/></g>
<g><path style="opacity:1" fill="#c39cb5" d="M 271.5,266.5 C 271.389,267.117 271.056,267.617 270.5,268C 272.076,269.73 273.41,271.563 274.5,273.5C 273.85,273.196 273.183,272.863 272.5,272.5C 271.735,273.612 270.735,274.279 269.5,274.5C 268.908,271.873 268.575,269.206 268.5,266.5C 269.5,266.5 270.5,266.5 271.5,266.5 Z"/></g>
<g><path style="opacity:1" fill="#e7a774" d="M 207.5,271.5 C 208.376,271.369 209.043,271.702 209.5,272.5C 208.675,273.386 207.675,273.719 206.5,273.5C 206.567,274.959 206.234,276.292 205.5,277.5C 204.738,279.262 203.404,280.262 201.5,280.5C 200.141,278.482 198.807,276.482 197.5,274.5C 199.626,273.952 201.626,273.285 203.5,272.5C 204.833,272.167 206.167,271.833 207.5,271.5 Z"/></g>
<g><path style="opacity:1" fill="#9d5476" d="M 179.5,256.5 C 180.922,256.75 181.922,257.583 182.5,259C 185.146,259.497 187.813,259.664 190.5,259.5C 190.443,260.609 190.11,261.609 189.5,262.5C 188.681,265.305 188.181,268.305 188,271.5C 187.5,270 187,268.5 186.5,267C 187.148,265.56 187.481,264.06 187.5,262.5C 185.833,262.5 184.167,262.5 182.5,262.5C 182.41,264.696 182.077,266.863 181.5,269C 182.378,270.8 183.045,272.633 183.5,274.5C 182.127,274.657 180.793,274.49 179.5,274C 179.697,269.985 179.697,265.818 179.5,261.5C 178.5,261.5 177.5,261.5 176.5,261.5C 176.272,265.39 176.606,269.224 177.5,273C 177.05,274.285 176.383,275.452 175.5,276.5C 175.942,277.739 176.609,278.739 177.5,279.5C 179.063,280.945 180.396,282.611 181.5,284.5C 180.178,284.67 179.011,284.337 178,283.5C 176.23,280.958 174.73,278.291 173.5,275.5C 174.22,270.863 174.72,266.197 175,261.5C 176.707,259.963 178.207,258.296 179.5,256.5 Z"/></g>
<g><path style="opacity:0.906" fill="#a5869f" d="M 275.5,273.5 C 279.12,275.453 282.12,278.119 284.5,281.5C 284.631,282.239 284.464,282.906 284,283.5C 281.584,280.577 278.75,278.243 275.5,276.5C 275.5,275.5 275.5,274.5 275.5,273.5 Z"/></g>
<g><path style="opacity:1" fill="#bd91aa" d="M 179.5,256.5 C 178.207,258.296 176.707,259.963 175,261.5C 174.72,266.197 174.22,270.863 173.5,275.5C 174.73,278.291 176.23,280.958 178,283.5C 179.011,284.337 180.178,284.67 181.5,284.5C 184.279,284.279 186.946,284.612 189.5,285.5C 188.048,286.302 186.382,286.802 184.5,287C 183.978,287.561 183.645,288.228 183.5,289C 184.127,291.135 184.627,293.302 185,295.5C 185.66,297.324 186.827,298.657 188.5,299.5C 188.5,300.167 188.5,300.833 188.5,301.5C 180.789,300.529 173.955,297.529 168,292.5C 167.187,290.564 166.687,288.564 166.5,286.5C 166.956,278.473 167.622,270.473 168.5,262.5C 170.288,262.785 171.955,262.452 173.5,261.5C 173,261.167 172.5,260.833 172,260.5C 170.234,261.233 168.401,261.567 166.5,261.5C 171.022,260.355 175.355,258.689 179.5,256.5 Z"/></g>
<g><path style="opacity:1" fill="#717685" d="M 243.5,274.5 C 244.5,275.5 245.5,276.5 246.5,277.5C 246.34,279.199 246.506,280.866 247,282.5C 249.737,283.61 252.571,283.777 255.5,283C 256.5,280.667 258.167,279 260.5,278C 263.793,277.174 267.126,276.674 270.5,276.5C 270.715,278.179 270.048,279.179 268.5,279.5C 265.736,279.999 264.069,281.665 263.5,284.5C 256.914,285.626 250.247,285.792 243.5,285C 242.594,283.301 242.261,281.467 242.5,279.5C 242.629,277.784 242.962,276.117 243.5,274.5 Z"/></g>
<g><path style="opacity:1" fill="#a9769b" d="M 166.5,286.5 C 165.849,285.909 165.182,285.243 164.5,284.5C 164.104,288.263 163.104,291.597 161.5,294.5C 162.742,292.032 162.742,289.532 161.5,287C 164.029,278.522 165.696,270.022 166.5,261.5C 168.401,261.567 170.234,261.233 172,260.5C 172.5,260.833 173,261.167 173.5,261.5C 171.955,262.452 170.288,262.785 168.5,262.5C 167.622,270.473 166.956,278.473 166.5,286.5 Z"/></g>
<g><path style="opacity:1" fill="#b86a51" d="M 190.5,271.5 C 192.824,272.656 195.157,273.656 197.5,274.5C 198.807,276.482 200.141,278.482 201.5,280.5C 198.167,282.167 194.833,283.833 191.5,285.5C 190.833,285.5 190.167,285.5 189.5,285.5C 186.946,284.612 184.279,284.279 181.5,284.5C 180.396,282.611 179.063,280.945 177.5,279.5C 177.36,277.876 178.027,276.71 179.5,276C 183.152,275.501 186.818,275.335 190.5,275.5C 190.5,274.167 190.5,272.833 190.5,271.5 Z"/></g>
<g><path style="opacity:0.757" fill="#b3838c" d="M 213.5,274.5 C 207.503,280.832 200.17,284.498 191.5,285.5C 194.833,283.833 198.167,282.167 201.5,280.5C 203.404,280.262 204.738,279.262 205.5,277.5C 207.048,277.179 207.715,276.179 207.5,274.5C 209.741,274.046 211.741,274.046 213.5,274.5 Z"/></g>
<g><path style="opacity:1" fill="#7d4e82" d="M 243.5,269.5 C 242.506,271.334 242.506,273.001 243.5,274.5C 242.962,276.117 242.629,277.784 242.5,279.5C 239.718,280.666 237.718,282.666 236.5,285.5C 235.893,285.376 235.56,285.043 235.5,284.5C 236.241,279.615 237.575,274.949 239.5,270.5C 240.959,270.567 242.292,270.234 243.5,269.5 Z"/></g>
<g><path style="opacity:1" fill="#7f6089" d="M 234.5,257.5 C 235.167,257.5 235.5,257.833 235.5,258.5C 235.315,262.244 234.648,265.911 233.5,269.5C 233.747,270.713 234.414,271.38 235.5,271.5C 233.964,276.055 231.298,279.888 227.5,283C 226.207,283.49 224.873,283.657 223.5,283.5C 223.5,282.167 223.5,280.833 223.5,279.5C 227.17,279.673 229.67,278.007 231,274.5C 231.435,269.816 231.935,265.149 232.5,260.5C 232.427,258.973 233.094,257.973 234.5,257.5 Z"/></g>
<g><path style="opacity:1" fill="#9e8795" d="M 268.5,279.5 C 268.077,280.265 267.743,281.098 267.5,282C 269.111,284.21 269.778,286.71 269.5,289.5C 268.833,289.5 268.167,289.5 267.5,289.5C 267.5,288.167 267.5,286.833 267.5,285.5C 266.5,285.5 265.5,285.5 264.5,285.5C 264.5,284.833 264.167,284.5 263.5,284.5C 264.069,281.665 265.736,279.999 268.5,279.5 Z"/></g>
<g><path style="opacity:0.588" fill="#baa3b9" d="M 275.5,276.5 C 278.75,278.243 281.584,280.577 284,283.5C 284.464,282.906 284.631,282.239 284.5,281.5C 290.158,286.658 295.658,291.991 301,297.5C 301.009,300.35 299.842,302.683 297.5,304.5C 297.5,303.5 297.5,302.5 297.5,301.5C 294.206,297.035 290.706,292.702 287,288.5C 284.483,285.819 281.649,283.486 278.5,281.5C 277.614,280.675 277.281,279.675 277.5,278.5C 276.041,278.433 274.708,278.766 273.5,279.5C 273.782,278.222 274.449,277.222 275.5,276.5 Z"/></g>
<g><path style="opacity:1" fill="#725d88" d="M 223.5,286.5 C 224.522,287.892 224.189,289.225 222.5,290.5C 216.063,291.424 213.73,295.091 215.5,301.5C 213.097,301.552 210.764,301.219 208.5,300.5C 208.5,300.167 208.5,299.833 208.5,299.5C 208.423,298.25 207.756,297.417 206.5,297C 207.056,296.617 207.389,296.117 207.5,295.5C 207.833,295.5 208.167,295.5 208.5,295.5C 210.288,295.785 211.955,295.452 213.5,294.5C 216.58,291.322 219.913,288.655 223.5,286.5 Z"/></g>
<g><path style="opacity:1" fill="#63546e" d="M 242.5,279.5 C 242.261,281.467 242.594,283.301 243.5,285C 250.247,285.792 256.914,285.626 263.5,284.5C 264.167,284.5 264.5,284.833 264.5,285.5C 263.016,287.074 261.349,288.407 259.5,289.5C 259.167,289.5 258.833,289.5 258.5,289.5C 252.833,289.5 247.167,289.5 241.5,289.5C 240.667,291.752 240.667,293.919 241.5,296C 246.204,296.648 250.871,296.481 255.5,295.5C 254.22,296.931 252.553,297.598 250.5,297.5C 250.649,298.552 250.483,299.552 250,300.5C 247.26,299.718 244.426,299.218 241.5,299C 240.529,297.519 239.196,296.685 237.5,296.5C 234.539,292.792 233.873,288.792 235.5,284.5C 235.56,285.043 235.893,285.376 236.5,285.5C 237.718,282.666 239.718,280.666 242.5,279.5 Z"/></g>
<g><path style="opacity:1" fill="#b94a5f" d="M 264.5,285.5 C 265.5,285.5 266.5,285.5 267.5,285.5C 267.5,286.833 267.5,288.167 267.5,289.5C 267.5,290.833 267.5,292.167 267.5,293.5C 264.873,292.908 262.206,292.575 259.5,292.5C 259.5,291.5 259.5,290.5 259.5,289.5C 261.349,288.407 263.016,287.074 264.5,285.5 Z"/></g>
<g><path style="opacity:1" fill="#717784" d="M 258.5,289.5 C 258.969,292.393 257.969,294.393 255.5,295.5C 250.871,296.481 246.204,296.648 241.5,296C 240.667,293.919 240.667,291.752 241.5,289.5C 247.167,289.5 252.833,289.5 258.5,289.5 Z"/></g>
<g><path style="opacity:1" fill="#78668a" d="M 274.5,273.5 C 274.833,273.5 275.167,273.5 275.5,273.5C 275.5,274.5 275.5,275.5 275.5,276.5C 274.449,277.222 273.782,278.222 273.5,279.5C 272.778,279.918 272.278,280.584 272,281.5C 271.667,286.833 271.333,292.167 271,297.5C 269.989,298.337 268.822,298.67 267.5,298.5C 266.881,302.143 264.881,303.143 261.5,301.5C 262.542,299.41 263.376,297.41 264,295.5C 262.612,294.446 261.112,294.28 259.5,295C 256.833,298 254.167,301 251.5,304C 252.056,304.383 252.389,304.883 252.5,305.5C 250.833,305.5 249.167,305.5 247.5,305.5C 247.421,304.07 247.754,302.736 248.5,301.5C 246.955,300.548 245.288,300.215 243.5,300.5C 243.66,302.199 243.494,303.866 243,305.5C 242.292,304.619 241.458,303.953 240.5,303.5C 238.09,302.562 235.756,302.562 233.5,303.5C 234.917,301.156 236.25,298.823 237.5,296.5C 239.196,296.685 240.529,297.519 241.5,299C 244.426,299.218 247.26,299.718 250,300.5C 250.483,299.552 250.649,298.552 250.5,297.5C 252.553,297.598 254.22,296.931 255.5,295.5C 257.969,294.393 258.969,292.393 258.5,289.5C 258.833,289.5 259.167,289.5 259.5,289.5C 259.5,290.5 259.5,291.5 259.5,292.5C 262.206,292.575 264.873,292.908 267.5,293.5C 267.5,294.5 267.5,295.5 267.5,296.5C 268.5,296.5 269.5,296.5 270.5,296.5C 270.552,294.097 270.219,291.764 269.5,289.5C 269.778,286.71 269.111,284.21 267.5,282C 267.743,281.098 268.077,280.265 268.5,279.5C 270.048,279.179 270.715,278.179 270.5,276.5C 270.167,275.833 269.833,275.167 269.5,274.5C 270.735,274.279 271.735,273.612 272.5,272.5C 273.183,272.863 273.85,273.196 274.5,273.5 Z"/></g>
<g><path style="opacity:1" fill="#b9779e" d="M 267.5,289.5 C 268.167,289.5 268.833,289.5 269.5,289.5C 270.219,291.764 270.552,294.097 270.5,296.5C 269.5,296.5 268.5,296.5 267.5,296.5C 267.5,295.5 267.5,294.5 267.5,293.5C 267.5,292.167 267.5,290.833 267.5,289.5 Z"/></g>
<g><path style="opacity:1" fill="#a383a5" d="M 159.5,297.5 C 159.5,298.5 159.5,299.5 159.5,300.5C 156.402,300.756 153.402,301.422 150.5,302.5C 151.117,300.771 152.117,299.271 153.5,298C 155.602,298.256 157.602,298.089 159.5,297.5 Z"/></g>
<g><path style="opacity:1" fill="#b69ab1" d="M 207.5,295.5 C 207.389,296.117 207.056,296.617 206.5,297C 207.756,297.417 208.423,298.25 208.5,299.5C 205.039,301.091 201.372,301.758 197.5,301.5C 195.585,301.784 193.919,301.451 192.5,300.5C 197.505,298.995 202.505,297.328 207.5,295.5 Z"/></g>
<g><path style="opacity:1" fill="#6a87a9" d="M 239.5,269.5 C 239.5,269.833 239.5,270.167 239.5,270.5C 237.575,274.949 236.241,279.615 235.5,284.5C 233.873,288.792 234.539,292.792 237.5,296.5C 236.25,298.823 234.917,301.156 233.5,303.5C 232.167,303.5 231.5,304.167 231.5,305.5C 230.761,305.369 230.094,305.536 229.5,306C 225.933,309.229 222.767,312.729 220,316.5C 217.866,314.713 217.033,312.38 217.5,309.5C 216.25,306.994 215.584,304.327 215.5,301.5C 213.73,295.091 216.063,291.424 222.5,290.5C 224.189,289.225 224.522,287.892 223.5,286.5C 223.5,285.5 223.5,284.5 223.5,283.5C 224.873,283.657 226.207,283.49 227.5,283C 231.298,279.888 233.964,276.055 235.5,271.5C 236.605,270.4 237.938,269.733 239.5,269.5 Z"/></g>
<g><path style="opacity:1" fill="#dad0da" d="M 188.5,299.5 C 189.708,300.234 191.041,300.567 192.5,300.5C 193.919,301.451 195.585,301.784 197.5,301.5C 196.166,302.652 194.666,303.652 193,304.5C 191.923,303.571 190.756,302.904 189.5,302.5C 188.833,302.5 188.5,302.167 188.5,301.5C 188.5,300.833 188.5,300.167 188.5,299.5 Z"/></g>
<g><path style="opacity:1" fill="#857883" d="M 252.5,305.5 C 256.759,307.083 259.092,310.083 259.5,314.5C 257.473,313.139 255.806,311.473 254.5,309.5C 254.389,308.883 254.056,308.383 253.5,308C 249.179,307.501 244.846,307.334 240.5,307.5C 240.5,306.167 240.5,304.833 240.5,303.5C 241.458,303.953 242.292,304.619 243,305.5C 243.494,303.866 243.66,302.199 243.5,300.5C 245.288,300.215 246.955,300.548 248.5,301.5C 247.754,302.736 247.421,304.07 247.5,305.5C 249.167,305.5 250.833,305.5 252.5,305.5 Z"/></g>
<g><path style="opacity:1" fill="#644c6e" d="M 166.5,286.5 C 166.687,288.564 167.187,290.564 168,292.5C 173.955,297.529 180.789,300.529 188.5,301.5C 188.5,302.167 188.833,302.5 189.5,302.5C 189.033,304.711 188.033,306.711 186.5,308.5C 183.766,306.629 180.766,305.629 177.5,305.5C 174.512,303.86 171.179,303.026 167.5,303C 165.306,300.043 162.64,299.21 159.5,300.5C 159.5,299.5 159.5,298.5 159.5,297.5C 159.932,296.29 160.599,295.29 161.5,294.5C 163.104,291.597 164.104,288.263 164.5,284.5C 165.182,285.243 165.849,285.909 166.5,286.5 Z"/></g>
<g><path style="opacity:1" fill="#9a6d62" d="M 240.5,303.5 C 240.5,304.833 240.5,306.167 240.5,307.5C 237.675,307.081 235.509,308.081 234,310.5C 232.623,312.754 231.123,314.92 229.5,317C 230.252,317.671 230.586,318.504 230.5,319.5C 227.981,317.641 227.981,315.641 230.5,313.5C 231.388,310.946 231.721,308.279 231.5,305.5C 231.5,304.167 232.167,303.5 233.5,303.5C 235.756,302.562 238.09,302.562 240.5,303.5 Z"/></g>
<g><path style="opacity:1" fill="#9c6e5a" d="M 254.5,309.5 C 255.806,311.473 257.473,313.139 259.5,314.5C 260.657,317.307 260.657,319.974 259.5,322.5C 258.833,322.5 258.5,322.167 258.5,321.5C 258.693,317.963 257.36,315.297 254.5,313.5C 254.5,312.167 254.5,310.833 254.5,309.5 Z"/></g>
<g><path style="opacity:1" fill="#6796b1" d="M 297.5,301.5 C 292.206,306.553 286.872,311.719 281.5,317C 278.736,317.263 277.069,318.763 276.5,321.5C 277.002,322.521 277.668,322.688 278.5,322C 284.332,317.88 289.332,313.046 293.5,307.5C 300.181,309.679 306.181,313.179 311.5,318C 313.518,318.505 315.518,319.005 317.5,319.5C 317.5,320.167 317.833,320.5 318.5,320.5C 318.5,321.167 318.833,321.5 319.5,321.5C 319.414,322.496 319.748,323.329 320.5,324C 323.3,325.485 325.966,327.151 328.5,329C 330.677,330.202 333.011,330.702 335.5,330.5C 337.176,331.183 337.843,332.517 337.5,334.5C 336.903,334.735 336.57,335.235 336.5,336C 339.137,341.423 341.47,346.923 343.5,352.5C 343.336,355.187 343.503,357.854 344,360.5C 345.07,365.08 346.57,369.413 348.5,373.5C 349.612,375.599 350.279,377.933 350.5,380.5C 351.679,385.828 351.679,391.162 350.5,396.5C 348.815,395.047 347.149,393.714 345.5,392.5C 342.148,388.796 338.148,385.796 333.5,383.5C 329.575,384.258 326.242,386.092 323.5,389C 321.423,389.192 319.423,389.692 317.5,390.5C 312.998,394.747 308.998,399.414 305.5,404.5C 305.977,405.478 306.643,406.311 307.5,407C 311.689,407.812 315.689,407.645 319.5,406.5C 321.833,406.5 324.167,406.5 326.5,406.5C 323.597,408.648 320.264,410.148 316.5,411C 306.936,412.921 297.269,413.921 287.5,414C 286.016,414.662 284.683,415.496 283.5,416.5C 279.86,417.15 276.527,418.65 273.5,421C 271.432,421.687 269.432,421.52 267.5,420.5C 266.839,408.48 266.005,396.48 265,384.5C 264.617,383.944 264.117,383.611 263.5,383.5C 263.868,380.467 263.202,377.8 261.5,375.5C 261.026,369.198 259.693,363.198 257.5,357.5C 258.383,350.404 257.049,343.904 253.5,338C 254.582,336.67 255.249,335.17 255.5,333.5C 256.827,332.2 258.16,330.867 259.5,329.5C 260.624,331.369 261.457,333.369 262,335.5C 266.599,337.098 269.432,335.431 270.5,330.5C 268.437,326.004 265.937,321.671 263,317.5C 261.961,316.29 260.794,315.29 259.5,314.5C 259.092,310.083 256.759,307.083 252.5,305.5C 252.389,304.883 252.056,304.383 251.5,304C 254.167,301 256.833,298 259.5,295C 261.112,294.28 262.612,294.446 264,295.5C 263.376,297.41 262.542,299.41 261.5,301.5C 264.881,303.143 266.881,302.143 267.5,298.5C 268.822,298.67 269.989,298.337 271,297.5C 271.333,292.167 271.667,286.833 272,281.5C 272.278,280.584 272.778,279.918 273.5,279.5C 274.708,278.766 276.041,278.433 277.5,278.5C 277.281,279.675 277.614,280.675 278.5,281.5C 281.649,283.486 284.483,285.819 287,288.5C 290.706,292.702 294.206,297.035 297.5,301.5 Z"/></g>
<g><path style="opacity:1" fill="#73749e" d="M 297.5,301.5 C 297.5,302.5 297.5,303.5 297.5,304.5C 295.878,305.122 294.545,306.122 293.5,307.5C 289.332,313.046 284.332,317.88 278.5,322C 277.668,322.688 277.002,322.521 276.5,321.5C 277.069,318.763 278.736,317.263 281.5,317C 286.872,311.719 292.206,306.553 297.5,301.5 Z"/></g>
<g><path style="opacity:0.804" fill="#b89bb5" d="M 148.5,309.5 C 148.876,314.894 147.876,319.894 145.5,324.5C 146.342,319.351 147.342,314.351 148.5,309.5 Z"/></g>
<g><path style="opacity:1" fill="#53628c" d="M 208.5,300.5 C 210.764,301.219 213.097,301.552 215.5,301.5C 215.584,304.327 216.25,306.994 217.5,309.5C 216.252,310.334 215.585,311.667 215.5,313.5C 215.326,315.693 215.993,317.527 217.5,319C 219.833,318.333 222.167,318.333 224.5,319C 223.269,317.817 223.269,316.651 224.5,315.5C 225.192,316.025 225.692,316.692 226,317.5C 226.278,316.584 226.778,315.918 227.5,315.5C 228.063,321.975 230.397,327.641 234.5,332.5C 235.429,333.689 235.762,335.022 235.5,336.5C 236.5,336.5 237.5,336.5 238.5,336.5C 236.565,347.521 234.565,358.521 232.5,369.5C 230.449,377.391 228.282,385.391 226,393.5C 224.402,400.753 223.569,408.086 223.5,415.5C 223.5,419.167 223.5,422.833 223.5,426.5C 221.858,428.081 219.858,428.747 217.5,428.5C 220.762,409.26 223.262,389.927 225,370.5C 227.477,364.581 229.643,358.581 231.5,352.5C 234.407,347.147 234.907,341.48 233,335.5C 229.629,330.964 226.462,326.298 223.5,321.5C 220.518,321.287 217.518,320.953 214.5,320.5C 212.635,314.658 210.635,308.991 208.5,303.5C 208.5,302.5 208.5,301.5 208.5,300.5 Z"/></g>
<g><path style="opacity:1" fill="#7f7ea0" d="M 190.5,313.5 C 191.459,317.361 192.459,317.361 193.5,313.5C 195.009,312.141 195.676,312.641 195.5,315C 195.183,317.328 194.016,319.161 192,320.5C 191.51,321.793 191.343,323.127 191.5,324.5C 188.579,327.242 186.579,330.575 185.5,334.5C 184.596,333.791 184.263,332.791 184.5,331.5C 187.233,328.244 189.233,324.577 190.5,320.5C 190.043,319.702 189.376,319.369 188.5,319.5C 185.867,318.34 185.034,316.34 186,313.5C 187.49,312.272 188.99,312.272 190.5,313.5 Z"/></g>
<g><path style="opacity:1" fill="#c6a55a" d="M 240.5,307.5 C 244.846,307.334 249.179,307.501 253.5,308C 254.056,308.383 254.389,308.883 254.5,309.5C 254.5,310.833 254.5,312.167 254.5,313.5C 253.2,314.108 251.867,314.775 250.5,315.5C 249.833,315.167 249.167,314.833 248.5,314.5C 249.605,313.108 250.939,311.941 252.5,311C 251.455,309.474 249.955,308.641 248,308.5C 245.455,310.186 242.622,311.186 239.5,311.5C 239.719,310.325 239.386,309.325 238.5,308.5C 237.167,311.5 237.167,314.5 238.5,317.5C 239.524,318.853 240.857,319.52 242.5,319.5C 242.5,320.5 242.5,321.5 242.5,322.5C 241.167,322.5 239.833,322.5 238.5,322.5C 238.5,321.167 238.5,319.833 238.5,318.5C 237.5,318.5 236.5,318.5 235.5,318.5C 235.483,320.565 235.15,322.565 234.5,324.5C 232.866,323.045 231.532,321.378 230.5,319.5C 230.586,318.504 230.252,317.671 229.5,317C 231.123,314.92 232.623,312.754 234,310.5C 235.509,308.081 237.675,307.081 240.5,307.5 Z"/></g>
<g><path style="opacity:1" fill="#6694b0" d="M 208.5,299.5 C 208.5,299.833 208.5,300.167 208.5,300.5C 208.5,301.5 208.5,302.5 208.5,303.5C 208.784,310.207 210.45,316.541 213.5,322.5C 216.086,323.48 218.753,323.813 221.5,323.5C 223.489,327.478 225.489,331.478 227.5,335.5C 230.838,336.516 232.838,338.849 233.5,342.5C 232.618,345.791 231.952,349.124 231.5,352.5C 229.643,358.581 227.477,364.581 225,370.5C 223.262,389.927 220.762,409.26 217.5,428.5C 219.858,428.747 221.858,428.081 223.5,426.5C 223.567,427.959 223.234,429.292 222.5,430.5C 221.167,430.5 219.833,430.5 218.5,430.5C 211.576,430.388 204.576,430.221 197.5,430C 195.913,429.138 194.246,428.471 192.5,428C 191.536,423.934 191.203,419.767 191.5,415.5C 192.458,415.047 193.292,414.381 194,413.5C 195.464,407.278 197.63,401.278 200.5,395.5C 199.311,394.571 197.978,394.238 196.5,394.5C 196.5,391.167 196.5,387.833 196.5,384.5C 195.5,384.5 194.5,384.5 193.5,384.5C 193.5,383.833 193.167,383.5 192.5,383.5C 191.124,381.918 190.124,380.085 189.5,378C 190.414,376.594 191.08,375.094 191.5,373.5C 192.117,373.389 192.617,373.056 193,372.5C 193.497,369.854 193.664,367.187 193.5,364.5C 194.873,364.657 196.207,364.49 197.5,364C 201.562,359.609 205.229,354.943 208.5,350C 206.925,348.88 205.925,347.38 205.5,345.5C 206.372,341.47 207.872,337.803 210,334.5C 210.603,326.136 208.603,325.469 204,332.5C 201.193,336.44 199.693,340.774 199.5,345.5C 197.919,347.674 196.419,350.007 195,352.5C 194.533,347.663 194.033,342.83 193.5,338C 193.563,335.315 194.563,333.149 196.5,331.5C 194.737,326.308 193.57,326.641 193,332.5C 192.167,331.667 191.333,330.833 190.5,330C 191.406,328.301 191.739,326.467 191.5,324.5C 191.343,323.127 191.51,321.793 192,320.5C 194.016,319.161 195.183,317.328 195.5,315C 195.676,312.641 195.009,312.141 193.5,313.5C 192.872,310.045 190.872,308.878 187.5,310C 189.063,310.759 190.063,311.926 190.5,313.5C 188.99,312.272 187.49,312.272 186,313.5C 185.034,316.34 185.867,318.34 188.5,319.5C 186.899,322.124 185.232,324.79 183.5,327.5C 181.883,329.121 180.716,331.121 180,333.5C 179.692,332.692 179.192,332.025 178.5,331.5C 173.718,333.055 169.385,332.222 165.5,329C 163.527,328.505 161.527,328.338 159.5,328.5C 160.839,320.467 162.172,312.467 163.5,304.5C 168.203,304.437 172.87,304.771 177.5,305.5C 180.766,305.629 183.766,306.629 186.5,308.5C 188.033,306.711 189.033,304.711 189.5,302.5C 190.756,302.904 191.923,303.571 193,304.5C 194.666,303.652 196.166,302.652 197.5,301.5C 201.372,301.758 205.039,301.091 208.5,299.5 Z"/></g>
<g><path style="opacity:1" fill="#ccc6dd" d="M 193.5,313.5 C 192.459,317.361 191.459,317.361 190.5,313.5C 190.063,311.926 189.063,310.759 187.5,310C 190.872,308.878 192.872,310.045 193.5,313.5 Z"/></g>
<g><path style="opacity:1" fill="#5d5b89" d="M 231.5,305.5 C 231.721,308.279 231.388,310.946 230.5,313.5C 228.973,313.427 227.973,314.094 227.5,315.5C 226.778,315.918 226.278,316.584 226,317.5C 225.692,316.692 225.192,316.025 224.5,315.5C 223.269,316.651 223.269,317.817 224.5,319C 222.167,318.333 219.833,318.333 217.5,319C 215.993,317.527 215.326,315.693 215.5,313.5C 215.585,311.667 216.252,310.334 217.5,309.5C 217.033,312.38 217.866,314.713 220,316.5C 222.767,312.729 225.933,309.229 229.5,306C 230.094,305.536 230.761,305.369 231.5,305.5 Z"/></g>
<g><path style="opacity:0.718" fill="#b496ae" d="M 297.5,304.5 C 310.282,311.092 322.616,318.426 334.5,326.5C 334.631,327.376 334.298,328.043 333.5,328.5C 328.797,326.103 324.13,323.77 319.5,321.5C 318.833,321.5 318.5,321.167 318.5,320.5C 317.833,320.5 317.5,320.167 317.5,319.5C 315.518,319.005 313.518,318.505 311.5,318C 306.181,313.179 300.181,309.679 293.5,307.5C 294.545,306.122 295.878,305.122 297.5,304.5 Z"/></g>
<g><path style="opacity:1" fill="#545f8a" d="M 177.5,305.5 C 172.87,304.771 168.203,304.437 163.5,304.5C 159.539,312.381 157.872,320.715 158.5,329.5C 154.833,329.5 151.167,329.5 147.5,329.5C 148.507,321.622 149.84,313.789 151.5,306C 151.011,304.862 150.678,303.695 150.5,302.5C 153.402,301.422 156.402,300.756 159.5,300.5C 162.64,299.21 165.306,300.043 167.5,303C 171.179,303.026 174.512,303.86 177.5,305.5 Z"/></g>
<g><path style="opacity:1" fill="#cbb55c" d="M 254.5,313.5 C 257.36,315.297 258.693,317.963 258.5,321.5C 254.499,326.157 251.499,331.491 249.5,337.5C 246.721,337.721 244.054,337.388 241.5,336.5C 240.094,336.027 239.427,335.027 239.5,333.5C 239.774,329.798 238.108,327.465 234.5,326.5C 234.5,325.833 234.5,325.167 234.5,324.5C 235.15,322.565 235.483,320.565 235.5,318.5C 236.5,318.5 237.5,318.5 238.5,318.5C 238.5,319.833 238.5,321.167 238.5,322.5C 239.833,322.5 241.167,322.5 242.5,322.5C 242.5,321.5 242.5,320.5 242.5,319.5C 240.857,319.52 239.524,318.853 238.5,317.5C 237.167,314.5 237.167,311.5 238.5,308.5C 239.386,309.325 239.719,310.325 239.5,311.5C 242.622,311.186 245.455,310.186 248,308.5C 249.955,308.641 251.455,309.474 252.5,311C 250.939,311.941 249.605,313.108 248.5,314.5C 249.167,314.833 249.833,315.167 250.5,315.5C 251.867,314.775 253.2,314.108 254.5,313.5 Z"/></g>
<g><path style="opacity:0.965" fill="#c8c4d7" d="M 319.5,321.5 C 324.13,323.77 328.797,326.103 333.5,328.5C 334.298,328.043 334.631,327.376 334.5,326.5C 336.626,327.048 338.626,327.715 340.5,328.5C 338.302,328.12 336.635,328.787 335.5,330.5C 333.011,330.702 330.677,330.202 328.5,329C 325.966,327.151 323.3,325.485 320.5,324C 319.748,323.329 319.414,322.496 319.5,321.5 Z"/></g>
<g><path style="opacity:1" fill="#c4cbd7" d="M 188.5,319.5 C 189.376,319.369 190.043,319.702 190.5,320.5C 189.233,324.577 187.233,328.244 184.5,331.5C 183.778,331.918 183.278,332.584 183,333.5C 182.51,331.455 182.677,329.455 183.5,327.5C 185.232,324.79 186.899,322.124 188.5,319.5 Z"/></g>
<g><path style="opacity:1" fill="#5e618b" d="M 259.5,314.5 C 260.794,315.29 261.961,316.29 263,317.5C 265.937,321.671 268.437,326.004 270.5,330.5C 269.432,335.431 266.599,337.098 262,335.5C 261.457,333.369 260.624,331.369 259.5,329.5C 258.16,330.867 256.827,332.2 255.5,333.5C 256.847,329.788 258.18,326.122 259.5,322.5C 260.657,319.974 260.657,317.307 259.5,314.5 Z"/></g>
<g><path style="opacity:1" fill="#aa8462" d="M 234.5,326.5 C 238.108,327.465 239.774,329.798 239.5,333.5C 237.1,331.704 235.433,329.37 234.5,326.5 Z"/></g>
<g><path style="opacity:0.961" fill="#c9b3ca" d="M 145.5,327.5 C 145.5,328.833 145.5,330.167 145.5,331.5C 145.158,332.338 144.492,332.672 143.5,332.5C 142.292,333.234 140.959,333.567 139.5,333.5C 142.034,332.033 144.034,330.033 145.5,327.5 Z"/></g>
<g><path style="opacity:1" fill="#957e9f" d="M 143.5,332.5 C 143.214,334.277 142.547,335.944 141.5,337.5C 142.894,341.707 142.394,345.707 140,349.5C 139.617,348.944 139.117,348.611 138.5,348.5C 141.016,343.765 141.016,339.098 138.5,334.5C 138.624,333.893 138.957,333.56 139.5,333.5C 140.959,333.567 142.292,333.234 143.5,332.5 Z"/></g>
<g><path style="opacity:1" fill="#5f84a6" d="M 208.5,303.5 C 210.635,308.991 212.635,314.658 214.5,320.5C 217.518,320.953 220.518,321.287 223.5,321.5C 226.462,326.298 229.629,330.964 233,335.5C 234.907,341.48 234.407,347.147 231.5,352.5C 231.952,349.124 232.618,345.791 233.5,342.5C 232.838,338.849 230.838,336.516 227.5,335.5C 225.489,331.478 223.489,327.478 221.5,323.5C 218.753,323.813 216.086,323.48 213.5,322.5C 210.45,316.541 208.784,310.207 208.5,303.5 Z"/></g>
<g><path style="opacity:1" fill="#7f6195" d="M 150.5,302.5 C 150.678,303.695 151.011,304.862 151.5,306C 149.84,313.789 148.507,321.622 147.5,329.5C 151.167,329.5 154.833,329.5 158.5,329.5C 164.738,332.463 171.404,334.296 178.5,335C 179.337,336.011 179.67,337.178 179.5,338.5C 176.813,338.664 174.146,338.497 171.5,338C 165.805,335.243 159.805,333.743 153.5,333.5C 151.365,331.631 148.698,330.964 145.5,331.5C 145.5,330.167 145.5,328.833 145.5,327.5C 145.5,326.5 145.5,325.5 145.5,324.5C 147.876,319.894 148.876,314.894 148.5,309.5C 148.41,306.848 149.076,304.515 150.5,302.5 Z"/></g>
<g><path style="opacity:1" fill="#6b5d7f" d="M 230.5,313.5 C 227.981,315.641 227.981,317.641 230.5,319.5C 231.532,321.378 232.866,323.045 234.5,324.5C 234.5,325.167 234.5,325.833 234.5,326.5C 235.433,329.37 237.1,331.704 239.5,333.5C 239.427,335.027 240.094,336.027 241.5,336.5C 241.575,340.981 240.908,345.314 239.5,349.5C 238.204,352.672 237.204,356.005 236.5,359.5C 234.282,362.352 233.282,365.685 233.5,369.5C 233.167,369.5 232.833,369.5 232.5,369.5C 234.565,358.521 236.565,347.521 238.5,336.5C 237.5,336.5 236.5,336.5 235.5,336.5C 235.762,335.022 235.429,333.689 234.5,332.5C 230.397,327.641 228.063,321.975 227.5,315.5C 227.973,314.094 228.973,313.427 230.5,313.5 Z"/></g>
<g><path style="opacity:1" fill="#dbc19b" d="M 258.5,321.5 C 258.5,322.167 258.833,322.5 259.5,322.5C 258.18,326.122 256.847,329.788 255.5,333.5C 253.885,335.374 251.885,336.708 249.5,337.5C 251.499,331.491 254.499,326.157 258.5,321.5 Z"/></g>
<g><path style="opacity:1" fill="#6596b1" d="M 177.5,344.5 C 176.674,348.136 176.008,351.803 175.5,355.5C 170.468,360.533 165.135,365.199 159.5,369.5C 157.851,370.714 156.185,372.047 154.5,373.5C 153.544,372.135 152.878,370.635 152.5,369C 153.938,362.584 153.605,356.251 151.5,350C 152.383,346.381 154.717,344.381 158.5,344C 157.565,341.619 157.232,339.119 157.5,336.5C 162.783,337.729 168.116,339.062 173.5,340.5C 171.009,341.541 171.009,342.374 173.5,343C 172.5,343.333 171.5,343.667 170.5,344C 172.843,345.415 175.177,345.582 177.5,344.5 Z"/></g>
<g><path style="opacity:1" fill="#6b8bab" d="M 163.5,304.5 C 162.172,312.467 160.839,320.467 159.5,328.5C 161.527,328.338 163.527,328.505 165.5,329C 169.385,332.222 173.718,333.055 178.5,331.5C 179.192,332.025 179.692,332.692 180,333.5C 180.716,331.121 181.883,329.121 183.5,327.5C 182.677,329.455 182.51,331.455 183,333.5C 183.278,332.584 183.778,331.918 184.5,331.5C 184.263,332.791 184.596,333.791 185.5,334.5C 183.922,340.178 182.589,345.845 181.5,351.5C 181.729,347.918 181.729,344.584 181.5,341.5C 181.103,340.475 180.437,340.308 179.5,341C 178.695,342.113 178.028,343.279 177.5,344.5C 175.177,345.582 172.843,345.415 170.5,344C 171.5,343.667 172.5,343.333 173.5,343C 171.009,342.374 171.009,341.541 173.5,340.5C 168.116,339.062 162.783,337.729 157.5,336.5C 157.232,339.119 157.565,341.619 158.5,344C 154.717,344.381 152.383,346.381 151.5,350C 153.605,356.251 153.938,362.584 152.5,369C 152.878,370.635 153.544,372.135 154.5,373.5C 156.185,372.047 157.851,370.714 159.5,369.5C 159.5,370.167 159.833,370.5 160.5,370.5C 158.229,372.266 156.063,374.266 154,376.5C 153.308,377.437 153.475,378.103 154.5,378.5C 153.264,380.828 151.264,381.994 148.5,382C 147.816,383.693 146.816,385.193 145.5,386.5C 147.253,388.51 148.253,390.843 148.5,393.5C 145.307,392.473 143.307,390.306 142.5,387C 145.264,384.009 147.931,380.842 150.5,377.5C 150.833,375.833 151.167,374.167 151.5,372.5C 150.608,365.482 149.608,358.482 148.5,351.5C 148.703,348.803 149.036,346.136 149.5,343.5C 151.911,343.863 153.411,342.863 154,340.5C 154.556,338.115 154.39,335.782 153.5,333.5C 159.805,333.743 165.805,335.243 171.5,338C 174.146,338.497 176.813,338.664 179.5,338.5C 179.67,337.178 179.337,336.011 178.5,335C 171.404,334.296 164.738,332.463 158.5,329.5C 157.872,320.715 159.539,312.381 163.5,304.5 Z"/></g>
<g><path style="opacity:1" fill="#a57a5b" d="M 241.5,336.5 C 244.054,337.388 246.721,337.721 249.5,337.5C 249.5,338.167 249.5,338.833 249.5,339.5C 249.431,344.59 247.098,346.59 242.5,345.5C 241.702,345.957 241.369,346.624 241.5,347.5C 240.833,348.167 240.167,348.833 239.5,349.5C 240.908,345.314 241.575,340.981 241.5,336.5 Z"/></g>
<g><path style="opacity:1" fill="#6e8cae" d="M 191.5,324.5 C 191.739,326.467 191.406,328.301 190.5,330C 191.333,330.833 192.167,331.667 193,332.5C 193.57,326.641 194.737,326.308 196.5,331.5C 194.563,333.149 193.563,335.315 193.5,338C 194.033,342.83 194.533,347.663 195,352.5C 196.419,350.007 197.919,347.674 199.5,345.5C 198.702,349.089 197.369,352.422 195.5,355.5C 193.669,348.87 192.336,341.87 191.5,334.5C 189.171,345.423 188.838,356.423 190.5,367.5C 189.833,367.5 189.5,367.833 189.5,368.5C 184.727,373.721 179.727,378.721 174.5,383.5C 173.52,386.086 173.187,388.753 173.5,391.5C 170.833,390.833 169.167,389.167 168.5,386.5C 169.984,380.72 171.651,375.053 173.5,369.5C 176.35,363.629 179.017,357.629 181.5,351.5C 179.24,360.705 176.907,369.872 174.5,379C 174.85,380.257 175.517,380.591 176.5,380C 178.037,378.89 178.703,377.39 178.5,375.5C 179.552,375.649 180.552,375.483 181.5,375C 182.304,373.229 183.471,371.729 185,370.5C 185.595,369.101 185.428,367.768 184.5,366.5C 186.007,365.261 187.174,365.595 188,367.5C 188.5,359.507 188.666,351.507 188.5,343.5C 187.448,343.649 186.448,343.483 185.5,343C 188.669,340.521 189.836,337.354 189,333.5C 187.989,334.337 186.822,334.67 185.5,334.5C 186.579,330.575 188.579,327.242 191.5,324.5 Z"/></g>
<g><path style="opacity:1" fill="#c3c3d7" d="M 337.5,334.5 C 338.586,334.62 339.253,335.287 339.5,336.5C 341.055,341.822 342.388,347.155 343.5,352.5C 341.47,346.923 339.137,341.423 336.5,336C 336.57,335.235 336.903,334.735 337.5,334.5 Z"/></g>
<g><path style="opacity:1" fill="#9e868b" d="M 255.5,333.5 C 255.249,335.17 254.582,336.67 253.5,338C 257.049,343.904 258.383,350.404 257.5,357.5C 255.565,352.429 254.232,347.095 253.5,341.5C 252.817,339.824 251.483,339.157 249.5,339.5C 249.5,338.833 249.5,338.167 249.5,337.5C 251.885,336.708 253.885,335.374 255.5,333.5 Z"/></g>
<g><path style="opacity:0.984" fill="#ab84a1" d="M 340.5,328.5 C 341.608,329.823 341.608,331.323 340.5,333C 345.348,346.892 349.014,361.058 351.5,375.5C 351.784,377.415 351.451,379.081 350.5,380.5C 350.279,377.933 349.612,375.599 348.5,373.5C 347.82,366.156 346.153,359.156 343.5,352.5C 342.388,347.155 341.055,341.822 339.5,336.5C 339.253,335.287 338.586,334.62 337.5,334.5C 337.843,332.517 337.176,331.183 335.5,330.5C 336.635,328.787 338.302,328.12 340.5,328.5 Z"/></g>
<g><path style="opacity:1" fill="#937fa1" d="M 181.5,341.5 C 181.729,344.584 181.729,347.918 181.5,351.5C 179.017,357.629 176.35,363.629 173.5,369.5C 174.345,366.174 174.845,362.84 175,359.5C 170.017,363.063 165.184,366.73 160.5,370.5C 159.833,370.5 159.5,370.167 159.5,369.5C 165.135,365.199 170.468,360.533 175.5,355.5C 175.747,357.975 176.413,357.975 177.5,355.5C 176.164,353.625 176.664,352.292 179,351.5C 179.535,347.962 180.368,344.628 181.5,341.5 Z"/></g>
<g><path style="opacity:1" fill="#e4c6b0" d="M 253.5,341.5 C 254.232,347.095 255.565,352.429 257.5,357.5C 258.013,363.617 259.013,369.617 260.5,375.5C 261.053,380.482 261.387,385.482 261.5,390.5C 260.935,388.58 259.935,386.913 258.5,385.5C 258.063,372.463 256.063,359.797 252.5,347.5C 252.205,345.265 252.539,343.265 253.5,341.5 Z"/></g>
<g><path style="opacity:1" fill="#d0cdda" d="M 181.5,341.5 C 180.368,344.628 179.535,347.962 179,351.5C 176.664,352.292 176.164,353.625 177.5,355.5C 176.413,357.975 175.747,357.975 175.5,355.5C 176.008,351.803 176.674,348.136 177.5,344.5C 178.028,343.279 178.695,342.113 179.5,341C 180.437,340.308 181.103,340.475 181.5,341.5 Z"/></g>
<g><path style="opacity:1" fill="#66709b" d="M 195.5,355.5 C 193.036,359.241 191.369,363.241 190.5,367.5C 188.838,356.423 189.171,345.423 191.5,334.5C 192.336,341.87 193.669,348.87 195.5,355.5 Z"/></g>
<g><path style="opacity:1" fill="#95749e" d="M 138.5,348.5 C 137.85,350.435 137.517,352.435 137.5,354.5C 136.115,356.883 134.115,358.55 131.5,359.5C 133.087,355.317 135.421,351.65 138.5,348.5 Z"/></g>
<g><path style="opacity:1" fill="#c3a163" d="M 241.5,347.5 C 241.678,348.695 242.011,349.862 242.5,351C 241.503,352.596 240.337,354.096 239,355.5C 237.033,363.605 235.2,371.605 233.5,379.5C 233.5,376.167 233.5,372.833 233.5,369.5C 233.282,365.685 234.282,362.352 236.5,359.5C 237.204,356.005 238.204,352.672 239.5,349.5C 240.167,348.833 240.833,348.167 241.5,347.5 Z"/></g>
<g><path style="opacity:1" fill="#6d6796" d="M 191.5,373.5 C 191.5,372.833 191.5,372.167 191.5,371.5C 191.5,371.167 191.5,370.833 191.5,370.5C 190.833,369.833 190.167,369.167 189.5,368.5C 189.5,367.833 189.833,367.5 190.5,367.5C 191.369,363.241 193.036,359.241 195.5,355.5C 197.369,352.422 198.702,349.089 199.5,345.5C 199.693,340.774 201.193,336.44 204,332.5C 208.603,325.469 210.603,326.136 210,334.5C 207.872,337.803 206.372,341.47 205.5,345.5C 205.925,347.38 206.925,348.88 208.5,350C 205.229,354.943 201.562,359.609 197.5,364C 196.207,364.49 194.873,364.657 193.5,364.5C 193.664,367.187 193.497,369.854 193,372.5C 192.617,373.056 192.117,373.389 191.5,373.5 Z"/></g>
<g><path style="opacity:1" fill="#51608a" d="M 145.5,331.5 C 148.698,330.964 151.365,331.631 153.5,333.5C 154.39,335.782 154.556,338.115 154,340.5C 153.411,342.863 151.911,343.863 149.5,343.5C 149.036,346.136 148.703,348.803 148.5,351.5C 149.608,358.482 150.608,365.482 151.5,372.5C 151.167,374.167 150.833,375.833 150.5,377.5C 147.931,380.842 145.264,384.009 142.5,387C 143.307,390.306 145.307,392.473 148.5,393.5C 151.83,396.972 154.83,400.638 157.5,404.5C 148.502,407.083 139.502,407.083 130.5,404.5C 128.815,402.429 127.148,400.429 125.5,398.5C 124.835,393.51 124.168,388.51 123.5,383.5C 124.836,379.685 125.669,375.685 126,371.5C 127.938,372.86 129.604,372.527 131,370.5C 131.353,369.328 131.187,368.162 130.5,367C 132.455,363.736 134.622,360.57 137,357.5C 137.483,356.552 137.649,355.552 137.5,354.5C 137.517,352.435 137.85,350.435 138.5,348.5C 139.117,348.611 139.617,348.944 140,349.5C 142.394,345.707 142.894,341.707 141.5,337.5C 142.547,335.944 143.214,334.277 143.5,332.5C 144.492,332.672 145.158,332.338 145.5,331.5 Z"/></g>
<g><path style="opacity:1" fill="#6596b1" d="M 181.5,351.5 C 182.589,345.845 183.922,340.178 185.5,334.5C 186.822,334.67 187.989,334.337 189,333.5C 189.836,337.354 188.669,340.521 185.5,343C 186.448,343.483 187.448,343.649 188.5,343.5C 188.666,351.507 188.5,359.507 188,367.5C 187.174,365.595 186.007,365.261 184.5,366.5C 185.428,367.768 185.595,369.101 185,370.5C 183.471,371.729 182.304,373.229 181.5,375C 180.552,375.483 179.552,375.649 178.5,375.5C 178.703,377.39 178.037,378.89 176.5,380C 175.517,380.591 174.85,380.257 174.5,379C 176.907,369.872 179.24,360.705 181.5,351.5 Z"/></g>
<g><path style="opacity:1" fill="#6d6193" d="M 333.5,339.5 C 334.693,339.97 335.36,340.97 335.5,342.5C 334.4,346.937 332.067,350.603 328.5,353.5C 327.218,359.4 324.385,364.4 320,368.5C 315.757,377.11 311.757,385.777 308,394.5C 307.333,392.5 307.333,390.5 308,388.5C 311.853,379.279 315.52,369.946 319,360.5C 323.847,353.459 328.681,346.459 333.5,339.5 Z"/></g>
<g><path style="opacity:1" fill="#c8c0d5" d="M 343.5,352.5 C 346.153,359.156 347.82,366.156 348.5,373.5C 346.57,369.413 345.07,365.08 344,360.5C 343.503,357.854 343.336,355.187 343.5,352.5 Z"/></g>
<g><path style="opacity:1" fill="#928094" d="M 257.5,357.5 C 259.693,363.198 261.026,369.198 261.5,375.5C 261.167,375.5 260.833,375.5 260.5,375.5C 259.013,369.617 258.013,363.617 257.5,357.5 Z"/></g>
<g><path style="opacity:0.941" fill="#a67fa8" d="M 131.5,359.5 C 131.013,363.819 129.013,367.152 125.5,369.5C 127,365.827 129,362.494 131.5,359.5 Z"/></g>
<g><path style="opacity:1" fill="#536c90" d="M 290.5,348.5 C 292.225,348.843 292.725,349.843 292,351.5C 288.083,358.919 284.75,366.586 282,374.5C 279.289,377.165 278.289,376.498 279,372.5C 281.552,367.392 283.552,362.058 285,356.5C 286.609,353.593 288.442,350.927 290.5,348.5 Z"/></g>
<g><path style="opacity:1" fill="#c9c9d9" d="M 173.5,369.5 C 171.651,375.053 169.984,380.72 168.5,386.5C 167.351,386.209 166.684,385.376 166.5,384C 168.548,376.73 170.714,369.563 173,362.5C 167.082,368.196 160.915,373.529 154.5,378.5C 153.475,378.103 153.308,377.437 154,376.5C 156.063,374.266 158.229,372.266 160.5,370.5C 165.184,366.73 170.017,363.063 175,359.5C 174.845,362.84 174.345,366.174 173.5,369.5 Z"/></g>
<g><path style="opacity:1" fill="#b9896f" d="M 232.5,369.5 C 232.833,369.5 233.167,369.5 233.5,369.5C 233.5,372.833 233.5,376.167 233.5,379.5C 233.158,380.338 232.492,380.672 231.5,380.5C 231.552,376.802 231.886,373.135 232.5,369.5 Z"/></g>
<g><path style="opacity:0.996" fill="#9e88a7" d="M 191.5,371.5 C 191.5,372.167 191.5,372.833 191.5,373.5C 191.08,375.094 190.414,376.594 189.5,378C 190.124,380.085 191.124,381.918 192.5,383.5C 191.833,386.5 191.167,389.5 190.5,392.5C 190.665,389.482 190.498,386.482 190,383.5C 188.425,381.925 187.258,380.092 186.5,378C 187.987,375.682 189.654,373.515 191.5,371.5 Z"/></g>
<g><path style="opacity:1" fill="#cdb560" d="M 252.5,347.5 C 256.063,359.797 258.063,372.463 258.5,385.5C 258.784,387.415 258.451,389.081 257.5,390.5C 257.607,384.12 257.107,377.787 256,371.5C 252.992,372.05 252.159,373.55 253.5,376C 252.054,387.566 249.721,398.899 246.5,410C 250.361,411.335 250.361,412.501 246.5,413.5C 245.571,414.689 245.238,416.022 245.5,417.5C 243.5,417.5 241.5,417.5 239.5,417.5C 240.935,413.186 242.435,408.853 244,404.5C 244.667,402.833 244.667,401.167 244,399.5C 241.505,401.149 240.005,403.483 239.5,406.5C 234.555,408.561 232.555,406.895 233.5,401.5C 235.144,401.714 236.644,401.38 238,400.5C 237.869,391.557 240.202,390.557 245,397.5C 246.591,395.073 247.425,392.407 247.5,389.5C 243.466,389.495 239.466,389.162 235.5,388.5C 235.5,386.833 235.5,385.167 235.5,383.5C 238.518,383.665 241.518,383.498 244.5,383C 245.731,381.817 245.731,380.651 244.5,379.5C 241.169,381.278 239.502,380.278 239.5,376.5C 241.813,368.62 243.479,360.62 244.5,352.5C 247.157,352.162 249.49,352.829 251.5,354.5C 252.474,352.257 252.808,349.924 252.5,347.5 Z"/></g>
<g><path style="opacity:1" fill="#dfc699" d="M 247.5,353.5 C 248.124,353.917 248.457,354.584 248.5,355.5C 247.598,361.452 245.931,367.118 243.5,372.5C 243.167,371.833 242.833,371.167 242.5,370.5C 243.744,364.636 245.411,358.97 247.5,353.5 Z"/></g>
<g><path style="opacity:1" fill="#6994b0" d="M 168.5,386.5 C 169.167,389.167 170.833,390.833 173.5,391.5C 173.762,392.978 173.429,394.311 172.5,395.5C 170.998,396.083 169.665,396.916 168.5,398C 169.167,398.333 169.833,398.667 170.5,399C 167.152,399.561 164.485,401.061 162.5,403.5C 161.07,404.537 159.403,405.204 157.5,405.5C 157.5,405.167 157.5,404.833 157.5,404.5C 154.83,400.638 151.83,396.972 148.5,393.5C 148.253,390.843 147.253,388.51 145.5,386.5C 146.816,385.193 147.816,383.693 148.5,382C 151.264,381.994 153.264,380.828 154.5,378.5C 160.915,373.529 167.082,368.196 173,362.5C 170.714,369.563 168.548,376.73 166.5,384C 166.684,385.376 167.351,386.209 168.5,386.5 Z"/></g>
<g><path style="opacity:1" fill="#9989a9" d="M 122.5,374.5 C 121.708,380.13 121.375,385.797 121.5,391.5C 117.258,385.547 117.591,379.88 122.5,374.5 Z"/></g>
<g><path style="opacity:0.996" fill="#9c89a6" d="M 189.5,368.5 C 190.167,369.167 190.833,369.833 191.5,370.5C 190.761,370.369 190.094,370.536 189.5,371C 185.339,376.161 180.839,380.994 176,385.5C 175.248,389.852 174.415,394.185 173.5,398.5C 169.957,400.438 166.29,402.105 162.5,403.5C 164.485,401.061 167.152,399.561 170.5,399C 169.833,398.667 169.167,398.333 168.5,398C 169.665,396.916 170.998,396.083 172.5,395.5C 173.429,394.311 173.762,392.978 173.5,391.5C 173.187,388.753 173.52,386.086 174.5,383.5C 179.727,378.721 184.727,373.721 189.5,368.5 Z"/></g>
<g><path style="opacity:1" fill="#655e8c" d="M 137.5,354.5 C 137.649,355.552 137.483,356.552 137,357.5C 134.622,360.57 132.455,363.736 130.5,367C 131.187,368.162 131.353,369.328 131,370.5C 129.604,372.527 127.938,372.86 126,371.5C 125.669,375.685 124.836,379.685 123.5,383.5C 124.168,388.51 124.835,393.51 125.5,398.5C 123.818,397.173 122.485,395.506 121.5,393.5C 121.5,392.833 121.5,392.167 121.5,391.5C 121.375,385.797 121.708,380.13 122.5,374.5C 122.953,372.435 123.953,370.768 125.5,369.5C 129.013,367.152 131.013,363.819 131.5,359.5C 134.115,358.55 136.115,356.883 137.5,354.5 Z"/></g>
<g><path style="opacity:1" fill="#9e7d78" d="M 260.5,375.5 C 260.833,375.5 261.167,375.5 261.5,375.5C 263.202,377.8 263.868,380.467 263.5,383.5C 263.833,388.833 264.167,394.167 264.5,399.5C 262.69,396.855 261.69,393.855 261.5,390.5C 261.387,385.482 261.053,380.482 260.5,375.5 Z"/></g>
<g><path style="opacity:1" fill="#c6997e" d="M 231.5,383.5 C 231.735,388.546 230.735,393.213 228.5,397.5C 228.999,393.51 229.499,389.51 230,385.5C 230.278,384.584 230.778,383.918 231.5,383.5 Z"/></g>
<g><path style="opacity:1" fill="#9097b2" d="M 351.5,375.5 C 354.244,384.587 354.911,393.921 353.5,403.5C 351.891,404.888 350.058,405.888 348,406.5C 340.883,403.894 333.716,403.894 326.5,406.5C 324.167,406.5 321.833,406.5 319.5,406.5C 330.1,402.646 341.1,401.646 352.5,403.5C 352.341,399.669 350.341,397.336 346.5,396.5C 345.571,395.311 345.238,393.978 345.5,392.5C 347.149,393.714 348.815,395.047 350.5,396.5C 351.679,391.162 351.679,385.828 350.5,380.5C 351.451,379.081 351.784,377.415 351.5,375.5 Z"/></g>
<g><path style="opacity:1" fill="#56628c" d="M 345.5,392.5 C 345.238,393.978 345.571,395.311 346.5,396.5C 350.341,397.336 352.341,399.669 352.5,403.5C 341.1,401.646 330.1,402.646 319.5,406.5C 315.689,407.645 311.689,407.812 307.5,407C 306.643,406.311 305.977,405.478 305.5,404.5C 308.998,399.414 312.998,394.747 317.5,390.5C 319.423,389.692 321.423,389.192 323.5,389C 326.242,386.092 329.575,384.258 333.5,383.5C 338.148,385.796 342.148,388.796 345.5,392.5 Z"/></g>
<g><path style="opacity:1" fill="#6e628b" d="M 192.5,383.5 C 193.167,383.5 193.5,383.833 193.5,384.5C 193.041,394.851 192.374,405.185 191.5,415.5C 190.523,412.713 190.19,409.713 190.5,406.5C 190.5,401.833 190.5,397.167 190.5,392.5C 191.167,389.5 191.833,386.5 192.5,383.5 Z"/></g>
<g><path style="opacity:1" fill="#836a92" d="M 121.5,393.5 C 122.485,395.506 123.818,397.173 125.5,398.5C 127.148,400.429 128.815,402.429 130.5,404.5C 139.502,407.083 148.502,407.083 157.5,404.5C 157.5,404.833 157.5,405.167 157.5,405.5C 154.808,408.142 151.475,409.142 147.5,408.5C 142.93,407.559 138.263,407.226 133.5,407.5C 128.605,407.737 125.272,405.57 123.5,401C 122.521,398.567 121.855,396.067 121.5,393.5 Z"/></g>
<g><path style="opacity:1" fill="#556c92" d="M 193.5,384.5 C 194.5,384.5 195.5,384.5 196.5,384.5C 196.5,387.833 196.5,391.167 196.5,394.5C 197.978,394.238 199.311,394.571 200.5,395.5C 197.63,401.278 195.464,407.278 194,413.5C 193.292,414.381 192.458,415.047 191.5,415.5C 192.374,405.185 193.041,394.851 193.5,384.5 Z"/></g>
<g><path style="opacity:1" fill="#8c6771" d="M 227.5,400.5 C 226.993,405.526 226.326,410.526 225.5,415.5C 225.167,415.5 224.833,415.5 224.5,415.5C 224.124,410.106 225.124,405.106 227.5,400.5 Z"/></g>
<g><path style="opacity:0.161" fill="#bfaabe" d="M 133.5,407.5 C 138.263,407.226 142.93,407.559 147.5,408.5C 147.44,409.043 147.107,409.376 146.5,409.5C 142.033,408.886 137.7,408.22 133.5,407.5 Z"/></g>
<g><path style="opacity:1" fill="#735b81" d="M 232.5,369.5 C 231.886,373.135 231.552,376.802 231.5,380.5C 231.5,381.5 231.5,382.5 231.5,383.5C 230.778,383.918 230.278,384.584 230,385.5C 229.499,389.51 228.999,393.51 228.5,397.5C 227.596,398.209 227.263,399.209 227.5,400.5C 225.124,405.106 224.124,410.106 224.5,415.5C 224.167,415.5 223.833,415.5 223.5,415.5C 223.569,408.086 224.402,400.753 226,393.5C 228.282,385.391 230.449,377.391 232.5,369.5 Z"/></g>
<g><path style="opacity:1" fill="#c7b077" d="M 258.5,385.5 C 259.935,386.913 260.935,388.58 261.5,390.5C 261.69,393.855 262.69,396.855 264.5,399.5C 264.5,405.5 264.5,411.5 264.5,417.5C 263.539,419.265 263.205,421.265 263.5,423.5C 261.677,424.227 259.843,424.561 258,424.5C 256.698,423.915 255.531,423.249 254.5,422.5C 257.394,422.958 259.894,422.291 262,420.5C 263.237,413.078 263.237,405.745 262,398.5C 260.89,396.963 259.39,396.297 257.5,396.5C 257.5,394.5 257.5,392.5 257.5,390.5C 258.451,389.081 258.784,387.415 258.5,385.5 Z"/></g>
<g><path style="opacity:1" fill="#ccb65a" d="M 249.5,339.5 C 251.483,339.157 252.817,339.824 253.5,341.5C 252.539,343.265 252.205,345.265 252.5,347.5C 252.808,349.924 252.474,352.257 251.5,354.5C 249.49,352.829 247.157,352.162 244.5,352.5C 243.479,360.62 241.813,368.62 239.5,376.5C 239.502,380.278 241.169,381.278 244.5,379.5C 245.731,380.651 245.731,381.817 244.5,383C 241.518,383.498 238.518,383.665 235.5,383.5C 235.5,385.167 235.5,386.833 235.5,388.5C 239.466,389.162 243.466,389.495 247.5,389.5C 247.425,392.407 246.591,395.073 245,397.5C 240.202,390.557 237.869,391.557 238,400.5C 236.644,401.38 235.144,401.714 233.5,401.5C 232.555,406.895 234.555,408.561 239.5,406.5C 240.005,403.483 241.505,401.149 244,399.5C 244.667,401.167 244.667,402.833 244,404.5C 242.435,408.853 240.935,413.186 239.5,417.5C 241.5,417.5 243.5,417.5 245.5,417.5C 245.238,416.022 245.571,414.689 246.5,413.5C 250.361,412.501 250.361,411.335 246.5,410C 249.721,398.899 252.054,387.566 253.5,376C 252.159,373.55 252.992,372.05 256,371.5C 257.107,377.787 257.607,384.12 257.5,390.5C 257.5,392.5 257.5,394.5 257.5,396.5C 259.39,396.297 260.89,396.963 262,398.5C 263.237,405.745 263.237,413.078 262,420.5C 259.894,422.291 257.394,422.958 254.5,422.5C 247.481,426.837 239.814,429.17 231.5,429.5C 229.167,429.5 226.833,429.5 224.5,429.5C 224.216,427.585 224.549,425.919 225.5,424.5C 226.919,425.451 228.585,425.784 230.5,425.5C 230.5,423.5 230.5,421.5 230.5,419.5C 229.167,419.5 227.833,419.5 226.5,419.5C 227.57,412.211 228.236,404.878 228.5,397.5C 230.735,393.213 231.735,388.546 231.5,383.5C 231.5,382.5 231.5,381.5 231.5,380.5C 232.492,380.672 233.158,380.338 233.5,379.5C 235.2,371.605 237.033,363.605 239,355.5C 240.337,354.096 241.503,352.596 242.5,351C 242.011,349.862 241.678,348.695 241.5,347.5C 241.369,346.624 241.702,345.957 242.5,345.5C 247.098,346.59 249.431,344.59 249.5,339.5 Z"/></g>
<g><path style="opacity:1" fill="#7e97a3" d="M 263.5,383.5 C 264.117,383.611 264.617,383.944 265,384.5C 266.005,396.48 266.839,408.48 267.5,420.5C 269.432,421.52 271.432,421.687 273.5,421C 276.527,418.65 279.86,417.15 283.5,416.5C 280.04,420.397 275.707,422.397 270.5,422.5C 268.833,422.5 267.167,422.5 265.5,422.5C 265.371,420.784 265.038,419.117 264.5,417.5C 264.5,411.5 264.5,405.5 264.5,399.5C 264.167,394.167 263.833,388.833 263.5,383.5 Z"/></g>
<g><path style="opacity:0.353" fill="#adc4c2" d="M 264.5,417.5 C 265.038,419.117 265.371,420.784 265.5,422.5C 267.167,422.5 268.833,422.5 270.5,422.5C 268.393,423.468 266.059,423.802 263.5,423.5C 263.205,421.265 263.539,419.265 264.5,417.5 Z"/></g>
<g><path style="opacity:1" fill="#c8a45f" d="M 228.5,397.5 C 228.236,404.878 227.57,412.211 226.5,419.5C 227.833,419.5 229.167,419.5 230.5,419.5C 230.5,421.5 230.5,423.5 230.5,425.5C 228.585,425.784 226.919,425.451 225.5,424.5C 225.5,421.5 225.5,418.5 225.5,415.5C 226.326,410.526 226.993,405.526 227.5,400.5C 227.263,399.209 227.596,398.209 228.5,397.5 Z"/></g>
<g><path style="opacity:0.702" fill="#c3aa82" d="M 223.5,415.5 C 223.833,415.5 224.167,415.5 224.5,415.5C 224.833,415.5 225.167,415.5 225.5,415.5C 225.5,418.5 225.5,421.5 225.5,424.5C 224.549,425.919 224.216,427.585 224.5,429.5C 226.833,429.5 229.167,429.5 231.5,429.5C 228.713,430.477 225.713,430.81 222.5,430.5C 223.234,429.292 223.567,427.959 223.5,426.5C 223.5,422.833 223.5,419.167 223.5,415.5 Z"/></g>
<g><path style="opacity:0.816" fill="#99aebb" d="M 190.5,406.5 C 190.19,409.713 190.523,412.713 191.5,415.5C 191.203,419.767 191.536,423.934 192.5,428C 194.246,428.471 195.913,429.138 197.5,430C 204.576,430.221 211.576,430.388 218.5,430.5C 215.674,431.343 212.674,432.009 209.5,432.5C 203.781,431.941 198.114,431.107 192.5,430C 190.703,428.406 189.703,426.406 189.5,424C 189.634,418.032 189.967,412.198 190.5,406.5 Z"/></g>
</svg>
