<?xml version="1.0" encoding="UTF-8"?>
<!DOCTYPE svg PUBLIC "-//W3C//DTD SVG 1.1//EN" "http://www.w3.org/Graphics/SVG/1.1/DTD/svg11.dtd">
<svg xmlns="http://www.w3.org/2000/svg" version="1.1" width="500px" height="500px" style="shape-rendering:geometricPrecision; text-rendering:geometricPrecision; image-rendering:optimizeQuality; fill-rule:evenodd; clip-rule:evenodd" xmlns:xlink="http://www.w3.org/1999/xlink">
<g><path style="opacity:0.678" fill="#45233c" d="M 211.5,149.5 C 219.256,147.69 226.089,149.69 232,155.5C 233.879,157.527 235.046,159.86 235.5,162.5C 235.5,163.167 235.167,163.5 234.5,163.5C 231.663,156.662 226.663,152.329 219.5,150.5C 217.167,150.5 214.833,150.5 212.5,150.5C 212.5,149.833 212.167,149.5 211.5,149.5 Z"/></g>
<g><path style="opacity:1" fill="#8e6d62" d="M 294.5,153.5 C 291.558,151.783 288.391,150.45 285,149.5C 284.235,149.57 283.735,149.903 283.5,150.5C 279.229,150.879 275.396,152.545 272,155.5C 271.122,158.215 269.622,160.549 267.5,162.5C 269.139,163.322 270.805,163.989 272.5,164.5C 272.5,164.833 272.5,165.167 272.5,165.5C 269.782,164.957 267.115,164.291 264.5,163.5C 263.833,163.5 263.167,163.5 262.5,163.5C 261.833,163.5 261.5,163.167 261.5,162.5C 265.868,155.984 271.868,151.484 279.5,149C 285.645,147.374 290.645,148.874 294.5,153.5 Z"/></g>
<g><path style="opacity:1" fill="#2e1d1c" d="M 211.5,149.5 C 212.167,149.5 212.5,149.833 212.5,150.5C 211.833,150.5 211.5,150.833 211.5,151.5C 207.486,151.56 204.319,153.227 202,156.5C 200.032,164.72 199.199,173.053 199.5,181.5C 198.662,181.842 198.328,182.508 198.5,183.5C 198.5,183.833 198.5,184.167 198.5,184.5C 197.833,183.833 197.167,183.167 196.5,182.5C 197.584,174.164 198.75,165.831 200,157.5C 202.069,152.406 205.902,149.739 211.5,149.5 Z"/></g>
<g><path style="opacity:1" fill="#d88282" d="M 211.5,151.5 C 211.5,150.833 211.833,150.5 212.5,150.5C 214.833,150.5 217.167,150.5 219.5,150.5C 218.491,151.939 218.824,153.272 220.5,154.5C 222.369,155.624 224.369,156.457 226.5,157C 227.381,157.708 228.047,158.542 228.5,159.5C 222.872,157.682 217.538,155.349 212.5,152.5C 212.5,151.833 212.167,151.5 211.5,151.5 Z"/></g>
<g><path style="opacity:0.827" fill="#3e1e28" d="M 283.5,150.5 C 283.735,149.903 284.235,149.57 285,149.5C 288.391,150.45 291.558,151.783 294.5,153.5C 296.127,155.464 298.127,156.797 300.5,157.5C 302.242,164.684 302.909,172.017 302.5,179.5C 301.539,181.265 301.205,183.265 301.5,185.5C 300.5,185.167 299.833,184.5 299.5,183.5C 302.655,175.348 302.155,167.348 298,159.5C 296.961,158.29 295.794,157.29 294.5,156.5C 291.612,153.22 287.945,151.22 283.5,150.5 Z"/></g>
<g><path style="opacity:1" fill="#d18258" d="M 212.5,152.5 C 217.538,155.349 222.872,157.682 228.5,159.5C 229.833,161.167 229.833,162.833 228.5,164.5C 226.833,164.5 225.167,164.5 223.5,164.5C 224.632,162.533 224.299,160.7 222.5,159C 211.513,157.482 205.846,162.315 205.5,173.5C 206.11,174.391 206.443,175.391 206.5,176.5C 204.5,176.833 202.5,177.167 200.5,177.5C 201.005,170.801 201.838,164.135 203,157.5C 205.603,154.722 208.77,153.056 212.5,152.5 Z"/></g>
<g><path style="opacity:1" fill="#c97ca6" d="M 219.5,150.5 C 226.663,152.329 231.663,156.662 234.5,163.5C 232.435,163.517 230.435,163.85 228.5,164.5C 229.833,162.833 229.833,161.167 228.5,159.5C 228.047,158.542 227.381,157.708 226.5,157C 224.369,156.457 222.369,155.624 220.5,154.5C 218.824,153.272 218.491,151.939 219.5,150.5 Z"/></g>
<g><path style="opacity:1" fill="#c7859f" d="M 294.5,156.5 C 295.794,157.29 296.961,158.29 298,159.5C 302.155,167.348 302.655,175.348 299.5,183.5C 298.833,182.5 298.167,181.5 297.5,180.5C 298.748,179.666 299.415,178.333 299.5,176.5C 298.357,171.9 297.524,167.233 297,162.5C 295.839,161.005 294.673,159.505 293.5,158C 293.57,157.235 293.903,156.735 294.5,156.5 Z"/></g>
<g><path style="opacity:0.929" fill="#2a2928" d="M 261.5,162.5 C 261.5,163.167 261.833,163.5 262.5,163.5C 255.355,162.479 248.021,162.479 240.5,163.5C 239.508,163.672 238.842,163.338 238.5,162.5C 242.127,161.729 245.794,161.062 249.5,160.5C 253.489,161.298 257.489,161.965 261.5,162.5 Z"/></g>
<g><path style="opacity:1" fill="#d2835c" d="M 283.5,150.5 C 287.945,151.22 291.612,153.22 294.5,156.5C 293.903,156.735 293.57,157.235 293.5,158C 294.673,159.505 295.839,161.005 297,162.5C 297.524,167.233 298.357,171.9 299.5,176.5C 299.415,178.333 298.748,179.666 297.5,180.5C 296.833,180.167 296.167,179.833 295.5,179.5C 294.167,177.833 292.833,176.167 291.5,174.5C 291.5,174.167 291.5,173.833 291.5,173.5C 295.013,172.972 296.013,171.138 294.5,168C 293.552,167.517 292.552,167.351 291.5,167.5C 291.739,165.533 291.406,163.699 290.5,162C 285.988,159.179 281.321,158.846 276.5,161C 275.695,162.113 275.028,163.279 274.5,164.5C 273.833,164.5 273.167,164.5 272.5,164.5C 270.805,163.989 269.139,163.322 267.5,162.5C 269.622,160.549 271.122,158.215 272,155.5C 275.396,152.545 279.229,150.879 283.5,150.5 Z"/></g>
<g><path style="opacity:1" fill="#c89c89" d="M 211.5,151.5 C 212.167,151.5 212.5,151.833 212.5,152.5C 208.77,153.056 205.603,154.722 203,157.5C 201.838,164.135 201.005,170.801 200.5,177.5C 202.5,177.167 204.5,176.833 206.5,176.5C 204.033,177.988 201.7,179.654 199.5,181.5C 199.199,173.053 200.032,164.72 202,156.5C 204.319,153.227 207.486,151.56 211.5,151.5 Z"/></g>
<g><path style="opacity:1" fill="#d79757" d="M 291.5,173.5 C 289.877,172.221 288.21,170.887 286.5,169.5C 285.691,167.929 285.357,166.262 285.5,164.5C 281.833,164.5 278.167,164.5 274.5,164.5C 275.028,163.279 275.695,162.113 276.5,161C 281.321,158.846 285.988,159.179 290.5,162C 291.406,163.699 291.739,165.533 291.5,167.5C 292.552,167.351 293.552,167.517 294.5,168C 296.013,171.138 295.013,172.972 291.5,173.5 Z"/></g>
<g><path style="opacity:1" fill="#cd9c6f" d="M 272.5,165.5 C 272.5,165.167 272.5,164.833 272.5,164.5C 273.167,164.5 273.833,164.5 274.5,164.5C 278.167,164.5 281.833,164.5 285.5,164.5C 285.357,166.262 285.691,167.929 286.5,169.5C 288.21,170.887 289.877,172.221 291.5,173.5C 291.5,173.833 291.5,174.167 291.5,174.5C 285.297,171.232 278.963,168.232 272.5,165.5 Z"/></g>
<g><path style="opacity:1" fill="#d5985e" d="M 223.5,164.5 C 223.5,164.833 223.5,165.167 223.5,165.5C 220.255,165.97 217.421,167.303 215,169.5C 214,168.833 213,168.167 212,167.5C 212.197,172.114 210.031,174.114 205.5,173.5C 205.846,162.315 211.513,157.482 222.5,159C 224.299,160.7 224.632,162.533 223.5,164.5 Z"/></g>
<g><path style="opacity:1" fill="#f6f7f7" d="M 262.5,163.5 C 263.167,163.5 263.833,163.5 264.5,163.5C 264.077,164.265 263.743,165.098 263.5,166C 265.169,169.697 266.836,173.364 268.5,177C 266.957,179.045 267.29,180.545 269.5,181.5C 269.672,182.492 269.338,183.158 268.5,183.5C 267.833,183.5 267.167,183.5 266.5,183.5C 263.781,182.087 260.781,181.42 257.5,181.5C 253.03,180.514 248.363,180.181 243.5,180.5C 245.265,179.539 247.265,179.205 249.5,179.5C 251.604,179.799 253.604,179.466 255.5,178.5C 253.581,175.289 253.081,171.955 254,168.5C 250.725,166.729 247.225,165.729 243.5,165.5C 241.973,165.573 240.973,164.906 240.5,163.5C 248.021,162.479 255.355,162.479 262.5,163.5 Z"/></g>
<g><path style="opacity:1" fill="#c5a583" d="M 223.5,165.5 C 217.704,168.902 212.038,172.569 206.5,176.5C 206.443,175.391 206.11,174.391 205.5,173.5C 210.031,174.114 212.197,172.114 212,167.5C 213,168.167 214,168.833 215,169.5C 217.421,167.303 220.255,165.97 223.5,165.5 Z"/></g>
<g><path style="opacity:0.706" fill="#5d3537" d="M 395.5,185.5 C 392.886,184.193 390.22,182.86 387.5,181.5C 382.22,185.278 377.386,189.611 373,194.5C 371.961,193.756 371.461,192.756 371.5,191.5C 371.665,187.818 371.499,184.152 371,180.5C 370.722,179.584 370.222,178.918 369.5,178.5C 368.942,177.21 367.942,176.377 366.5,176C 364.351,175.421 362.185,174.921 360,174.5C 358.301,174.387 357.134,175.053 356.5,176.5C 355.59,178.019 354.757,179.685 354,181.5C 353.955,178.78 354.455,176.114 355.5,173.5C 359.862,172.729 364.195,173.229 368.5,175C 370.049,176.214 371.215,177.714 372,179.5C 372.32,183.137 373.486,186.471 375.5,189.5C 378.936,185.729 382.936,182.729 387.5,180.5C 390.867,181.177 393.534,182.843 395.5,185.5 Z"/></g>
<g><path style="opacity:1" fill="#7199ba" d="M 235.5,162.5 C 236.5,162.5 237.5,162.5 238.5,162.5C 238.842,163.338 239.508,163.672 240.5,163.5C 240.973,164.906 241.973,165.573 243.5,165.5C 243.5,165.833 243.5,166.167 243.5,166.5C 239.154,166.334 234.821,166.501 230.5,167C 223.073,170.624 216.073,174.791 209.5,179.5C 209.265,178.903 208.765,178.57 208,178.5C 204.478,179.625 201.311,181.292 198.5,183.5C 198.328,182.508 198.662,181.842 199.5,181.5C 201.7,179.654 204.033,177.988 206.5,176.5C 212.038,172.569 217.704,168.902 223.5,165.5C 223.5,165.167 223.5,164.833 223.5,164.5C 225.167,164.5 226.833,164.5 228.5,164.5C 230.435,163.85 232.435,163.517 234.5,163.5C 235.167,163.5 235.5,163.167 235.5,162.5 Z"/></g>
<g><path style="opacity:1" fill="#c09dd1" d="M 243.5,165.5 C 247.225,165.729 250.725,166.729 254,168.5C 253.081,171.955 253.581,175.289 255.5,178.5C 253.604,179.466 251.604,179.799 249.5,179.5C 250.254,174.361 248.254,171.028 243.5,169.5C 243.5,168.5 243.5,167.5 243.5,166.5C 243.5,166.167 243.5,165.833 243.5,165.5 Z"/></g>
<g><path style="opacity:1" fill="#709fbd" d="M 264.5,163.5 C 267.115,164.291 269.782,164.957 272.5,165.5C 278.963,168.232 285.297,171.232 291.5,174.5C 292.833,176.167 294.167,177.833 295.5,179.5C 293.606,178.952 291.94,177.952 290.5,176.5C 289.833,176.833 289.167,177.167 288.5,177.5C 286.641,175.808 284.641,174.308 282.5,173C 277.206,171.547 272.206,169.38 267.5,166.5C 267.167,166.833 266.833,167.167 266.5,167.5C 267.352,171.461 269.019,174.961 271.5,178C 270.177,178.816 269.511,179.983 269.5,181.5C 267.29,180.545 266.957,179.045 268.5,177C 266.836,173.364 265.169,169.697 263.5,166C 263.743,165.098 264.077,164.265 264.5,163.5 Z"/></g>
<g><path style="opacity:1" fill="#d18b73" d="M 369.5,178.5 C 368.903,183.294 369.57,187.627 371.5,191.5C 371.461,192.756 371.961,193.756 373,194.5C 377.386,189.611 382.22,185.278 387.5,181.5C 390.22,182.86 392.886,184.193 395.5,185.5C 395.5,186.167 395.5,186.833 395.5,187.5C 392.188,187.007 389.021,186.007 386,184.5C 381.879,187.618 378.046,191.118 374.5,195C 372.203,195.018 369.869,194.851 367.5,194.5C 367.833,191.833 368.167,189.167 368.5,186.5C 368.123,184.742 367.456,183.075 366.5,181.5C 366.709,180.914 367.043,180.414 367.5,180C 365.527,179.505 363.527,179.338 361.5,179.5C 360.402,178.603 360.402,177.77 361.5,177C 359.866,176.506 358.199,176.34 356.5,176.5C 357.134,175.053 358.301,174.387 360,174.5C 362.185,174.921 364.351,175.421 366.5,176C 367.942,176.377 368.942,177.21 369.5,178.5 Z"/></g>
<g><path style="opacity:1" fill="#5ea5dd" d="M 295.5,179.5 C 295.5,180.167 295.5,180.833 295.5,181.5C 294.391,181.443 293.391,181.11 292.5,180.5C 289.293,179.435 286.959,180.601 285.5,184C 282.848,185.599 280.182,187.099 277.5,188.5C 274.594,186.55 271.594,184.883 268.5,183.5C 269.338,183.158 269.672,182.492 269.5,181.5C 269.511,179.983 270.177,178.816 271.5,178C 269.019,174.961 267.352,171.461 266.5,167.5C 266.833,167.167 267.167,166.833 267.5,166.5C 272.206,169.38 277.206,171.547 282.5,173C 284.641,174.308 286.641,175.808 288.5,177.5C 289.167,177.167 289.833,176.833 290.5,176.5C 291.94,177.952 293.606,178.952 295.5,179.5 Z"/></g>
<g><path style="opacity:1" fill="#a77f83" d="M 243.5,180.5 C 248.363,180.181 253.03,180.514 257.5,181.5C 252.722,181.165 248.722,181.498 245.5,182.5C 244.449,183.222 243.782,184.222 243.5,185.5C 241.886,183.925 239.886,183.259 237.5,183.5C 236.167,183.5 234.833,183.5 233.5,183.5C 236.736,182.135 240.069,181.135 243.5,180.5 Z"/></g>
<g><path style="opacity:1" fill="#df9d64" d="M 361.5,179.5 C 363.527,179.338 365.527,179.505 367.5,180C 367.043,180.414 366.709,180.914 366.5,181.5C 367.456,183.075 368.123,184.742 368.5,186.5C 366.481,186.222 364.314,186.555 362,187.5C 359.817,187.478 358.317,186.478 357.5,184.5C 357.5,182.833 357.5,181.167 357.5,179.5C 358.833,179.5 360.167,179.5 361.5,179.5 Z"/></g>
<g><path style="opacity:1" fill="#535c6c" d="M 266.5,183.5 C 267.167,183.5 267.833,183.5 268.5,183.5C 271.594,184.883 274.594,186.55 277.5,188.5C 277.5,189.167 277.5,189.833 277.5,190.5C 273.628,188.403 269.961,186.069 266.5,183.5 Z"/></g>
<g><path style="opacity:1" fill="#db9964" d="M 247.5,182.5 C 251.077,182.205 254.243,183.205 257,185.5C 257.808,187.579 257.641,189.579 256.5,191.5C 255.833,191.167 255.167,190.833 254.5,190.5C 253.735,191.612 252.735,192.279 251.5,192.5C 248.621,189.88 247.288,186.546 247.5,182.5 Z"/></g>
<g><path style="opacity:1" fill="#5982d7" d="M 292.5,180.5 C 293.373,182.886 294.873,184.886 297,186.5C 297.455,189.854 297.955,193.187 298.5,196.5C 297.5,196.5 296.5,196.5 295.5,196.5C 295.785,194.712 295.452,193.045 294.5,191.5C 293.52,194.086 293.187,196.753 293.5,199.5C 291.712,199.785 290.045,199.452 288.5,198.5C 286.441,195.225 283.441,193.559 279.5,193.5C 279.218,192.222 278.551,191.222 277.5,190.5C 277.5,189.833 277.5,189.167 277.5,188.5C 280.182,187.099 282.848,185.599 285.5,184C 286.959,180.601 289.293,179.435 292.5,180.5 Z"/></g>
<g><path style="opacity:1" fill="#5b70dc" d="M 289.5,181.5 C 291.369,183.635 292.036,186.302 291.5,189.5C 289.406,190.242 287.239,190.909 285,191.5C 281.737,192.068 280.237,190.734 280.5,187.5C 284.323,186.754 287.323,184.754 289.5,181.5 Z"/></g>
<g><path style="opacity:1" fill="#d48fb3" d="M 369.5,178.5 C 370.222,178.918 370.722,179.584 371,180.5C 371.499,184.152 371.665,187.818 371.5,191.5C 369.57,187.627 368.903,183.294 369.5,178.5 Z"/></g>
<g><path style="opacity:0.553" fill="#523228" d="M 395.5,185.5 C 398.328,186.996 399.994,189.329 400.5,192.5C 399.778,192.918 399.278,193.584 399,194.5C 399.107,191.408 397.941,189.075 395.5,187.5C 395.5,186.833 395.5,186.167 395.5,185.5 Z"/></g>
<g><path style="opacity:1" fill="#6789c9" d="M 292.5,180.5 C 293.391,181.11 294.391,181.443 295.5,181.5C 297.255,183.988 299.255,186.322 301.5,188.5C 300.561,191.443 299.894,194.776 299.5,198.5C 298.167,198.5 296.833,198.5 295.5,198.5C 295.433,199.959 295.766,201.292 296.5,202.5C 295.833,204.167 295.167,205.833 294.5,207.5C 293.442,206.4 292.608,205.066 292,203.5C 291.329,202.748 290.496,202.414 289.5,202.5C 286.765,198.762 283.432,195.762 279.5,193.5C 283.441,193.559 286.441,195.225 288.5,198.5C 290.045,199.452 291.712,199.785 293.5,199.5C 293.187,196.753 293.52,194.086 294.5,191.5C 295.452,193.045 295.785,194.712 295.5,196.5C 296.5,196.5 297.5,196.5 298.5,196.5C 297.955,193.187 297.455,189.854 297,186.5C 294.873,184.886 293.373,182.886 292.5,180.5 Z"/></g>
<g><path style="opacity:0.949" fill="#713b32" d="M 328.5,189.5 C 326.814,193.576 325.147,197.576 323.5,201.5C 323.543,196.756 325.21,192.756 328.5,189.5 Z"/></g>
<g><path style="opacity:1" fill="#6da8d4" d="M 243.5,169.5 C 248.254,171.028 250.254,174.361 249.5,179.5C 247.265,179.205 245.265,179.539 243.5,180.5C 240.069,181.135 236.736,182.135 233.5,183.5C 217.007,188.238 206.673,198.905 202.5,215.5C 201.833,217.167 201.167,218.833 200.5,220.5C 200.777,215.767 200.443,211.1 199.5,206.5C 200.689,205.571 202.022,205.238 203.5,205.5C 203.92,201.921 204.086,198.254 204,194.5C 206.588,194.189 209.421,193.689 212.5,193C 213.337,191.989 213.67,190.822 213.5,189.5C 218.432,187.932 223.099,185.765 227.5,183C 232.208,181.929 236.874,180.763 241.5,179.5C 240.931,175.671 241.598,172.337 243.5,169.5 Z"/></g>
<g><path style="opacity:0.847" fill="#3b3451" d="M 302.5,179.5 C 302.338,181.527 302.505,183.527 303,185.5C 311.155,193.789 315.322,203.789 315.5,215.5C 314.691,213.972 314.024,212.306 313.5,210.5C 312.508,204.168 310.175,198.502 306.5,193.5C 304.86,190.851 303.193,188.184 301.5,185.5C 301.205,183.265 301.539,181.265 302.5,179.5 Z"/></g>
<g><path style="opacity:1" fill="#cd8362" d="M 257.5,181.5 C 260.781,181.42 263.781,182.087 266.5,183.5C 269.961,186.069 273.628,188.403 277.5,190.5C 278.551,191.222 279.218,192.222 279.5,193.5C 283.432,195.762 286.765,198.762 289.5,202.5C 291.651,207.437 293.651,212.437 295.5,217.5C 296.487,223.805 296.653,230.138 296,236.5C 295.428,240.163 294.262,243.497 292.5,246.5C 292.453,243.702 292.12,241.369 291.5,239.5C 292.053,235.544 292.886,235.544 294,239.5C 296.312,230.582 295.646,221.915 292,213.5C 290.964,221.209 289.797,228.876 288.5,236.5C 287.5,236.5 286.5,236.5 285.5,236.5C 290.077,226.458 289.077,217.124 282.5,208.5C 279.077,202.492 274.411,201.158 268.5,204.5C 267.167,206.167 265.833,207.833 264.5,209.5C 263.25,209.423 262.417,208.756 262,207.5C 261.61,204.161 261.776,200.827 262.5,197.5C 262.639,195.117 261.972,193.117 260.5,191.5C 260.276,189.213 259.609,187.047 258.5,185C 258.905,184.055 259.572,183.388 260.5,183C 259.263,182.768 258.263,182.268 257.5,181.5 Z"/></g>
<g><path style="opacity:1" fill="#d78459" d="M 357.5,184.5 C 358.317,186.478 359.817,187.478 362,187.5C 364.314,186.555 366.481,186.222 368.5,186.5C 368.167,189.167 367.833,191.833 367.5,194.5C 369.869,194.851 372.203,195.018 374.5,195C 378.046,191.118 381.879,187.618 386,184.5C 389.021,186.007 392.188,187.007 395.5,187.5C 397.941,189.075 399.107,191.408 399,194.5C 399.278,193.584 399.778,192.918 400.5,192.5C 403.02,194.263 405.353,196.263 407.5,198.5C 406.475,200.515 404.808,201.848 402.5,202.5C 401.754,203.736 401.421,205.07 401.5,206.5C 397.275,208.762 395.275,212.429 395.5,217.5C 391.454,216.33 387.454,214.83 383.5,213C 382.29,211.961 381.29,210.794 380.5,209.5C 381.5,209.5 382.5,209.5 383.5,209.5C 382.551,207.263 381.884,204.929 381.5,202.5C 377.537,201.56 373.537,201.393 369.5,202C 370.056,202.383 370.389,202.883 370.5,203.5C 368.801,203.527 367.467,204.194 366.5,205.5C 365.828,204.733 364.995,204.066 364,203.5C 361.425,204.864 359.425,204.198 358,201.5C 356.467,202.695 354.967,202.695 353.5,201.5C 350.097,203.9 347.43,206.9 345.5,210.5C 345.338,208.473 345.505,206.473 346,204.5C 349.382,201.61 352.882,198.944 356.5,196.5C 351.628,194.658 350.294,191.324 352.5,186.5C 353.85,185.05 355.516,184.383 357.5,184.5 Z"/></g>
<g><path style="opacity:1" fill="#d7a786" d="M 257.5,181.5 C 258.263,182.268 259.263,182.768 260.5,183C 259.572,183.388 258.905,184.055 258.5,185C 259.609,187.047 260.276,189.213 260.5,191.5C 258.777,193.78 258.111,196.447 258.5,199.5C 257.448,199.649 256.448,199.483 255.5,199C 254.072,196.868 252.739,194.701 251.5,192.5C 252.735,192.279 253.735,191.612 254.5,190.5C 255.167,190.833 255.833,191.167 256.5,191.5C 257.641,189.579 257.808,187.579 257,185.5C 254.243,183.205 251.077,182.205 247.5,182.5C 246.833,182.5 246.167,182.5 245.5,182.5C 248.722,181.498 252.722,181.165 257.5,181.5 Z"/></g>
<g><path style="opacity:1" fill="#4c1a0f" d="M 270.5,194.5 C 273.691,195.092 276.691,196.259 279.5,198C 277.155,198.17 274.821,197.837 272.5,197C 271.244,196.583 270.577,195.75 270.5,194.5 Z"/></g>
<g><path style="opacity:1" fill="#db865e" d="M 237.5,183.5 C 239.886,183.259 241.886,183.925 243.5,185.5C 246.06,192.281 249.894,198.281 255,203.5C 256.105,208.658 258.605,212.992 262.5,216.5C 262.5,217.167 262.5,217.833 262.5,218.5C 261.883,218.611 261.383,218.944 261,219.5C 260.333,224.167 260.333,228.833 261,233.5C 262.5,235.667 264.333,237.5 266.5,239C 260.285,242.72 253.618,245.22 246.5,246.5C 244.486,243.103 241.819,240.103 238.5,237.5C 237.614,236.675 237.281,235.675 237.5,234.5C 238.558,233.4 239.392,232.066 240,230.5C 242.535,219.279 240.035,209.446 232.5,201C 230.779,200.261 229.113,199.427 227.5,198.5C 227.863,197.817 228.196,197.15 228.5,196.5C 230.017,196.511 231.184,197.177 232,198.5C 232.5,197.5 233,196.5 233.5,195.5C 233.062,194.494 232.396,194.494 231.5,195.5C 229.486,193.495 228.653,191.161 229,188.5C 231.979,186.933 234.812,185.266 237.5,183.5 Z"/></g>
<g><path style="opacity:1" fill="#c37f61" d="M 355.5,173.5 C 354.455,176.114 353.955,178.78 354,181.5C 354.757,179.685 355.59,178.019 356.5,176.5C 356.66,178.199 356.494,179.866 356,181.5C 353.929,182.364 352.262,183.697 351,185.5C 349.97,189.773 349.303,194.106 349,198.5C 347.132,199.672 345.298,199.505 343.5,198C 341.65,195.982 339.65,194.149 337.5,192.5C 332.77,194.541 331.437,197.874 333.5,202.5C 332.167,202.5 330.833,202.5 329.5,202.5C 329.824,199.306 328.658,198.306 326,199.5C 325.333,202.167 325.333,204.833 326,207.5C 328.172,211.847 330.838,215.847 334,219.5C 334.817,225.016 334.651,230.35 333.5,235.5C 333.666,230.489 333.499,225.489 333,220.5C 332.722,219.584 332.222,218.918 331.5,218.5C 331.167,218.5 330.833,218.5 330.5,218.5C 328.627,214.763 326.461,211.096 324,207.5C 323.749,205.567 323.249,203.734 322.5,202C 322.728,201.601 323.062,201.435 323.5,201.5C 325.147,197.576 326.814,193.576 328.5,189.5C 329.625,186.872 331.625,186.039 334.5,187C 337.797,189.295 340.797,191.962 343.5,195C 344.5,195.667 345.5,195.667 346.5,195C 347.811,191.646 348.644,188.146 349,184.5C 351.087,180.678 353.253,177.011 355.5,173.5 Z"/></g>
<g><path style="opacity:1" fill="#cc8566" d="M 233.5,183.5 C 234.833,183.5 236.167,183.5 237.5,183.5C 234.812,185.266 231.979,186.933 229,188.5C 228.653,191.161 229.486,193.495 231.5,195.5C 232.396,194.494 233.062,194.494 233.5,195.5C 233,196.5 232.5,197.5 232,198.5C 231.184,197.177 230.017,196.511 228.5,196.5C 228.196,197.15 227.863,197.817 227.5,198.5C 229.113,199.427 230.779,200.261 232.5,201C 240.035,209.446 242.535,219.279 240,230.5C 239.392,232.066 238.558,233.4 237.5,234.5C 237.5,234.167 237.5,233.833 237.5,233.5C 241.622,222.147 239.622,212.147 231.5,203.5C 231.53,202.503 231.03,201.836 230,201.5C 226.829,202.222 223.662,202.889 220.5,203.5C 218.606,204.048 216.94,205.048 215.5,206.5C 213.812,205.479 212.479,204.145 211.5,202.5C 213.591,199.229 215.924,196.063 218.5,193C 223.227,189.309 228.227,186.142 233.5,183.5 Z"/></g>
<g><path style="opacity:1" fill="#4a1206" d="M 228.5,196.5 C 225.438,197.054 222.438,197.554 219.5,198C 221.88,196.647 224.38,195.481 227,194.5C 228.03,194.836 228.53,195.503 228.5,196.5 Z"/></g>
<g><path style="opacity:1" fill="#98b3e2" d="M 295.5,179.5 C 296.167,179.833 296.833,180.167 297.5,180.5C 298.167,181.5 298.833,182.5 299.5,183.5C 299.833,184.5 300.5,185.167 301.5,185.5C 303.193,188.184 304.86,190.851 306.5,193.5C 305.898,197.122 304.398,197.455 302,194.5C 301.027,196.392 300.36,198.392 300,200.5C 299.184,201.823 298.017,202.489 296.5,202.5C 295.766,201.292 295.433,199.959 295.5,198.5C 296.833,198.5 298.167,198.5 299.5,198.5C 299.894,194.776 300.561,191.443 301.5,188.5C 299.255,186.322 297.255,183.988 295.5,181.5C 295.5,180.833 295.5,180.167 295.5,179.5 Z"/></g>
<g><path style="opacity:1" fill="#da8c9b" d="M 245.5,182.5 C 246.167,182.5 246.833,182.5 247.5,182.5C 247.288,186.546 248.621,189.88 251.5,192.5C 252.739,194.701 254.072,196.868 255.5,199C 256.448,199.483 257.448,199.649 258.5,199.5C 258.111,196.447 258.777,193.78 260.5,191.5C 261.972,193.117 262.639,195.117 262.5,197.5C 261.776,200.827 261.61,204.161 262,207.5C 262.417,208.756 263.25,209.423 264.5,209.5C 264.279,212.067 263.612,214.401 262.5,216.5C 258.605,212.992 256.105,208.658 255,203.5C 249.894,198.281 246.06,192.281 243.5,185.5C 243.782,184.222 244.449,183.222 245.5,182.5 Z"/></g>
<g><path style="opacity:1" fill="#de9b62" d="M 385.5,189.5 C 387.167,189.5 388.833,189.5 390.5,189.5C 390.491,191.308 390.991,192.975 392,194.5C 392.991,193.061 394.324,192.061 396,191.5C 400.099,204.091 397.099,206.424 387,198.5C 386.694,196.094 385.861,193.927 384.5,192C 384.743,191.098 385.077,190.265 385.5,189.5 Z"/></g>
<g><path style="opacity:1" fill="#debdc1" d="M 231.5,203.5 C 228.587,204.241 225.587,204.741 222.5,205C 220.004,206.666 217.671,208.5 215.5,210.5C 216.754,207.907 218.42,205.573 220.5,203.5C 223.662,202.889 226.829,202.222 230,201.5C 231.03,201.836 231.53,202.503 231.5,203.5 Z"/></g>
<g><path style="opacity:1" fill="#e4b1bf" d="M 282.5,208.5 C 280.22,207.36 277.886,206.193 275.5,205C 273.19,204.503 270.857,204.337 268.5,204.5C 274.411,201.158 279.077,202.492 282.5,208.5 Z"/></g>
<g><path style="opacity:1" fill="#5e88d8" d="M 306.5,193.5 C 310.175,198.502 312.508,204.168 313.5,210.5C 311.566,209.22 309.733,208.554 308,208.5C 306.05,210.803 303.717,211.136 301,209.5C 300.05,210.022 299.216,210.689 298.5,211.5C 297.473,210.209 296.473,210.209 295.5,211.5C 295.167,210.167 294.833,208.833 294.5,207.5C 295.167,205.833 295.833,204.167 296.5,202.5C 298.017,202.489 299.184,201.823 300,200.5C 300.36,198.392 301.027,196.392 302,194.5C 304.398,197.455 305.898,197.122 306.5,193.5 Z"/></g>
<g><path style="opacity:1" fill="#cb808a" d="M 211.5,202.5 C 212.479,204.145 213.812,205.479 215.5,206.5C 216.94,205.048 218.606,204.048 220.5,203.5C 218.42,205.573 216.754,207.907 215.5,210.5C 214.833,210.5 214.5,210.833 214.5,211.5C 213.181,209.204 211.514,207.204 209.5,205.5C 209.427,203.973 210.094,202.973 211.5,202.5 Z"/></g>
<g><path style="opacity:1" fill="#da865c" d="M 356.5,176.5 C 358.199,176.34 359.866,176.506 361.5,177C 360.402,177.77 360.402,178.603 361.5,179.5C 360.167,179.5 358.833,179.5 357.5,179.5C 357.5,181.167 357.5,182.833 357.5,184.5C 355.516,184.383 353.85,185.05 352.5,186.5C 350.294,191.324 351.628,194.658 356.5,196.5C 352.882,198.944 349.382,201.61 346,204.5C 345.505,206.473 345.338,208.473 345.5,210.5C 345.498,221.668 350.998,226.668 362,225.5C 367.251,226.178 372.417,227.178 377.5,228.5C 377.714,226.856 377.38,225.356 376.5,224C 377.973,223.29 378.64,222.124 378.5,220.5C 379.922,221.925 381.589,222.925 383.5,223.5C 383.833,224.5 384.5,225.167 385.5,225.5C 385.66,227.199 385.494,228.866 385,230.5C 380.795,232.856 377.961,236.189 376.5,240.5C 376.618,236.76 375.618,233.427 373.5,230.5C 368.498,231.023 363.998,231.356 360,231.5C 357.943,230.315 355.943,229.315 354,228.5C 349.587,230.562 349.421,232.895 353.5,235.5C 351.508,239.018 349.008,241.352 346,242.5C 343.801,241.355 341.635,241.355 339.5,242.5C 340.32,244.111 341.654,244.778 343.5,244.5C 343.915,246.948 342.915,248.281 340.5,248.5C 338.964,247.751 337.631,246.751 336.5,245.5C 336.167,246 335.833,246.5 335.5,247C 336.056,248.011 336.722,248.844 337.5,249.5C 336.833,249.5 336.167,249.5 335.5,249.5C 334.167,249.5 333.5,248.833 333.5,247.5C 333.5,245.167 333.5,242.833 333.5,240.5C 333.5,238.833 333.5,237.167 333.5,235.5C 334.651,230.35 334.817,225.016 334,219.5C 330.838,215.847 328.172,211.847 326,207.5C 325.333,204.833 325.333,202.167 326,199.5C 328.658,198.306 329.824,199.306 329.5,202.5C 330.833,202.5 332.167,202.5 333.5,202.5C 331.437,197.874 332.77,194.541 337.5,192.5C 339.65,194.149 341.65,195.982 343.5,198C 345.298,199.505 347.132,199.672 349,198.5C 349.303,194.106 349.97,189.773 351,185.5C 352.262,183.697 353.929,182.364 356,181.5C 356.494,179.866 356.66,178.199 356.5,176.5 Z"/></g>
<g><path style="opacity:1" fill="#5ca8de" d="M 243.5,166.5 C 243.5,167.5 243.5,168.5 243.5,169.5C 241.598,172.337 240.931,175.671 241.5,179.5C 236.874,180.763 232.208,181.929 227.5,183C 223.099,185.765 218.432,187.932 213.5,189.5C 213.67,190.822 213.337,191.989 212.5,193C 209.421,193.689 206.588,194.189 204,194.5C 204.086,198.254 203.92,201.921 203.5,205.5C 202.022,205.238 200.689,205.571 199.5,206.5C 200.443,211.1 200.777,215.767 200.5,220.5C 199.756,224.119 199.423,227.785 199.5,231.5C 196.751,231.274 194.084,231.607 191.5,232.5C 189.412,222.695 190.246,213.028 194,203.5C 194.667,202.167 195.667,201.167 197,200.5C 197.39,194.712 200.057,190.378 205,187.5C 206.975,185.047 208.475,182.381 209.5,179.5C 216.073,174.791 223.073,170.624 230.5,167C 234.821,166.501 239.154,166.334 243.5,166.5 Z"/></g>
<g><path style="opacity:1" fill="#faf7f4" d="M 231.5,203.5 C 239.622,212.147 241.622,222.147 237.5,233.5C 236.29,233.932 235.29,234.599 234.5,235.5C 230.548,236.196 226.548,236.696 222.5,237C 218.987,240.498 216.154,239.998 214,235.5C 213.683,237.301 213.016,237.634 212,236.5C 209.106,227.844 209.94,219.51 214.5,211.5C 214.5,210.833 214.833,210.5 215.5,210.5C 217.671,208.5 220.004,206.666 222.5,205C 225.587,204.741 228.587,204.241 231.5,203.5 Z"/></g>
<g><path style="opacity:1" fill="#fbf9f7" d="M 268.5,204.5 C 270.857,204.337 273.19,204.503 275.5,205C 277.886,206.193 280.22,207.36 282.5,208.5C 289.077,217.124 290.077,226.458 285.5,236.5C 284.5,236.833 283.833,237.5 283.5,238.5C 281.5,238.5 279.5,238.5 277.5,238.5C 263.826,238.517 258.826,231.85 262.5,218.5C 262.5,217.833 262.5,217.167 262.5,216.5C 263.612,214.401 264.279,212.067 264.5,209.5C 265.833,207.833 267.167,206.167 268.5,204.5 Z"/></g>
<g><path style="opacity:0.596" fill="#382129" d="M 400.5,192.5 C 408.433,193.897 410.933,198.23 408,205.5C 405.63,209.597 402.797,213.264 399.5,216.5C 401.977,212.222 404.477,207.888 407,203.5C 407.494,201.866 407.66,200.199 407.5,198.5C 405.353,196.263 403.02,194.263 400.5,192.5 Z"/></g>
<g><path style="opacity:0.651" fill="#213447" d="M 196.5,182.5 C 197.167,183.167 197.833,183.833 198.5,184.5C 190.104,194.635 184.937,206.302 183,219.5C 182.617,220.056 182.117,220.389 181.5,220.5C 179.579,221.363 177.579,222.029 175.5,222.5C 175.167,222.5 174.833,222.5 174.5,222.5C 176.731,220.799 179.231,219.466 182,218.5C 184.231,205.276 189.064,193.276 196.5,182.5 Z"/></g>
<g><path style="opacity:1" fill="#dc9e62" d="M 380.5,209.5 C 378.167,208.167 375.833,206.833 373.5,205.5C 371.973,205.573 370.973,204.906 370.5,203.5C 370.389,202.883 370.056,202.383 369.5,202C 373.537,201.393 377.537,201.56 381.5,202.5C 381.884,204.929 382.551,207.263 383.5,209.5C 382.5,209.5 381.5,209.5 380.5,209.5 Z"/></g>
<g><path style="opacity:1" fill="#cc8897" d="M 407.5,198.5 C 407.66,200.199 407.494,201.866 407,203.5C 404.477,207.888 401.977,212.222 399.5,216.5C 398.833,216.833 398.167,217.167 397.5,217.5C 396.929,213.094 398.262,209.428 401.5,206.5C 401.421,205.07 401.754,203.736 402.5,202.5C 404.808,201.848 406.475,200.515 407.5,198.5 Z"/></g>
<g><path style="opacity:1" fill="#c98c77" d="M 373.5,205.5 C 375.833,206.833 378.167,208.167 380.5,209.5C 381.29,210.794 382.29,211.961 383.5,213C 387.454,214.83 391.454,216.33 395.5,217.5C 395.275,212.429 397.275,208.762 401.5,206.5C 398.262,209.428 396.929,213.094 397.5,217.5C 397.167,218.5 396.5,219.167 395.5,219.5C 390.625,217.952 385.959,215.952 381.5,213.5C 378.527,211.194 375.86,208.527 373.5,205.5 Z"/></g>
<g><path style="opacity:1" fill="#615d86" d="M 289.5,202.5 C 290.496,202.414 291.329,202.748 292,203.5C 292.608,205.066 293.442,206.4 294.5,207.5C 294.833,208.833 295.167,210.167 295.5,211.5C 297.717,216.576 299.05,221.909 299.5,227.5C 299.662,229.527 299.495,231.527 299,233.5C 298.814,230.964 298.314,228.631 297.5,226.5C 297.932,223.123 297.265,220.123 295.5,217.5C 293.651,212.437 291.651,207.437 289.5,202.5 Z"/></g>
<g><path style="opacity:0.68" fill="#2d1619" d="M 399.5,216.5 C 398.92,218.749 397.587,220.415 395.5,221.5C 395.5,220.833 395.5,220.167 395.5,219.5C 396.5,219.167 397.167,218.5 397.5,217.5C 398.167,217.167 398.833,216.833 399.5,216.5 Z"/></g>
<g><path style="opacity:1" fill="#5c6fd6" d="M 313.5,210.5 C 314.024,212.306 314.691,213.972 315.5,215.5C 315.5,215.833 315.5,216.167 315.5,216.5C 315.5,217.833 315.5,219.167 315.5,220.5C 314.713,222.104 313.38,222.771 311.5,222.5C 311.715,224.179 311.048,225.179 309.5,225.5C 306.306,226.758 302.973,227.424 299.5,227.5C 299.05,221.909 297.717,216.576 295.5,211.5C 296.473,210.209 297.473,210.209 298.5,211.5C 299.216,210.689 300.05,210.022 301,209.5C 303.717,211.136 306.05,210.803 308,208.5C 309.733,208.554 311.566,209.22 313.5,210.5 Z"/></g>
<g><path style="opacity:1" fill="#d9bdc1" d="M 370.5,203.5 C 370.973,204.906 371.973,205.573 373.5,205.5C 375.86,208.527 378.527,211.194 381.5,213.5C 381.062,213.435 380.728,213.601 380.5,214C 382.487,215.319 383.654,217.152 384,219.5C 384.763,216.937 385.263,216.937 385.5,219.5C 385.248,221.073 384.582,222.406 383.5,223.5C 381.589,222.925 379.922,221.925 378.5,220.5C 377.71,219.391 377.21,218.058 377,216.5C 373.296,212.964 369.796,209.298 366.5,205.5C 367.467,204.194 368.801,203.527 370.5,203.5 Z"/></g>
<g><path style="opacity:1" fill="#1f1a1e" d="M 264.5,215.5 C 265.496,215.414 266.329,215.748 267,216.5C 267.921,220.711 267.421,224.711 265.5,228.5C 265.786,224.204 265.453,219.871 264.5,215.5 Z"/></g>
<g><path style="opacity:1" fill="#5da1d5" d="M 209.5,179.5 C 208.475,182.381 206.975,185.047 205,187.5C 200.057,190.378 197.39,194.712 197,200.5C 195.667,201.167 194.667,202.167 194,203.5C 190.246,213.028 189.412,222.695 191.5,232.5C 194.084,231.607 196.751,231.274 199.5,231.5C 200.271,234.454 200.938,237.454 201.5,240.5C 200.002,238.431 198.336,236.431 196.5,234.5C 194.027,233.203 191.693,233.203 189.5,234.5C 188.523,237.287 188.19,240.287 188.5,243.5C 189.675,243.281 190.675,243.614 191.5,244.5C 190.754,245.736 190.421,247.07 190.5,248.5C 187.746,244.743 186.246,240.409 186,235.5C 183.282,232.93 180.615,232.93 178,235.5C 176.842,235.002 176.009,234.169 175.5,233C 176.161,230.536 176.661,228.036 177,225.5C 178.758,223.917 180.258,222.25 181.5,220.5C 182.117,220.389 182.617,220.056 183,219.5C 184.937,206.302 190.104,194.635 198.5,184.5C 198.5,184.167 198.5,183.833 198.5,183.5C 201.311,181.292 204.478,179.625 208,178.5C 208.765,178.57 209.265,178.903 209.5,179.5 Z"/></g>
<g><path style="opacity:1" fill="#1e1a1b" d="M 232.5,215.5 C 233.649,215.791 234.316,216.624 234.5,218C 234.07,221.514 233.736,225.014 233.5,228.5C 231.425,224.254 231.092,219.921 232.5,215.5 Z"/></g>
<g><path style="opacity:1" fill="#dd995f" d="M 366.5,205.5 C 369.796,209.298 373.296,212.964 377,216.5C 377.21,218.058 377.71,219.391 378.5,220.5C 378.64,222.124 377.973,223.29 376.5,224C 377.38,225.356 377.714,226.856 377.5,228.5C 372.417,227.178 367.251,226.178 362,225.5C 350.998,226.668 345.498,221.668 345.5,210.5C 347.43,206.9 350.097,203.9 353.5,201.5C 354.967,202.695 356.467,202.695 358,201.5C 359.425,204.198 361.425,204.864 364,203.5C 364.995,204.066 365.828,204.733 366.5,205.5 Z"/></g>
<g><path style="opacity:1" fill="#dc865b" d="M 291.5,239.5 C 288.895,239.379 286.895,238.379 285.5,236.5C 286.5,236.5 287.5,236.5 288.5,236.5C 289.797,228.876 290.964,221.209 292,213.5C 295.646,221.915 296.312,230.582 294,239.5C 292.886,235.544 292.053,235.544 291.5,239.5 Z"/></g>
<g><path style="opacity:1" fill="#efe1e4" d="M 381.5,213.5 C 385.959,215.952 390.625,217.952 395.5,219.5C 395.5,220.167 395.5,220.833 395.5,221.5C 394.89,222.391 394.557,223.391 394.5,224.5C 392.821,224.285 391.821,224.952 391.5,226.5C 389.304,225.757 387.304,225.424 385.5,225.5C 384.5,225.167 383.833,224.5 383.5,223.5C 384.582,222.406 385.248,221.073 385.5,219.5C 385.263,216.937 384.763,216.937 384,219.5C 383.654,217.152 382.487,215.319 380.5,214C 380.728,213.601 381.062,213.435 381.5,213.5 Z"/></g>
<g><path style="opacity:0.031" fill="#9e9f9e" d="M 394.5,224.5 C 395.833,225.167 395.833,225.167 394.5,224.5 Z"/></g>
<g><path style="opacity:1" fill="#59708e" d="M 202.5,215.5 C 202.5,224.5 202.5,233.5 202.5,242.5C 202.167,242.5 201.833,242.5 201.5,242.5C 201.5,241.833 201.5,241.167 201.5,240.5C 200.938,237.454 200.271,234.454 199.5,231.5C 199.423,227.785 199.756,224.119 200.5,220.5C 201.167,218.833 201.833,217.167 202.5,215.5 Z"/></g>
<g><path style="opacity:1" fill="#cd8565" d="M 209.5,205.5 C 211.514,207.204 213.181,209.204 214.5,211.5C 209.94,219.51 209.106,227.844 212,236.5C 213.016,237.634 213.683,237.301 214,235.5C 216.154,239.998 218.987,240.498 222.5,237C 226.548,236.696 230.548,236.196 234.5,235.5C 235.487,237.473 236.487,239.473 237.5,241.5C 237.376,242.107 237.043,242.44 236.5,242.5C 232.554,241.473 228.554,241.306 224.5,242C 221.935,244.08 219.268,245.913 216.5,247.5C 218.093,245.765 218.926,243.765 219,241.5C 216.286,239.964 213.453,238.63 210.5,237.5C 207.279,239.613 205.945,242.613 206.5,246.5C 205.842,245.602 205.176,244.602 204.5,243.5C 203.335,233.851 203.168,224.184 204,214.5C 204.843,210.8 206.676,207.8 209.5,205.5 Z"/></g>
<g><path style="opacity:1" fill="#db855c" d="M 376.5,240.5 C 369.025,247.974 362.692,256.307 357.5,265.5C 355.692,265.509 354.025,265.009 352.5,264C 350.271,261.6 347.937,259.433 345.5,257.5C 342.527,255.194 339.86,252.527 337.5,249.5C 336.722,248.844 336.056,248.011 335.5,247C 335.833,246.5 336.167,246 336.5,245.5C 337.631,246.751 338.964,247.751 340.5,248.5C 342.915,248.281 343.915,246.948 343.5,244.5C 341.654,244.778 340.32,244.111 339.5,242.5C 341.635,241.355 343.801,241.355 346,242.5C 349.008,241.352 351.508,239.018 353.5,235.5C 349.421,232.895 349.587,230.562 354,228.5C 355.943,229.315 357.943,230.315 360,231.5C 363.998,231.356 368.498,231.023 373.5,230.5C 375.618,233.427 376.618,236.76 376.5,240.5 Z"/></g>
<g><path style="opacity:1" fill="#d56955" d="M 247.5,219.5 C 248.5,219.5 249.5,219.5 250.5,219.5C 252.29,224.328 253.29,229.328 253.5,234.5C 251.208,234.244 249.041,234.577 247,235.5C 246.308,234.975 245.808,234.308 245.5,233.5C 246.385,228.874 247.051,224.207 247.5,219.5 Z"/></g>
<g><path style="opacity:0.899" fill="#c4b4ab" d="M 330.5,218.5 C 330.833,218.5 331.167,218.5 331.5,218.5C 332.363,224.455 332.697,230.455 332.5,236.5C 331.833,236.833 331.167,237.167 330.5,237.5C 331.734,231.188 331.734,224.854 330.5,218.5 Z"/></g>
<g><path style="opacity:1" fill="#292536" d="M 315.5,216.5 C 318.577,218.735 321.744,221.068 325,223.5C 326.404,225.639 327.237,227.972 327.5,230.5C 326.903,236.941 325.737,243.274 324,249.5C 323.303,251.584 322.136,253.251 320.5,254.5C 321.167,252.167 321.833,249.833 322.5,247.5C 324.011,244.456 324.678,241.122 324.5,237.5C 327.6,228.703 324.6,223.037 315.5,220.5C 315.5,219.167 315.5,217.833 315.5,216.5 Z"/></g>
<g><path style="opacity:1" fill="#471f0f" d="M 331.5,218.5 C 332.222,218.918 332.722,219.584 333,220.5C 333.499,225.489 333.666,230.489 333.5,235.5C 333.5,237.167 333.5,238.833 333.5,240.5C 332.566,239.432 332.232,238.099 332.5,236.5C 332.697,230.455 332.363,224.455 331.5,218.5 Z"/></g>
<g><path style="opacity:0.396" fill="#958f94" d="M 405.5,233.5 C 403.804,233.315 402.471,232.481 401.5,231C 403.412,230.721 404.746,231.554 405.5,233.5 Z"/></g>
<g><path style="opacity:1" fill="#80b1d1" d="M 181.5,220.5 C 180.258,222.25 178.758,223.917 177,225.5C 176.661,228.036 176.161,230.536 175.5,233C 176.009,234.169 176.842,235.002 178,235.5C 180.615,232.93 183.282,232.93 186,235.5C 186.246,240.409 187.746,244.743 190.5,248.5C 191.371,251.112 192.037,253.779 192.5,256.5C 192.167,256.5 191.833,256.5 191.5,256.5C 191.047,254.435 190.047,252.768 188.5,251.5C 187.978,246.99 185.645,243.99 181.5,242.5C 183.565,240.102 183.898,237.435 182.5,234.5C 180.477,235.54 178.477,236.54 176.5,237.5C 175.416,237.315 174.416,236.982 173.5,236.5C 173.033,231.6 173.699,226.933 175.5,222.5C 177.579,222.029 179.579,221.363 181.5,220.5 Z"/></g>
<g><path style="opacity:0.141" fill="#7f807f" d="M 405.5,233.5 C 406.167,233.5 406.5,233.833 406.5,234.5C 406.167,234.167 405.833,233.833 405.5,233.5 Z"/></g>
<g><path style="opacity:0.106" fill="#7a7170" d="M 406.5,234.5 C 407.833,235.167 407.833,235.167 406.5,234.5 Z"/></g>
<g><path style="opacity:1" fill="#310200" d="M 246.5,237.5 C 248.288,236.378 250.288,236.211 252.5,237C 250.635,238.8 248.635,238.966 246.5,237.5 Z"/></g>
<g><path style="opacity:1" fill="#f4f7f9" d="M 324.5,237.5 C 324.678,241.122 324.011,244.456 322.5,247.5C 316.085,246.198 313.751,242.531 315.5,236.5C 318.319,235.506 321.153,234.506 324,233.5C 324.49,234.793 324.657,236.127 324.5,237.5 Z"/></g>
<g><path style="opacity:1" fill="#5874d8" d="M 201.5,240.5 C 201.5,241.167 201.5,241.833 201.5,242.5C 201.769,244.429 201.269,246.095 200,247.5C 198.354,245.431 196.187,244.098 193.5,243.5C 190.629,241.231 189.295,238.231 189.5,234.5C 191.693,233.203 194.027,233.203 196.5,234.5C 198.336,236.431 200.002,238.431 201.5,240.5 Z"/></g>
<g><path style="opacity:1" fill="#d68dab" d="M 237.5,233.5 C 237.5,233.833 237.5,234.167 237.5,234.5C 237.281,235.675 237.614,236.675 238.5,237.5C 241.819,240.103 244.486,243.103 246.5,246.5C 246.5,246.833 246.5,247.167 246.5,247.5C 244.983,247.489 243.816,246.823 243,245.5C 242.667,245.833 242.333,246.167 242,246.5C 240.188,245.023 238.355,243.69 236.5,242.5C 237.043,242.44 237.376,242.107 237.5,241.5C 236.487,239.473 235.487,237.473 234.5,235.5C 235.29,234.599 236.29,233.932 237.5,233.5 Z"/></g>
<g><path style="opacity:1" fill="#e7eff2" d="M 181.5,242.5 C 179.787,244.907 178.453,247.574 177.5,250.5C 178.702,252.78 179.702,255.114 180.5,257.5C 178.376,256.969 176.876,255.635 176,253.5C 173.984,248.012 173.151,242.345 173.5,236.5C 174.416,236.982 175.416,237.315 176.5,237.5C 178.477,236.54 180.477,235.54 182.5,234.5C 183.898,237.435 183.565,240.102 181.5,242.5 Z"/></g>
<g><path style="opacity:1" fill="#c78d73" d="M 262.5,218.5 C 258.826,231.85 263.826,238.517 277.5,238.5C 276.766,239.708 276.433,241.041 276.5,242.5C 269.24,240.273 262.74,241.607 257,246.5C 256.667,246.167 256.333,245.833 256,245.5C 253.096,247.227 249.93,247.893 246.5,247.5C 246.5,247.167 246.5,246.833 246.5,246.5C 253.618,245.22 260.285,242.72 266.5,239C 264.333,237.5 262.5,235.667 261,233.5C 260.333,228.833 260.333,224.167 261,219.5C 261.383,218.944 261.883,218.611 262.5,218.5 Z"/></g>
<g><path style="opacity:1" fill="#d7715c" d="M 285.5,236.5 C 286.895,238.379 288.895,239.379 291.5,239.5C 292.12,241.369 292.453,243.702 292.5,246.5C 292.346,248.97 291.346,250.97 289.5,252.5C 289.88,250.302 289.213,248.635 287.5,247.5C 287.167,246.833 286.833,246.167 286.5,245.5C 286.245,242.771 285.245,240.438 283.5,238.5C 283.833,237.5 284.5,236.833 285.5,236.5 Z"/></g>
<g><path style="opacity:1" fill="#c8777e" d="M 277.5,238.5 C 279.5,238.5 281.5,238.5 283.5,238.5C 285.245,240.438 286.245,242.771 286.5,245.5C 284.203,243.706 282.037,241.706 280,239.5C 280.045,243.253 281.545,246.419 284.5,249C 286.157,249.725 287.157,249.225 287.5,247.5C 289.213,248.635 289.88,250.302 289.5,252.5C 289.5,252.833 289.5,253.167 289.5,253.5C 286.86,252.18 284.193,250.847 281.5,249.5C 280.283,246.933 278.616,244.6 276.5,242.5C 276.433,241.041 276.766,239.708 277.5,238.5 Z"/></g>
<g><path style="opacity:1" fill="#d28c9e" d="M 385.5,225.5 C 387.304,225.424 389.304,225.757 391.5,226.5C 391.5,227.167 391.167,227.5 390.5,227.5C 382.228,237.958 374.061,248.624 366,259.5C 366.355,260.959 366.189,262.293 365.5,263.5C 362.67,263.694 360.004,264.361 357.5,265.5C 362.692,256.307 369.025,247.974 376.5,240.5C 377.961,236.189 380.795,232.856 385,230.5C 385.494,228.866 385.66,227.199 385.5,225.5 Z"/></g>
<g><path style="opacity:1" fill="#fbf9f8" d="M 236.5,242.5 C 238.355,243.69 240.188,245.023 242,246.5C 242.333,246.167 242.667,245.833 243,245.5C 243.816,246.823 244.983,247.489 246.5,247.5C 249.93,247.893 253.096,247.227 256,245.5C 256.333,245.833 256.667,246.167 257,246.5C 262.74,241.607 269.24,240.273 276.5,242.5C 278.616,244.6 280.283,246.933 281.5,249.5C 281.842,257.145 279.175,263.478 273.5,268.5C 268.191,271.653 262.525,273.986 256.5,275.5C 256.167,275.5 255.833,275.5 255.5,275.5C 248.155,274.931 240.822,273.598 233.5,271.5C 229.957,268.806 226.124,266.473 222,264.5C 218.956,260.002 217.289,255.002 217,249.5C 216.768,250.737 216.268,251.737 215.5,252.5C 215.5,251.5 215.5,250.5 215.5,249.5C 215.833,248.833 216.167,248.167 216.5,247.5C 219.268,245.913 221.935,244.08 224.5,242C 228.554,241.306 232.554,241.473 236.5,242.5 Z"/></g>
<g><path style="opacity:1" fill="#6aaad7" d="M 309.5,225.5 C 308.733,249.754 298.066,268.254 277.5,281C 279.058,281.21 280.391,281.71 281.5,282.5C 280.609,283.11 279.609,283.443 278.5,283.5C 277.737,282.732 276.737,282.232 275.5,282C 275.845,279.27 276.011,276.437 276,273.5C 277.883,272.347 278.716,270.681 278.5,268.5C 282.527,265.14 286.194,261.473 289.5,257.5C 296.891,248.494 299.558,238.161 297.5,226.5C 298.314,228.631 298.814,230.964 299,233.5C 299.495,231.527 299.662,229.527 299.5,227.5C 302.973,227.424 306.306,226.758 309.5,225.5 Z"/></g>
<g><path style="opacity:1" fill="#dd6fb1" d="M 286.5,245.5 C 286.833,246.167 287.167,246.833 287.5,247.5C 287.157,249.225 286.157,249.725 284.5,249C 281.545,246.419 280.045,243.253 280,239.5C 282.037,241.706 284.203,243.706 286.5,245.5 Z"/></g>
<g><path style="opacity:0.953" fill="#2c1415" d="M 331.5,247.5 C 330.728,248.694 329.728,249.694 328.5,250.5C 328.833,249.167 329.167,247.833 329.5,246.5C 331.067,245.319 331.901,243.653 332,241.5C 332.678,243.598 332.511,245.598 331.5,247.5 Z"/></g>
<g><path style="opacity:0.149" fill="#939493" d="M 390.5,245.5 C 389.833,244.167 389.833,244.167 390.5,245.5 Z"/></g>
<g><path style="opacity:1" fill="#926350" d="M 295.5,217.5 C 297.265,220.123 297.932,223.123 297.5,226.5C 299.558,238.161 296.891,248.494 289.5,257.5C 289.167,257.5 288.833,257.5 288.5,257.5C 288.433,256.041 288.766,254.708 289.5,253.5C 289.5,253.167 289.5,252.833 289.5,252.5C 291.346,250.97 292.346,248.97 292.5,246.5C 294.262,243.497 295.428,240.163 296,236.5C 296.653,230.138 296.487,223.805 295.5,217.5 Z"/></g>
<g><path style="opacity:0.302" fill="#918e8d" d="M 390.5,245.5 C 391.167,245.5 391.5,245.833 391.5,246.5C 391.167,246.167 390.833,245.833 390.5,245.5 Z"/></g>
<g><path style="opacity:1" fill="#d6705b" d="M 216.5,247.5 C 216.167,248.167 215.833,248.833 215.5,249.5C 214.127,249.657 212.793,249.49 211.5,249C 210.7,245.98 209.033,245.146 206.5,246.5C 205.945,242.613 207.279,239.613 210.5,237.5C 213.453,238.63 216.286,239.964 219,241.5C 218.926,243.765 218.093,245.765 216.5,247.5 Z"/></g>
<g><path style="opacity:0.878" fill="#93665c" d="M 332.5,236.5 C 332.232,238.099 332.566,239.432 333.5,240.5C 333.5,242.833 333.5,245.167 333.5,247.5C 332.833,247.5 332.167,247.5 331.5,247.5C 332.511,245.598 332.678,243.598 332,241.5C 331.901,243.653 331.067,245.319 329.5,246.5C 330.159,243.545 330.492,240.545 330.5,237.5C 331.167,237.167 331.833,236.833 332.5,236.5 Z"/></g>
<g><path style="opacity:0.302" fill="#a19f9e" d="M 391.5,246.5 C 392.167,246.5 392.5,246.833 392.5,247.5C 392.167,247.167 391.833,246.833 391.5,246.5 Z"/></g>
<g><path style="opacity:0.302" fill="#918e8d" d="M 392.5,247.5 C 393.167,247.5 393.5,247.833 393.5,248.5C 393.167,248.167 392.833,247.833 392.5,247.5 Z"/></g>
<g><path style="opacity:0.357" fill="#a4a3a2" d="M 393.5,248.5 C 394.167,248.5 394.5,248.833 394.5,249.5C 394.167,249.167 393.833,248.833 393.5,248.5 Z"/></g>
<g><path style="opacity:0.055" fill="#919291" d="M 394.5,249.5 C 395.833,250.167 395.833,250.167 394.5,249.5 Z"/></g>
<g><path style="opacity:1" fill="#f9f8f8" d="M 331.5,247.5 C 332.167,247.5 332.833,247.5 333.5,247.5C 333.5,248.833 334.167,249.5 335.5,249.5C 337.833,252.5 340.5,255.167 343.5,257.5C 350.621,265.239 358.621,270.906 367.5,274.5C 368.263,275.268 369.263,275.768 370.5,276C 368.273,278.564 366.439,281.397 365,284.5C 364.184,285.823 363.017,286.489 361.5,286.5C 361.167,286.5 360.833,286.5 360.5,286.5C 360.5,285.833 360.167,285.5 359.5,285.5C 347.501,280.749 336.668,274.083 327,265.5C 326.842,260.785 327.342,256.119 328.5,251.5C 328.5,251.167 328.5,250.833 328.5,250.5C 329.728,249.694 330.728,248.694 331.5,247.5 Z"/></g>
<g><path style="opacity:1" fill="#6086ce" d="M 189.5,234.5 C 189.295,238.231 190.629,241.231 193.5,243.5C 196.187,244.098 198.354,245.431 200,247.5C 201.269,246.095 201.769,244.429 201.5,242.5C 201.833,242.5 202.167,242.5 202.5,242.5C 204.051,245.619 205.051,248.952 205.5,252.5C 204.85,252.196 204.183,251.863 203.5,251.5C 202.304,251.846 202.304,252.346 203.5,253C 201.114,253.284 200.448,254.284 201.5,256C 199.842,256.725 199.342,257.892 200,259.5C 201.067,258.809 202.234,258.309 203.5,258C 202.549,257.282 202.383,256.449 203,255.5C 204.512,256.257 205.846,257.257 207,258.5C 207.278,257.584 207.778,256.918 208.5,256.5C 211.167,261.167 214.833,264.833 219.5,267.5C 219.5,268.167 219.5,268.833 219.5,269.5C 217.519,267.856 215.519,266.19 213.5,264.5C 211.167,266 208.833,267.5 206.5,269C 207.669,271.007 208.335,273.173 208.5,275.5C 211.167,275.833 213.833,276.167 216.5,276.5C 216.263,275.209 216.596,274.209 217.5,273.5C 218.167,275.833 218.833,278.167 219.5,280.5C 218.209,280.263 217.209,280.596 216.5,281.5C 209.575,278.23 203.908,273.564 199.5,267.5C 197.554,263.561 195.221,259.894 192.5,256.5C 192.037,253.779 191.371,251.112 190.5,248.5C 190.421,247.07 190.754,245.736 191.5,244.5C 190.675,243.614 189.675,243.281 188.5,243.5C 188.19,240.287 188.523,237.287 189.5,234.5 Z"/></g>
<g><path style="opacity:1" fill="#756875" d="M 233.5,183.5 C 228.227,186.142 223.227,189.309 218.5,193C 215.924,196.063 213.591,199.229 211.5,202.5C 210.094,202.973 209.427,203.973 209.5,205.5C 206.676,207.8 204.843,210.8 204,214.5C 203.168,224.184 203.335,233.851 204.5,243.5C 205.176,244.602 205.842,245.602 206.5,246.5C 208.28,252.269 211.28,257.269 215.5,261.5C 217.252,263.246 218.585,265.246 219.5,267.5C 214.833,264.833 211.167,261.167 208.5,256.5C 207.974,254.77 206.974,253.436 205.5,252.5C 205.051,248.952 204.051,245.619 202.5,242.5C 202.5,233.5 202.5,224.5 202.5,215.5C 206.673,198.905 217.007,188.238 233.5,183.5 Z"/></g>
<g><path style="opacity:1" fill="#694735" d="M 335.5,249.5 C 336.167,249.5 336.833,249.5 337.5,249.5C 339.86,252.527 342.527,255.194 345.5,257.5C 344.833,257.5 344.167,257.5 343.5,257.5C 340.5,255.167 337.833,252.5 335.5,249.5 Z"/></g>
<g><path style="opacity:1" fill="#a9bee8" d="M 205.5,252.5 C 206.974,253.436 207.974,254.77 208.5,256.5C 207.778,256.918 207.278,257.584 207,258.5C 205.846,257.257 204.512,256.257 203,255.5C 202.383,256.449 202.549,257.282 203.5,258C 202.234,258.309 201.067,258.809 200,259.5C 199.342,257.892 199.842,256.725 201.5,256C 200.448,254.284 201.114,253.284 203.5,253C 202.304,252.346 202.304,251.846 203.5,251.5C 204.183,251.863 204.85,252.196 205.5,252.5 Z"/></g>
<g><path style="opacity:1" fill="#556fb5" d="M 320.5,254.5 C 320.167,256.833 318.833,258.167 316.5,258.5C 313.833,258.5 311.167,258.5 308.5,258.5C 307.897,256.548 308.23,254.548 309.5,252.5C 310.32,250.86 311.153,249.193 312,247.5C 313.801,250.163 316.301,251.997 319.5,253C 318.16,255.179 318.493,255.679 320.5,254.5 Z"/></g>
<g><path style="opacity:1" fill="#648dcd" d="M 181.5,242.5 C 185.645,243.99 187.978,246.99 188.5,251.5C 187.952,253.532 186.619,254.532 184.5,254.5C 184.5,255.833 184.5,257.167 184.5,258.5C 182.901,258.768 181.568,258.434 180.5,257.5C 179.702,255.114 178.702,252.78 177.5,250.5C 178.453,247.574 179.787,244.907 181.5,242.5 Z"/></g>
<g><path style="opacity:1" fill="#515fad" d="M 188.5,251.5 C 190.047,252.768 191.047,254.435 191.5,256.5C 189.412,257.939 187.079,258.606 184.5,258.5C 184.5,257.167 184.5,255.833 184.5,254.5C 186.619,254.532 187.952,253.532 188.5,251.5 Z"/></g>
<g><path style="opacity:1" fill="#d28565" d="M 215.5,249.5 C 215.5,250.5 215.5,251.5 215.5,252.5C 215.44,255.021 216.106,257.354 217.5,259.5C 217.253,260.713 216.586,261.38 215.5,261.5C 211.28,257.269 208.28,252.269 206.5,246.5C 209.033,245.146 210.7,245.98 211.5,249C 212.793,249.49 214.127,249.657 215.5,249.5 Z"/></g>
<g><path style="opacity:0.992" fill="#1c1d3d" d="M 308.5,258.5 C 311.167,258.5 313.833,258.5 316.5,258.5C 314.189,260.068 311.522,260.902 308.5,261C 305.268,264.062 302.268,267.229 299.5,270.5C 299.5,270.167 299.5,269.833 299.5,269.5C 301.796,265.234 304.796,261.567 308.5,258.5 Z"/></g>
<g><path style="opacity:1" fill="#c0d1e3" d="M 192.5,256.5 C 195.221,259.894 197.554,263.561 199.5,267.5C 196.495,264.682 193.828,261.516 191.5,258C 192.056,257.617 192.389,257.117 192.5,256.5 Z"/></g>
<g><path style="opacity:1" fill="#bf8063" d="M 281.5,249.5 C 284.193,250.847 286.86,252.18 289.5,253.5C 288.766,254.708 288.433,256.041 288.5,257.5C 287.761,257.369 287.094,257.536 286.5,258C 283.21,263.525 278.877,267.025 273.5,268.5C 279.175,263.478 281.842,257.145 281.5,249.5 Z"/></g>
<g><path style="opacity:1" fill="#222129" d="M 174.5,222.5 C 174.833,222.5 175.167,222.5 175.5,222.5C 173.699,226.933 173.033,231.6 173.5,236.5C 173.151,242.345 173.984,248.012 176,253.5C 176.876,255.635 178.376,256.969 180.5,257.5C 181.568,258.434 182.901,258.768 184.5,258.5C 187.079,258.606 189.412,257.939 191.5,256.5C 191.833,256.5 192.167,256.5 192.5,256.5C 192.389,257.117 192.056,257.617 191.5,258C 193.828,261.516 196.495,264.682 199.5,267.5C 203.908,273.564 209.575,278.23 216.5,281.5C 219.167,283.167 221.833,284.833 224.5,286.5C 227.905,287.343 230.905,288.676 233.5,290.5C 232.883,290.611 232.383,290.944 232,291.5C 231.503,293.81 231.337,296.143 231.5,298.5C 231.5,299.833 231.5,301.167 231.5,302.5C 227.938,302.965 224.605,304.132 221.5,306C 221.12,308.326 220.12,310.159 218.5,311.5C 218.5,311.167 218.5,310.833 218.5,310.5C 218.549,307.901 219.549,305.734 221.5,304C 224,302.833 226.5,301.667 229,300.5C 227.954,296.83 228.454,293.33 230.5,290C 217.45,284.963 205.95,277.463 196,267.5C 193.938,265.099 192.271,262.433 191,259.5C 178.94,262.13 172.607,257.13 172,244.5C 171.333,238.167 171.333,231.833 172,225.5C 172.852,224.429 173.685,223.429 174.5,222.5 Z"/></g>
<g><path style="opacity:1" fill="#a77968" d="M 233.5,271.5 C 234.167,272.167 234.833,272.833 235.5,273.5C 231.317,272.743 227.317,271.41 223.5,269.5C 221.938,269.267 220.605,268.6 219.5,267.5C 218.585,265.246 217.252,263.246 215.5,261.5C 216.586,261.38 217.253,260.713 217.5,259.5C 216.106,257.354 215.44,255.021 215.5,252.5C 216.268,251.737 216.768,250.737 217,249.5C 217.289,255.002 218.956,260.002 222,264.5C 226.124,266.473 229.957,268.806 233.5,271.5 Z"/></g>
<g><path style="opacity:0.997" fill="#0e0d0e" d="M 328.5,251.5 C 327.342,256.119 326.842,260.785 327,265.5C 336.668,274.083 347.501,280.749 359.5,285.5C 360.167,285.5 360.5,285.833 360.5,286.5C 360.833,286.5 361.167,286.5 361.5,286.5C 362.694,287.272 363.694,288.272 364.5,289.5C 363.904,291.398 363.904,293.065 364.5,294.5C 363.66,296.853 362.326,298.853 360.5,300.5C 359.448,298.744 357.781,298.077 355.5,298.5C 353.365,296.929 351.032,295.596 348.5,294.5C 348.5,293.833 348.167,293.5 347.5,293.5C 338.63,288.137 330.797,281.47 324,273.5C 322.275,276.674 320.942,280.007 320,283.5C 319.124,285.635 317.624,286.969 315.5,287.5C 315.5,287.167 315.5,286.833 315.5,286.5C 318.081,283.68 319.914,280.346 321,276.5C 322.871,267.838 325.371,259.505 328.5,251.5 Z"/></g>
<g><path style="opacity:1" fill="#5970d7" d="M 219.5,269.5 C 219.771,271.38 219.104,272.713 217.5,273.5C 216.596,274.209 216.263,275.209 216.5,276.5C 213.833,276.167 211.167,275.833 208.5,275.5C 208.335,273.173 207.669,271.007 206.5,269C 208.833,267.5 211.167,266 213.5,264.5C 215.519,266.19 217.519,267.856 219.5,269.5 Z"/></g>
<g><path style="opacity:0.859" fill="#25191e" d="M 390.5,227.5 C 389.379,231.474 387.546,235.14 385,238.5C 381.165,242.849 377.831,247.516 375,252.5C 372.667,254.833 370.333,257.167 368,259.5C 367.333,261.167 367.333,262.833 368,264.5C 374.701,269.39 376.034,275.39 372,282.5C 369.725,286.732 367.225,290.732 364.5,294.5C 363.904,293.065 363.904,291.398 364.5,289.5C 367.688,286.841 370.188,283.508 372,279.5C 374.022,276.604 373.856,273.937 371.5,271.5C 369.885,268.55 367.885,265.884 365.5,263.5C 366.189,262.293 366.355,260.959 366,259.5C 374.061,248.624 382.228,237.958 390.5,227.5 Z"/></g>
<g><path style="opacity:1" fill="#dfd8d5" d="M 343.5,257.5 C 344.167,257.5 344.833,257.5 345.5,257.5C 347.937,259.433 350.271,261.6 352.5,264C 354.025,265.009 355.692,265.509 357.5,265.5C 360.004,264.361 362.67,263.694 365.5,263.5C 367.885,265.884 369.885,268.55 371.5,271.5C 371.5,272.5 371.5,273.5 371.5,274.5C 370.167,274.5 368.833,274.5 367.5,274.5C 358.621,270.906 350.621,265.239 343.5,257.5 Z"/></g>
<g><path style="opacity:1" fill="#585b63" d="M 223.5,269.5 C 227.317,271.41 231.317,272.743 235.5,273.5C 241.969,276.309 248.636,276.976 255.5,275.5C 255.833,275.5 256.167,275.5 256.5,275.5C 256.5,276.167 256.5,276.833 256.5,277.5C 247.245,278.193 238.245,277.027 229.5,274C 226.986,273.119 224.986,271.619 223.5,269.5 Z"/></g>
<g><path style="opacity:1" fill="#649ecc" d="M 315.5,220.5 C 324.6,223.037 327.6,228.703 324.5,237.5C 324.657,236.127 324.49,234.793 324,233.5C 321.153,234.506 318.319,235.506 315.5,236.5C 313.751,242.531 316.085,246.198 322.5,247.5C 321.833,249.833 321.167,252.167 320.5,254.5C 318.493,255.679 318.16,255.179 319.5,253C 316.301,251.997 313.801,250.163 312,247.5C 311.153,249.193 310.32,250.86 309.5,252.5C 308.883,252.389 308.383,252.056 308,251.5C 303.437,262.277 296.27,270.943 286.5,277.5C 285.614,278.325 285.281,279.325 285.5,280.5C 285.167,281.167 284.833,281.833 284.5,282.5C 283.5,282.5 282.5,282.5 281.5,282.5C 280.391,281.71 279.058,281.21 277.5,281C 298.066,268.254 308.733,249.754 309.5,225.5C 311.048,225.179 311.715,224.179 311.5,222.5C 313.38,222.771 314.713,222.104 315.5,220.5 Z"/></g>
<g><path style="opacity:1" fill="#897e7d" d="M 288.5,257.5 C 288.833,257.5 289.167,257.5 289.5,257.5C 286.194,261.473 282.527,265.14 278.5,268.5C 273.648,272.259 268.315,274.926 262.5,276.5C 260.901,276.232 259.568,276.566 258.5,277.5C 257.833,277.5 257.167,277.5 256.5,277.5C 256.5,276.833 256.5,276.167 256.5,275.5C 262.525,273.986 268.191,271.653 273.5,268.5C 278.877,267.025 283.21,263.525 286.5,258C 287.094,257.536 287.761,257.369 288.5,257.5 Z"/></g>
<g><path style="opacity:1" fill="#aba6a2" d="M 233.5,271.5 C 240.822,273.598 248.155,274.931 255.5,275.5C 248.636,276.976 241.969,276.309 235.5,273.5C 234.833,272.833 234.167,272.167 233.5,271.5 Z"/></g>
<g><path style="opacity:0.192" fill="#090c18" d="M 299.5,269.5 C 299.5,269.833 299.5,270.167 299.5,270.5C 295.421,275.699 290.421,279.699 284.5,282.5C 284.833,281.833 285.167,281.167 285.5,280.5C 290.167,276.833 294.833,273.167 299.5,269.5 Z"/></g>
<g><path style="opacity:0.981" fill="#f7f6f7" d="M 347.5,293.5 C 348.167,293.5 348.5,293.833 348.5,294.5C 349.669,297.511 351.336,300.178 353.5,302.5C 352.555,305.723 351.055,308.723 349,311.5C 347.25,313.424 345.417,315.091 343.5,316.5C 344.028,315.279 344.695,314.113 345.5,313C 341.209,313.196 336.876,313.363 332.5,313.5C 332.158,312.662 331.492,312.328 330.5,312.5C 330.5,311.833 330.167,311.5 329.5,311.5C 329.158,310.662 328.492,310.328 327.5,310.5C 327.5,309.833 327.167,309.5 326.5,309.5C 321.694,306.353 318.36,302.02 316.5,296.5C 317.715,295.221 317.382,294.221 315.5,293.5C 315.672,292.508 315.338,291.842 314.5,291.5C 313.174,289.805 313.507,288.472 315.5,287.5C 317.624,286.969 319.124,285.635 320,283.5C 320.942,280.007 322.275,276.674 324,273.5C 330.797,281.47 338.63,288.137 347.5,293.5 Z"/></g>
<g><path style="opacity:0.388" fill="#f7eef6" d="M 313.5,286.5 C 312.662,286.842 312.328,287.508 312.5,288.5C 311.041,288.433 309.708,288.766 308.5,289.5C 306.986,284.301 305.32,279.134 303.5,274C 303.643,271.849 304.643,270.182 306.5,269C 312.264,268.077 316.264,270.243 318.5,275.5C 317.282,279.383 314.949,282.383 311.5,284.5C 312.243,285.182 312.909,285.849 313.5,286.5 Z"/></g>
<g><path style="opacity:1" fill="#5c779f" d="M 309.5,252.5 C 308.23,254.548 307.897,256.548 308.5,258.5C 304.796,261.567 301.796,265.234 299.5,269.5C 294.833,273.167 290.167,276.833 285.5,280.5C 285.281,279.325 285.614,278.325 286.5,277.5C 296.27,270.943 303.437,262.277 308,251.5C 308.383,252.056 308.883,252.389 309.5,252.5 Z"/></g>
<g><path style="opacity:1" fill="#63a3d1" d="M 219.5,267.5 C 220.605,268.6 221.938,269.267 223.5,269.5C 224.986,271.619 226.986,273.119 229.5,274C 238.245,277.027 247.245,278.193 256.5,277.5C 257.167,277.5 257.833,277.5 258.5,277.5C 258.755,280.229 259.755,282.562 261.5,284.5C 262.167,285.167 262.833,285.833 263.5,286.5C 262.833,286.5 262.167,286.5 261.5,286.5C 259.915,284.018 257.915,283.352 255.5,284.5C 254.609,283.89 253.609,283.557 252.5,283.5C 250.219,283.077 248.552,283.744 247.5,285.5C 246.185,283.401 244.518,283.067 242.5,284.5C 241.652,283.375 240.652,283.375 239.5,284.5C 235.176,283.736 230.842,283.736 226.5,284.5C 225.287,284.747 224.62,285.414 224.5,286.5C 221.833,284.833 219.167,283.167 216.5,281.5C 217.209,280.596 218.209,280.263 219.5,280.5C 218.833,278.167 218.167,275.833 217.5,273.5C 219.104,272.713 219.771,271.38 219.5,269.5C 219.5,268.833 219.5,268.167 219.5,267.5 Z"/></g>
<g><path style="opacity:1" fill="#f4f6f6" d="M 278.5,268.5 C 278.716,270.681 277.883,272.347 276,273.5C 276.011,276.437 275.845,279.27 275.5,282C 276.737,282.232 277.737,282.732 278.5,283.5C 275.094,284.878 271.76,286.211 268.5,287.5C 266.784,287.371 265.117,287.038 263.5,286.5C 262.833,285.833 262.167,285.167 261.5,284.5C 267.68,282.462 268.013,279.795 262.5,276.5C 268.315,274.926 273.648,272.259 278.5,268.5 Z"/></g>
<g><path style="opacity:1" fill="#beadda" d="M 262.5,276.5 C 268.013,279.795 267.68,282.462 261.5,284.5C 259.755,282.562 258.755,280.229 258.5,277.5C 259.568,276.566 260.901,276.232 262.5,276.5 Z"/></g>
<g><path style="opacity:1" fill="#d3b2c0" d="M 371.5,271.5 C 373.856,273.937 374.022,276.604 372,279.5C 370.188,283.508 367.688,286.841 364.5,289.5C 363.694,288.272 362.694,287.272 361.5,286.5C 363.017,286.489 364.184,285.823 365,284.5C 366.439,281.397 368.273,278.564 370.5,276C 369.263,275.768 368.263,275.268 367.5,274.5C 368.833,274.5 370.167,274.5 371.5,274.5C 371.5,273.5 371.5,272.5 371.5,271.5 Z"/></g>
<g><path style="opacity:1" fill="#b9c2ca" d="M 239.5,284.5 C 238.172,286.793 236.839,289.127 235.5,291.5C 234.833,291.167 234.167,290.833 233.5,290.5C 230.905,288.676 227.905,287.343 224.5,286.5C 224.62,285.414 225.287,284.747 226.5,284.5C 230.842,283.736 235.176,283.736 239.5,284.5 Z"/></g>
<g><path style="opacity:0.553" fill="#201f24" d="M 281.5,282.5 C 282.5,282.5 283.5,282.5 284.5,282.5C 279.404,285.205 274.071,287.538 268.5,289.5C 268.5,288.833 268.5,288.167 268.5,287.5C 271.76,286.211 275.094,284.878 278.5,283.5C 279.609,283.443 280.609,283.11 281.5,282.5 Z"/></g>
<g><path style="opacity:1" fill="#f8f8f9" d="M 247.5,285.5 C 248.244,289.119 248.577,292.785 248.5,296.5C 248.5,298.167 248.5,299.833 248.5,301.5C 245.5,301.5 242.5,301.5 239.5,301.5C 239.5,298.167 239.5,294.833 239.5,291.5C 239.925,288.881 240.925,286.547 242.5,284.5C 244.518,283.067 246.185,283.401 247.5,285.5 Z"/></g>
<g><path style="opacity:0.894" fill="#111213" d="M 252.5,283.5 C 251.647,288.47 250.98,293.47 250.5,298.5C 249.833,297.833 249.167,297.167 248.5,296.5C 248.577,292.785 248.244,289.119 247.5,285.5C 248.552,283.744 250.219,283.077 252.5,283.5 Z"/></g>
<g><path style="opacity:0.565" fill="#70696d" d="M 315.5,286.5 C 315.5,286.833 315.5,287.167 315.5,287.5C 313.507,288.472 313.174,289.805 314.5,291.5C 314.5,291.833 314.5,292.167 314.5,292.5C 313.609,291.89 312.609,291.557 311.5,291.5C 311.389,290.883 311.056,290.383 310.5,290C 311.416,289.722 312.082,289.222 312.5,288.5C 312.328,287.508 312.662,286.842 313.5,286.5C 314.396,285.494 315.062,285.494 315.5,286.5 Z"/></g>
<g><path style="opacity:1" fill="#29292a" d="M 242.5,284.5 C 240.925,286.547 239.925,288.881 239.5,291.5C 238.681,294.305 238.181,297.305 238,300.5C 237.241,298.937 236.074,297.937 234.5,297.5C 235.341,295.621 235.675,293.621 235.5,291.5C 236.839,289.127 238.172,286.793 239.5,284.5C 240.652,283.375 241.652,283.375 242.5,284.5 Z"/></g>
<g><path style="opacity:0.976" fill="#c2abb5" d="M 261.5,286.5 C 262.167,286.5 262.833,286.5 263.5,286.5C 265.117,287.038 266.784,287.371 268.5,287.5C 268.5,288.167 268.5,288.833 268.5,289.5C 267.761,289.369 267.094,289.536 266.5,290C 268.757,293.238 269.09,296.738 267.5,300.5C 268.243,301.182 268.909,301.849 269.5,302.5C 268.178,302.67 267.011,302.337 266,301.5C 263.435,303.179 260.602,303.846 257.5,303.5C 254.5,302.833 251.5,302.167 248.5,301.5C 248.5,299.833 248.5,298.167 248.5,296.5C 249.167,297.167 249.833,297.833 250.5,298.5C 251.624,299.809 253.124,300.475 255,300.5C 256.825,300.057 258.658,299.723 260.5,299.5C 260.81,300.738 261.31,300.738 262,299.5C 262.706,295.113 262.54,290.78 261.5,286.5 Z M 263.5,291.5 C 266.873,292.932 267.207,294.932 264.5,297.5C 263.534,295.604 263.201,293.604 263.5,291.5 Z"/></g>
<g><path style="opacity:1" fill="#f7f6f7" d="M 308.5,291.5 C 308.833,291.5 309.167,291.5 309.5,291.5C 309.148,307.796 315.482,320.796 328.5,330.5C 321.673,336.455 313.673,340.121 304.5,341.5C 294.634,326.79 292.967,311.124 299.5,294.5C 302.314,292.895 305.314,291.895 308.5,291.5 Z"/></g>
<g><path style="opacity:0.995" fill="#0a0809" d="M 309.5,291.5 C 310.167,291.5 310.833,291.5 311.5,291.5C 312.609,291.557 313.609,291.89 314.5,292.5C 314.5,293.167 314.833,293.5 315.5,293.5C 315.263,294.791 315.596,295.791 316.5,296.5C 318.36,302.02 321.694,306.353 326.5,309.5C 327.167,309.5 327.5,309.833 327.5,310.5C 327.842,311.338 328.508,311.672 329.5,311.5C 330.167,311.5 330.5,311.833 330.5,312.5C 330.842,313.338 331.508,313.672 332.5,313.5C 335.013,315.926 338.013,317.592 341.5,318.5C 342.601,319.598 343.934,319.765 345.5,319C 347.501,316.675 349.834,314.842 352.5,313.5C 346.811,321.522 339.811,328.189 331.5,333.5C 331.167,333.5 330.833,333.5 330.5,333.5C 331.491,331.877 330.824,330.877 328.5,330.5C 315.482,320.796 309.148,307.796 309.5,291.5 Z"/></g>
<g><path style="opacity:0.993" fill="#0e0b0c" d="M 312.5,288.5 C 312.082,289.222 311.416,289.722 310.5,290C 311.056,290.383 311.389,290.883 311.5,291.5C 310.833,291.5 310.167,291.5 309.5,291.5C 309.167,290.167 308.833,290.167 308.5,291.5C 305.314,291.895 302.314,292.895 299.5,294.5C 292.967,311.124 294.634,326.79 304.5,341.5C 304.987,342.473 305.487,343.473 306,344.5C 314.608,341.692 322.775,338.025 330.5,333.5C 330.833,333.5 331.167,333.5 331.5,333.5C 327.939,336.532 323.939,339.032 319.5,341C 310.412,344.14 301.412,347.473 292.5,351C 289.546,353.441 287.213,356.275 285.5,359.5C 285.343,358.127 285.51,356.793 286,355.5C 287.376,354.295 288.542,352.962 289.5,351.5C 290.749,349.864 292.416,348.697 294.5,348C 286.949,337.441 283.615,325.607 284.5,312.5C 285.167,309.833 285.833,307.167 286.5,304.5C 289.251,298.445 288.584,298.111 284.5,303.5C 283.876,305.754 282.543,307.421 280.5,308.5C 278.026,305.69 275.026,303.69 271.5,302.5C 270.833,302.5 270.167,302.5 269.5,302.5C 268.909,301.849 268.243,301.182 267.5,300.5C 269.09,296.738 268.757,293.238 266.5,290C 267.094,289.536 267.761,289.369 268.5,289.5C 269.089,291.352 269.756,293.185 270.5,295C 269.594,296.699 269.261,298.533 269.5,300.5C 274.076,300.568 277.576,302.568 280,306.5C 282.032,302.592 284.866,299.425 288.5,297C 294.931,293.802 301.598,291.302 308.5,289.5C 309.708,288.766 311.041,288.433 312.5,288.5 Z"/></g>
<g><path style="opacity:0.812" fill="#161418" d="M 255.5,284.5 C 257.915,283.352 259.915,284.018 261.5,286.5C 262.54,290.78 262.706,295.113 262,299.5C 261.31,300.738 260.81,300.738 260.5,299.5C 260.464,295.021 259.631,290.688 258,286.5C 257.292,285.619 256.458,284.953 255.5,284.5 Z"/></g>
<g><path style="opacity:0.051" fill="#887e84" d="M 286.5,304.5 C 286.158,303.662 285.492,303.328 284.5,303.5C 288.584,298.111 289.251,298.445 286.5,304.5 Z"/></g>
<g><path style="opacity:1" fill="#ddcecf" d="M 239.5,291.5 C 239.5,294.833 239.5,298.167 239.5,301.5C 242.5,301.5 245.5,301.5 248.5,301.5C 251.5,302.167 254.5,302.833 257.5,303.5C 251.286,303.617 245.286,303.951 239.5,304.5C 239.977,305.478 240.643,306.311 241.5,307C 246.823,307.499 252.156,307.666 257.5,307.5C 250.381,308.995 243.214,308.661 236,306.5C 235.5,306.667 235,306.833 234.5,307C 235.793,309.052 236.793,311.219 237.5,313.5C 237.389,314.117 237.056,314.617 236.5,315C 238.044,317.999 239.211,321.166 240,324.5C 240.995,325.066 241.828,325.733 242.5,326.5C 241.761,326.369 241.094,326.536 240.5,327C 241.423,329.041 241.756,331.208 241.5,333.5C 240.833,334.167 240.167,334.833 239.5,335.5C 239.167,334.833 238.833,334.167 238.5,333.5C 237.374,326.373 236.04,319.706 234.5,313.5C 234.424,309.771 233.257,306.438 231,303.5C 228.122,304.689 225.288,306.022 222.5,307.5C 221.727,309.813 221.06,312.146 220.5,314.5C 220.957,315.298 221.624,315.631 222.5,315.5C 223.263,316.268 224.263,316.768 225.5,317C 224.468,318.627 223.134,319.793 221.5,320.5C 219.808,318.795 218.475,316.795 217.5,314.5C 217.5,313.833 217.167,313.5 216.5,313.5C 216.833,312.5 217.5,311.833 218.5,311.5C 220.12,310.159 221.12,308.326 221.5,306C 224.605,304.132 227.938,302.965 231.5,302.5C 231.5,301.167 231.5,299.833 231.5,298.5C 232.609,298.443 233.609,298.11 234.5,297.5C 236.074,297.937 237.241,298.937 238,300.5C 238.181,297.305 238.681,294.305 239.5,291.5 Z"/></g>
<g><path style="opacity:1" fill="#503a44" d="M 360.5,300.5 C 358.618,305.368 355.952,309.701 352.5,313.5C 353.62,308.081 356.287,303.748 360.5,300.5 Z"/></g>
<g><path style="opacity:1" fill="#0c0b0a" d="M 257.5,307.5 C 259.167,307.5 260.833,307.5 262.5,307.5C 263.188,313.414 260.688,316.414 255,316.5C 248.986,316.271 243.153,315.271 237.5,313.5C 236.793,311.219 235.793,309.052 234.5,307C 235,306.833 235.5,306.667 236,306.5C 243.214,308.661 250.381,308.995 257.5,307.5 Z"/></g>
<g><path style="opacity:1" fill="#ca6b6f" d="M 271.5,302.5 C 275.026,303.69 278.026,305.69 280.5,308.5C 280.5,308.833 280.5,309.167 280.5,309.5C 278.654,311.03 277.654,313.03 277.5,315.5C 272.807,315.54 268.141,315.873 263.5,316.5C 263.366,312.129 264.532,308.129 267,304.5C 268.622,303.901 270.122,303.234 271.5,302.5 Z"/></g>
<g><path style="opacity:1" fill="#dc5c63" d="M 268.5,305.5 C 270.288,305.215 271.955,305.548 273.5,306.5C 272.477,308.895 273.477,309.895 276.5,309.5C 276.64,311.124 275.973,312.29 274.5,313C 271.522,313.696 268.522,314.196 265.5,314.5C 265.647,311.208 266.647,308.208 268.5,305.5 Z"/></g>
<g><path style="opacity:1" fill="#d36165" d="M 234.5,313.5 C 234.441,315.722 233.275,316.722 231,316.5C 228.208,315.784 225.374,315.451 222.5,315.5C 221.624,315.631 220.957,315.298 220.5,314.5C 221.06,312.146 221.727,309.813 222.5,307.5C 225.288,306.022 228.122,304.689 231,303.5C 233.257,306.438 234.424,309.771 234.5,313.5 Z"/></g>
<g><path style="opacity:1" fill="#d9b0c2" d="M 355.5,298.5 C 357.781,298.077 359.448,298.744 360.5,300.5C 356.287,303.748 353.62,308.081 352.5,313.5C 349.834,314.842 347.501,316.675 345.5,319C 343.934,319.765 342.601,319.598 341.5,318.5C 341.833,317.5 342.5,316.833 343.5,316.5C 345.417,315.091 347.25,313.424 349,311.5C 351.055,308.723 352.555,305.723 353.5,302.5C 354.6,301.395 355.267,300.062 355.5,298.5 Z"/></g>
<g><path style="opacity:1" fill="#f7f2f2" d="M 269.5,302.5 C 270.167,302.5 270.833,302.5 271.5,302.5C 270.122,303.234 268.622,303.901 267,304.5C 264.532,308.129 263.366,312.129 263.5,316.5C 268.141,315.873 272.807,315.54 277.5,315.5C 277.654,313.03 278.654,311.03 280.5,309.5C 281.526,310.853 282.859,311.853 284.5,312.5C 283.615,325.607 286.949,337.441 294.5,348C 292.416,348.697 290.749,349.864 289.5,351.5C 288.127,351.343 286.793,351.51 285.5,352C 284.76,353.785 284.093,355.618 283.5,357.5C 278.88,358.493 274.214,358.827 269.5,358.5C 270.04,354.868 270.373,351.201 270.5,347.5C 270.478,344.41 269.812,341.743 268.5,339.5C 268.5,338.833 268.167,338.5 267.5,338.5C 268.209,337.596 269.209,337.263 270.5,337.5C 272.817,334.242 274.65,330.576 276,326.5C 276.78,324.613 276.613,322.946 275.5,321.5C 275.244,319.224 273.91,318.057 271.5,318C 267.848,317.501 264.182,317.335 260.5,317.5C 260.354,321.387 259.687,325.054 258.5,328.5C 257.791,327.596 256.791,327.263 255.5,327.5C 254.833,327.5 254.167,327.5 253.5,327.5C 252.536,325.595 250.869,324.595 248.5,324.5C 247.045,325.39 245.711,325.39 244.5,324.5C 243.702,324.957 243.369,325.624 243.5,326.5C 243.167,326.5 242.833,326.5 242.5,326.5C 241.828,325.733 240.995,325.066 240,324.5C 239.211,321.166 238.044,317.999 236.5,315C 237.056,314.617 237.389,314.117 237.5,313.5C 243.153,315.271 248.986,316.271 255,316.5C 260.688,316.414 263.188,313.414 262.5,307.5C 260.833,307.5 259.167,307.5 257.5,307.5C 252.156,307.666 246.823,307.499 241.5,307C 240.643,306.311 239.977,305.478 239.5,304.5C 245.286,303.951 251.286,303.617 257.5,303.5C 260.602,303.846 263.435,303.179 266,301.5C 267.011,302.337 268.178,302.67 269.5,302.5 Z M 277.5,355.5 C 278.386,354.224 279.386,354.224 280.5,355.5C 279.575,356.562 278.575,356.562 277.5,355.5 Z"/></g>
<g><path style="opacity:1" fill="#c89375" d="M 234.5,313.5 C 236.04,319.706 237.374,326.373 238.5,333.5C 237.391,333.557 236.391,333.89 235.5,334.5C 235.662,332.473 235.495,330.473 235,328.5C 234.667,329.167 234.333,329.833 234,330.5C 230.743,327.141 230.91,323.808 234.5,320.5C 232.133,318.605 229.466,318.105 226.5,319C 227.624,319.249 228.624,319.749 229.5,320.5C 227.741,321.754 226.241,321.421 225,319.5C 224.219,320.729 223.719,322.062 223.5,323.5C 225.352,327.927 227.352,332.26 229.5,336.5C 229.5,337.5 229.5,338.5 229.5,339.5C 226.327,335.306 223.993,330.639 222.5,325.5C 222.634,323.708 222.301,322.042 221.5,320.5C 223.134,319.793 224.468,318.627 225.5,317C 224.263,316.768 223.263,316.268 222.5,315.5C 225.374,315.451 228.208,315.784 231,316.5C 233.275,316.722 234.441,315.722 234.5,313.5 Z"/></g>
<g><path style="opacity:1" fill="#c8976b" d="M 275.5,321.5 C 273.26,325.178 270.593,328.678 267.5,332C 265.287,333.616 262.953,334.783 260.5,335.5C 259.778,335.082 259.278,334.416 259,333.5C 258.329,334.252 257.496,334.586 256.5,334.5C 257.363,332.579 258.029,330.579 258.5,328.5C 259.687,325.054 260.354,321.387 260.5,317.5C 264.182,317.335 267.848,317.501 271.5,318C 273.91,318.057 275.244,319.224 275.5,321.5 Z"/></g>
<g><path style="opacity:1" fill="#ccb3bd" d="M 253.5,327.5 C 252.833,327.5 252.167,327.5 251.5,327.5C 248.763,327.599 246.096,327.265 243.5,326.5C 243.369,325.624 243.702,324.957 244.5,324.5C 245.711,325.39 247.045,325.39 248.5,324.5C 250.869,324.595 252.536,325.595 253.5,327.5 Z"/></g>
<g><path style="opacity:1" fill="#d0935e" d="M 235.5,334.5 C 233.847,334.66 232.514,335.326 231.5,336.5C 230.833,336.5 230.167,336.5 229.5,336.5C 227.352,332.26 225.352,327.927 223.5,323.5C 223.719,322.062 224.219,320.729 225,319.5C 226.241,321.421 227.741,321.754 229.5,320.5C 228.624,319.749 227.624,319.249 226.5,319C 229.466,318.105 232.133,318.605 234.5,320.5C 230.91,323.808 230.743,327.141 234,330.5C 234.333,329.833 234.667,329.167 235,328.5C 235.495,330.473 235.662,332.473 235.5,334.5 Z"/></g>
<g><path style="opacity:1" fill="#0c090a" d="M 242.5,326.5 C 242.833,326.5 243.167,326.5 243.5,326.5C 246.096,327.265 248.763,327.599 251.5,327.5C 251.918,328.222 252.584,328.722 253.5,329C 251.167,329.333 248.833,329.667 246.5,330C 250.409,332.386 253.409,331.552 255.5,327.5C 256.791,327.263 257.791,327.596 258.5,328.5C 258.029,330.579 257.363,332.579 256.5,334.5C 251.362,336.033 246.362,335.699 241.5,333.5C 241.756,331.208 241.423,329.041 240.5,327C 241.094,326.536 241.761,326.369 242.5,326.5 Z"/></g>
<g><path style="opacity:1" fill="#6a6769" d="M 251.5,327.5 C 252.167,327.5 252.833,327.5 253.5,327.5C 254.167,327.5 254.833,327.5 255.5,327.5C 253.409,331.552 250.409,332.386 246.5,330C 248.833,329.667 251.167,329.333 253.5,329C 252.584,328.722 251.918,328.222 251.5,327.5 Z"/></g>
<g><path style="opacity:1" fill="#c48a80" d="M 275.5,321.5 C 276.613,322.946 276.78,324.613 276,326.5C 274.65,330.576 272.817,334.242 270.5,337.5C 269.209,337.263 268.209,337.596 267.5,338.5C 267.167,338.5 266.833,338.5 266.5,338.5C 265.082,336.692 263.082,336.025 260.5,336.5C 260.5,336.167 260.5,335.833 260.5,335.5C 262.953,334.783 265.287,333.616 267.5,332C 270.593,328.678 273.26,325.178 275.5,321.5 Z"/></g>
<g><path style="opacity:1" fill="#f6f1f2" d="M 241.5,333.5 C 246.362,335.699 251.362,336.033 256.5,334.5C 257.496,334.586 258.329,334.252 259,333.5C 259.278,334.416 259.778,335.082 260.5,335.5C 260.5,335.833 260.5,336.167 260.5,336.5C 260.313,340.913 259.646,345.246 258.5,349.5C 253.047,349.635 247.714,348.968 242.5,347.5C 241.833,347.833 241.167,348.167 240.5,348.5C 239.833,348.167 239.167,347.833 238.5,347.5C 239.383,343.386 239.716,339.386 239.5,335.5C 240.167,334.833 240.833,334.167 241.5,333.5 Z"/></g>
<g><path style="opacity:0.993" fill="#111010" d="M 218.5,310.5 C 218.5,310.833 218.5,311.167 218.5,311.5C 217.5,311.833 216.833,312.5 216.5,313.5C 215.443,314.206 215.776,314.539 217.5,314.5C 218.475,316.795 219.808,318.795 221.5,320.5C 222.301,322.042 222.634,323.708 222.5,325.5C 218.327,322.241 213.66,320.407 208.5,320C 203.42,324.409 199.086,329.409 195.5,335C 202.19,334.074 208.857,334.408 215.5,336C 218.433,337.271 221.099,338.938 223.5,341C 215.067,339.83 206.733,340.497 198.5,343C 194.805,345.51 191.138,348.01 187.5,350.5C 186.5,350.5 185.5,350.5 184.5,350.5C 191.632,336.182 201.298,323.682 213.5,313C 215.078,311.906 216.745,311.072 218.5,310.5 Z"/></g>
<g><path style="opacity:1" fill="#cb9297" d="M 238.5,333.5 C 238.833,334.167 239.167,334.833 239.5,335.5C 239.716,339.386 239.383,343.386 238.5,347.5C 237.833,347.5 237.167,347.5 236.5,347.5C 234.727,346.108 232.727,344.941 230.5,344C 229.262,343.31 229.262,342.81 230.5,342.5C 233.005,342.98 235.338,343.98 237.5,345.5C 237.833,345 238.167,344.5 238.5,344C 238.026,342.296 237.859,340.462 238,338.5C 235.723,337.883 233.556,337.216 231.5,336.5C 232.514,335.326 233.847,334.66 235.5,334.5C 236.391,333.89 237.391,333.557 238.5,333.5 Z"/></g>
<g><path style="opacity:1" fill="#d0afbb" d="M 328.5,330.5 C 330.824,330.877 331.491,331.877 330.5,333.5C 322.775,338.025 314.608,341.692 306,344.5C 305.487,343.473 304.987,342.473 304.5,341.5C 313.673,340.121 321.673,336.455 328.5,330.5 Z"/></g>
<g><path style="opacity:1" fill="#f8f8f8" d="M 222.5,325.5 C 223.993,330.639 226.327,335.306 229.5,339.5C 229.557,340.609 229.89,341.609 230.5,342.5C 229.262,342.81 229.262,343.31 230.5,344C 232.727,344.941 234.727,346.108 236.5,347.5C 230.747,349.536 226.413,353.202 223.5,358.5C 211.833,358.5 200.167,358.5 188.5,358.5C 188.123,356.742 187.456,355.075 186.5,353.5C 186.863,352.817 187.196,352.15 187.5,351.5C 187.5,351.167 187.5,350.833 187.5,350.5C 191.138,348.01 194.805,345.51 198.5,343C 206.733,340.497 215.067,339.83 223.5,341C 221.099,338.938 218.433,337.271 215.5,336C 208.857,334.408 202.19,334.074 195.5,335C 199.086,329.409 203.42,324.409 208.5,320C 213.66,320.407 218.327,322.241 222.5,325.5 Z"/></g>
<g><path style="opacity:1" fill="#cc636a" d="M 229.5,336.5 C 230.167,336.5 230.833,336.5 231.5,336.5C 233.556,337.216 235.723,337.883 238,338.5C 237.859,340.462 238.026,342.296 238.5,344C 238.167,344.5 237.833,345 237.5,345.5C 235.338,343.98 233.005,342.98 230.5,342.5C 229.89,341.609 229.557,340.609 229.5,339.5C 229.5,338.5 229.5,337.5 229.5,336.5 Z"/></g>
<g><path style="opacity:1" fill="#c4696e" d="M 260.5,336.5 C 263.082,336.025 265.082,336.692 266.5,338.5C 266.833,338.5 267.167,338.5 267.5,338.5C 268.167,338.5 268.5,338.833 268.5,339.5C 268.954,346.109 268.954,352.776 268.5,359.5C 265.167,359.5 261.833,359.5 258.5,359.5C 258.5,357.167 258.5,354.833 258.5,352.5C 258.5,351.833 258.167,351.5 257.5,351.5C 257.833,350.833 258.167,350.167 258.5,349.5C 259.646,345.246 260.313,340.913 260.5,336.5 Z"/></g>
<g><path style="opacity:1" fill="#100c0c" d="M 242.5,347.5 C 247.714,348.968 253.047,349.635 258.5,349.5C 258.167,350.167 257.833,350.833 257.5,351.5C 256.078,352.925 254.411,353.925 252.5,354.5C 248.608,352.938 245.275,350.605 242.5,347.5 Z"/></g>
<g><path style="opacity:1" fill="#0d0c0d" d="M 236.5,347.5 C 237.167,347.5 237.833,347.5 238.5,347.5C 239.167,347.833 239.833,348.167 240.5,348.5C 241.551,349.222 242.218,350.222 242.5,351.5C 239.991,352.921 237.657,354.588 235.5,356.5C 231.869,359.569 227.869,360.235 223.5,358.5C 226.413,353.202 230.747,349.536 236.5,347.5 Z"/></g>
<g><path style="opacity:1" fill="#888888" d="M 242.5,347.5 C 245.275,350.605 248.608,352.938 252.5,354.5C 252.5,355.167 252.5,355.833 252.5,356.5C 249.435,354.301 246.101,352.634 242.5,351.5C 242.218,350.222 241.551,349.222 240.5,348.5C 241.167,348.167 241.833,347.833 242.5,347.5 Z"/></g>
<g><path style="opacity:1" fill="#f9f9f9" d="M 242.5,351.5 C 246.101,352.634 249.435,354.301 252.5,356.5C 252.611,357.117 252.944,357.617 253.5,358C 250.5,358.167 247.5,358.333 244.5,358.5C 241.087,358.483 238.087,357.816 235.5,356.5C 237.657,354.588 239.991,352.921 242.5,351.5 Z"/></g>
<g><path style="opacity:0.871" fill="#472e3b" d="M 184.5,350.5 C 185.5,350.5 186.5,350.5 187.5,350.5C 187.5,350.833 187.5,351.167 187.5,351.5C 186.5,351.5 185.5,351.5 184.5,351.5C 184.037,354.221 183.371,356.888 182.5,359.5C 181.903,359.265 181.57,358.765 181.5,358C 181.982,355.181 182.982,352.681 184.5,350.5 Z"/></g>
<g><path style="opacity:1" fill="#d6a7bb" d="M 187.5,351.5 C 187.196,352.15 186.863,352.817 186.5,353.5C 187.456,355.075 188.123,356.742 188.5,358.5C 188.5,358.833 188.5,359.167 188.5,359.5C 186.5,359.5 184.5,359.5 182.5,359.5C 183.371,356.888 184.037,354.221 184.5,351.5C 185.5,351.5 186.5,351.5 187.5,351.5 Z"/></g>
<g><path style="opacity:1" fill="#d96169" d="M 266.5,338.5 C 268.076,342.683 267.743,346.683 265.5,350.5C 267.229,352.851 267.896,355.518 267.5,358.5C 264.833,358.5 262.167,358.5 259.5,358.5C 260.26,351.843 260.927,345.177 261.5,338.5C 263.167,338.5 264.833,338.5 266.5,338.5 Z"/></g>
<g><path style="opacity:1" fill="#dbcedc" d="M 257.5,351.5 C 258.167,351.5 258.5,351.833 258.5,352.5C 257.917,355.241 256.917,357.908 255.5,360.5C 261.167,361.167 266.833,361.833 272.5,362.5C 269.572,363.484 266.572,363.817 263.5,363.5C 254.192,362.503 244.859,361.837 235.5,361.5C 235.5,362.5 235.5,363.5 235.5,364.5C 231.548,363.804 227.548,363.304 223.5,363C 222.167,362 220.833,361 219.5,360C 209.172,359.5 198.839,359.334 188.5,359.5C 188.5,359.167 188.5,358.833 188.5,358.5C 200.167,358.5 211.833,358.5 223.5,358.5C 227.869,360.235 231.869,359.569 235.5,356.5C 238.087,357.816 241.087,358.483 244.5,358.5C 247.5,358.333 250.5,358.167 253.5,358C 252.944,357.617 252.611,357.117 252.5,356.5C 252.5,355.833 252.5,355.167 252.5,354.5C 254.411,353.925 256.078,352.925 257.5,351.5 Z"/></g>
<g><path style="opacity:1" fill="#d3b8d8" d="M 263.5,363.5 C 262.833,364.5 262.167,365.5 261.5,366.5C 257.759,367.861 254.092,369.528 250.5,371.5C 247.232,372.487 243.898,372.82 240.5,372.5C 240.884,370.071 241.551,367.737 242.5,365.5C 239.941,365.802 237.607,365.468 235.5,364.5C 235.5,363.5 235.5,362.5 235.5,361.5C 244.859,361.837 254.192,362.503 263.5,363.5 Z"/></g>
<g><path style="opacity:1" fill="#cfb8c8" d="M 268.5,339.5 C 269.812,341.743 270.478,344.41 270.5,347.5C 270.373,351.201 270.04,354.868 269.5,358.5C 274.214,358.827 278.88,358.493 283.5,357.5C 284.093,355.618 284.76,353.785 285.5,352C 286.793,351.51 288.127,351.343 289.5,351.5C 288.542,352.962 287.376,354.295 286,355.5C 285.51,356.793 285.343,358.127 285.5,359.5C 282.15,359.335 278.817,359.502 275.5,360C 273.845,361.444 273.178,363.278 273.5,365.5C 269.519,366.021 265.519,366.354 261.5,366.5C 262.167,365.5 262.833,364.5 263.5,363.5C 266.572,363.817 269.572,363.484 272.5,362.5C 266.833,361.833 261.167,361.167 255.5,360.5C 256.917,357.908 257.917,355.241 258.5,352.5C 258.5,354.833 258.5,357.167 258.5,359.5C 261.833,359.5 265.167,359.5 268.5,359.5C 268.954,352.776 268.954,346.109 268.5,339.5 Z M 277.5,355.5 C 278.575,356.562 279.575,356.562 280.5,355.5C 279.386,354.224 278.386,354.224 277.5,355.5 Z"/></g>
<g><path style="opacity:0.129" fill="#f6f2f5" d="M 321.5,455.5 C 322.573,456.251 322.74,457.251 322,458.5C 319.984,460.684 317.817,462.684 315.5,464.5C 315.167,464 314.833,463.5 314.5,463C 317.694,461.306 320.027,458.806 321.5,455.5 Z"/></g>
</svg>
