<?xml version="1.0" encoding="UTF-8"?>
<!DOCTYPE svg PUBLIC "-//W3C//DTD SVG 1.1//EN" "http://www.w3.org/Graphics/SVG/1.1/DTD/svg11.dtd">
<svg xmlns="http://www.w3.org/2000/svg" version="1.1" width="522px" height="478px" style="shape-rendering:geometricPrecision; text-rendering:geometricPrecision; image-rendering:optimizeQuality; fill-rule:evenodd; clip-rule:evenodd" xmlns:xlink="http://www.w3.org/1999/xlink">
<g><path style="opacity:0.999" fill="#313131" d="M 491.5,162.5 C 490.942,165.344 490.275,168.178 489.5,171C 490.343,185.198 490.843,199.365 491,213.5C 490.237,210.937 489.737,210.937 489.5,213.5C 490.223,215.782 490.557,218.116 490.5,220.5C 489.585,228.827 487.418,236.827 484,244.5C 469.016,273.49 448.849,298.323 423.5,319C 418.134,321.678 413.134,324.844 408.5,328.5C 406.83,328.751 405.33,329.418 404,330.5C 402.16,329.167 401.66,329.334 402.5,331C 399.5,332 396.5,333 393.5,334C 395.619,334.342 395.953,335.175 394.5,336.5C 376.264,344.952 357.598,352.285 338.5,358.5C 334.59,358.263 330.923,359.096 327.5,361C 325.937,361.759 324.937,362.926 324.5,364.5C 312.832,369.27 301.499,374.604 290.5,380.5C 300,395.5 309.5,410.5 319,425.5C 331.289,451.226 324.122,468.559 297.5,477.5C 287.833,477.5 278.167,477.5 268.5,477.5C 258.231,474.106 249.731,468.106 243,459.5C 218.122,422.908 193.622,386.074 169.5,349C 171.126,347.181 173.126,345.848 175.5,345C 237.038,318.567 298.371,291.567 359.5,264C 377.245,250.432 391.911,234.265 403.5,215.5C 404.825,214.047 405.658,214.381 406,216.5C 407.426,210.355 409.592,204.521 412.5,199C 412.265,198.127 411.931,197.293 411.5,196.5C 412.716,195.904 414.049,195.737 415.5,196C 414.167,195 414.167,194 415.5,193C 413.109,191.691 413.109,190.691 415.5,190C 415.112,187.14 415.112,184.14 415.5,181C 414.747,179.513 413.914,179.346 413,180.5C 412.508,179.451 412.674,178.451 413.5,177.5C 412.965,175.729 412.131,175.396 411,176.5C 411.209,173.355 411.375,170.188 411.5,167C 410.538,163.476 408.872,161.142 406.5,160C 406.638,157.805 406.638,155.638 406.5,153.5C 406.032,151.866 405.032,150.7 403.5,150C 405.901,149.195 405.734,148.362 403,147.5C 401.515,144.7 399.849,142.034 398,139.5C 397.601,139.728 397.435,140.062 397.5,140.5C 386.793,123.958 373.126,110.125 356.5,99C 346.332,93.2507 335.665,88.584 324.5,85C 308.167,81.6667 291.833,81.6667 275.5,85C 259.982,89.0464 244.649,93.713 229.5,99C 192.257,113.748 155.257,129.081 118.5,145C 108.421,148.609 100.921,155.109 96,164.5C 94.4165,172.445 95.7499,179.778 100,186.5C 108.477,198.221 119.977,203.388 134.5,202C 177.833,184.333 221.167,166.667 264.5,149C 280.314,146.185 295.314,148.518 309.5,156C 314.376,161.77 318.043,168.27 320.5,175.5C 320.746,179.203 320.746,183.036 320.5,187C 324.424,191.181 324.09,195.181 319.5,199C 320.38,200.356 320.714,201.856 320.5,203.5C 319.05,206.785 316.717,209.285 313.5,211C 307.992,214.255 302.325,217.255 296.5,220C 256.997,237.39 217.331,254.39 177.5,271C 143.976,283.923 110.643,283.589 77.5,270C 43.3086,252.47 21.8086,224.97 13,187.5C 8.35596,154.426 18.1893,126.593 42.5,104C 58.5428,91.6395 75.8761,81.3062 94.5,73C 141.859,54.4864 189.526,36.8197 237.5,20C 277.018,12.0094 316.351,12.6761 355.5,22C 397.923,37.4267 433.423,62.5934 462,97.5C 476.156,117.149 485.989,138.815 491.5,162.5 Z"/></g>
<g><path style="opacity:0.869" fill="#454546" d="M 403.5,215.5 C 411.625,200.463 413.125,184.796 408,168.5C 405.181,158.872 401.681,149.538 397.5,140.5C 397.435,140.062 397.601,139.728 398,139.5C 399.849,142.034 401.515,144.7 403,147.5C 405.734,148.362 405.901,149.195 403.5,150C 405.032,150.7 406.032,151.866 406.5,153.5C 406.638,155.638 406.638,157.805 406.5,160C 408.872,161.142 410.538,163.476 411.5,167C 411.375,170.188 411.209,173.355 411,176.5C 412.131,175.396 412.965,175.729 413.5,177.5C 412.674,178.451 412.508,179.451 413,180.5C 413.914,179.346 414.747,179.513 415.5,181C 415.112,184.14 415.112,187.14 415.5,190C 413.109,190.691 413.109,191.691 415.5,193C 414.167,194 414.167,195 415.5,196C 414.049,195.737 412.716,195.904 411.5,196.5C 411.931,197.293 412.265,198.127 412.5,199C 409.592,204.521 407.426,210.355 406,216.5C 405.658,214.381 404.825,214.047 403.5,215.5 Z"/></g>
<g><path style="opacity:0.925" fill="#5b595c" d="M 491.5,162.5 C 493.039,170.608 493.706,178.941 493.5,187.5C 493.891,198.775 492.891,209.775 490.5,220.5C 490.557,218.116 490.223,215.782 489.5,213.5C 489.737,210.937 490.237,210.937 491,213.5C 490.843,199.365 490.343,185.198 489.5,171C 490.275,168.178 490.942,165.344 491.5,162.5 Z"/></g>
<g><path style="opacity:0.373" fill="#6b696f" d="M 320.5,175.5 C 324.436,183.189 325.269,191.189 323,199.5C 322.392,201.066 321.558,202.4 320.5,203.5C 320.714,201.856 320.38,200.356 319.5,199C 324.09,195.181 324.424,191.181 320.5,187C 320.746,183.036 320.746,179.203 320.5,175.5 Z"/></g>
<g><path style="opacity:0.555" fill="#706f71" d="M 408.5,328.5 C 404.493,332.174 399.827,334.841 394.5,336.5C 395.953,335.175 395.619,334.342 393.5,334C 396.5,333 399.5,332 402.5,331C 401.66,329.334 402.16,329.167 404,330.5C 405.33,329.418 406.83,328.751 408.5,328.5 Z"/></g>
<g><path style="opacity:0.459" fill="#676566" d="M 338.5,358.5 C 334.156,361.065 329.49,363.065 324.5,364.5C 324.937,362.926 325.937,361.759 327.5,361C 330.923,359.096 334.59,358.263 338.5,358.5 Z"/></g>
</svg>
